%TF.GenerationSoftware,KiCad,Pcbnew,6.0.8+dfsg-1~bpo11+1*%
%TF.CreationDate,2022-10-27T04:09:56+08:00*%
%TF.ProjectId,SynthCard,53796e74-6843-4617-9264-2e6b69636164,rev?*%
%TF.SameCoordinates,Original*%
%TF.FileFunction,Soldermask,Top*%
%TF.FilePolarity,Negative*%
%FSLAX46Y46*%
G04 Gerber Fmt 4.6, Leading zero omitted, Abs format (unit mm)*
G04 Created by KiCad (PCBNEW 6.0.8+dfsg-1~bpo11+1) date 2022-10-27 04:09:56*
%MOMM*%
%LPD*%
G01*
G04 APERTURE LIST*
%ADD10C,1.600000*%
%ADD11O,1.600000X1.600000*%
%ADD12R,1.600000X1.600000*%
%ADD13R,1.800000X1.800000*%
%ADD14C,1.800000*%
%ADD15R,1.930000X1.830000*%
%ADD16C,2.130000*%
%ADD17O,2.720000X3.240000*%
%ADD18R,1.700000X1.700000*%
%ADD19O,1.700000X1.700000*%
G04 APERTURE END LIST*
D10*
%TO.C,R1*%
X107696000Y-107188000D03*
D11*
X107696000Y-99568000D03*
%TD*%
D10*
%TO.C,C1*%
X104394000Y-99608000D03*
X104394000Y-104608000D03*
%TD*%
D12*
%TO.C,U1*%
X110754000Y-97038000D03*
D11*
X110754000Y-99578000D03*
X110754000Y-102118000D03*
X110754000Y-104658000D03*
X118374000Y-104658000D03*
X118374000Y-102118000D03*
X118374000Y-99578000D03*
X118374000Y-97038000D03*
%TD*%
D13*
%TO.C,D1*%
X125600000Y-82725000D03*
D14*
X125600000Y-85265000D03*
%TD*%
D12*
%TO.C,C3*%
X118110000Y-88138000D03*
D10*
X115610000Y-88138000D03*
%TD*%
D15*
%TO.C,J2*%
X107950000Y-79056000D03*
D16*
X107950000Y-90456000D03*
X107950000Y-82156000D03*
%TD*%
D12*
%TO.C,U2*%
X123200000Y-97038000D03*
D11*
X123200000Y-99578000D03*
X123200000Y-102118000D03*
X123200000Y-104658000D03*
X130820000Y-104658000D03*
X130820000Y-102118000D03*
X130820000Y-99578000D03*
X130820000Y-97038000D03*
%TD*%
D10*
%TO.C,C2*%
X133858000Y-99862000D03*
X133858000Y-104862000D03*
%TD*%
%TO.C,R2*%
X123290000Y-91200000D03*
D11*
X130910000Y-91200000D03*
%TD*%
D17*
%TO.C,RV2*%
X123724000Y-114049000D03*
X133324000Y-114049000D03*
D13*
X126024000Y-121549000D03*
D14*
X128524000Y-121549000D03*
X131024000Y-121549000D03*
%TD*%
D17*
%TO.C,RV1*%
X104674000Y-114049000D03*
X114274000Y-114049000D03*
D13*
X106974000Y-121549000D03*
D14*
X109474000Y-121549000D03*
X111974000Y-121549000D03*
%TD*%
D18*
%TO.C,BT1*%
X139225000Y-120900000D03*
D19*
X141765000Y-120900000D03*
%TD*%
M02*
