M48
; DRILL file {KiCad 6.0.8+dfsg-1~bpo11+1} date Thursday, 27 October, 2022 04:09:55 AM
; FORMAT={-:-/ absolute / inch / decimal}
; #@! TF.CreationDate,2022-10-27T04:09:55+08:00
; #@! TF.GenerationSoftware,Kicad,Pcbnew,6.0.8+dfsg-1~bpo11+1
; #@! TF.FileFunction,Plated,1,2,PTH
FMAT,2
INCH
; #@! TA.AperFunction,Plated,PTH,ComponentDrill
T1C0.0315
; #@! TA.AperFunction,Plated,PTH,ComponentDrill
T2C0.0354
; #@! TA.AperFunction,Plated,PTH,ComponentDrill
T3C0.0394
; #@! TA.AperFunction,Plated,PTH,ComponentDrill
T4C0.0433
; #@! TA.AperFunction,Plated,PTH,ComponentDrill
T5C0.0480
; #@! TA.AperFunction,Plated,PTH,ComponentDrill
T6C0.0559
; #@! TA.AperFunction,Plated,PTH,ComponentDrill
T7C0.0563
%
G90
G05
T1
X4.11Y-3.9216
X4.11Y-4.1184
X4.24Y-3.92
X4.24Y-4.22
X4.3604Y-3.8204
X4.3604Y-3.9204
X4.3604Y-4.0204
X4.3604Y-4.1204
X4.5516Y-3.47
X4.65Y-3.47
X4.6604Y-3.8204
X4.6604Y-3.9204
X4.6604Y-4.0204
X4.6604Y-4.1204
X4.8504Y-3.8204
X4.8504Y-3.9204
X4.8504Y-4.0204
X4.8504Y-4.1204
X4.8539Y-3.5906
X5.1504Y-3.8204
X5.1504Y-3.9204
X5.1504Y-4.0204
X5.1504Y-4.1204
X5.1539Y-3.5906
X5.27Y-3.9316
X5.27Y-4.1284
T2
X4.9449Y-3.2569
X4.9449Y-3.3569
T3
X4.2116Y-4.7854
X4.31Y-4.7854
X4.4084Y-4.7854
X4.9616Y-4.7854
X5.06Y-4.7854
X5.1584Y-4.7854
X5.4813Y-4.7598
X5.5813Y-4.7598
T5
X4.25Y-3.1124
T6
X4.25Y-3.2345
T7
X4.25Y-3.5613
T4
G00X4.121Y-4.5137
M15
G01X4.121Y-4.4665
M16
G05
G00X4.499Y-4.5137
M15
G01X4.499Y-4.4665
M16
G05
G00X4.871Y-4.5137
M15
G01X4.871Y-4.4665
M16
G05
G00X5.249Y-4.5137
M15
G01X5.249Y-4.4665
M16
G05
T0
M30
