%TF.GenerationSoftware,KiCad,Pcbnew,6.0.8+dfsg-1~bpo11+1*%
%TF.CreationDate,2022-10-27T04:09:56+08:00*%
%TF.ProjectId,SynthCard,53796e74-6843-4617-9264-2e6b69636164,rev?*%
%TF.SameCoordinates,Original*%
%TF.FileFunction,Copper,L2,Bot*%
%TF.FilePolarity,Positive*%
%FSLAX46Y46*%
G04 Gerber Fmt 4.6, Leading zero omitted, Abs format (unit mm)*
G04 Created by KiCad (PCBNEW 6.0.8+dfsg-1~bpo11+1) date 2022-10-27 04:09:56*
%MOMM*%
%LPD*%
G01*
G04 APERTURE LIST*
%TA.AperFunction,ComponentPad*%
%ADD10C,1.600000*%
%TD*%
%TA.AperFunction,ComponentPad*%
%ADD11O,1.600000X1.600000*%
%TD*%
%TA.AperFunction,ComponentPad*%
%ADD12R,1.600000X1.600000*%
%TD*%
%TA.AperFunction,ComponentPad*%
%ADD13R,1.800000X1.800000*%
%TD*%
%TA.AperFunction,ComponentPad*%
%ADD14C,1.800000*%
%TD*%
%TA.AperFunction,ComponentPad*%
%ADD15R,1.930000X1.830000*%
%TD*%
%TA.AperFunction,ComponentPad*%
%ADD16C,2.130000*%
%TD*%
%TA.AperFunction,ComponentPad*%
%ADD17O,2.720000X3.240000*%
%TD*%
%TA.AperFunction,ComponentPad*%
%ADD18R,1.700000X1.700000*%
%TD*%
%TA.AperFunction,ComponentPad*%
%ADD19O,1.700000X1.700000*%
%TD*%
%TA.AperFunction,Conductor*%
%ADD20C,1.000000*%
%TD*%
%TA.AperFunction,Conductor*%
%ADD21C,0.250000*%
%TD*%
G04 APERTURE END LIST*
D10*
%TO.P,R1,1*%
%TO.N,Net-(R1-Pad1)*%
X107696000Y-107188000D03*
D11*
%TO.P,R1,2*%
%TO.N,Net-(C1-Pad1)*%
X107696000Y-99568000D03*
%TD*%
D10*
%TO.P,C1,1*%
%TO.N,Net-(C1-Pad1)*%
X104394000Y-99608000D03*
%TO.P,C1,2*%
%TO.N,GND*%
X104394000Y-104608000D03*
%TD*%
D12*
%TO.P,U1,1,GND*%
%TO.N,GND*%
X110754000Y-97038000D03*
D11*
%TO.P,U1,2,TR*%
%TO.N,Net-(C1-Pad1)*%
X110754000Y-99578000D03*
%TO.P,U1,3,Q*%
%TO.N,Net-(U1-Pad3)*%
X110754000Y-102118000D03*
%TO.P,U1,4,R*%
%TO.N,+9V*%
X110754000Y-104658000D03*
%TO.P,U1,5,CV*%
%TO.N,unconnected-(U1-Pad5)*%
X118374000Y-104658000D03*
%TO.P,U1,6,THR*%
%TO.N,Net-(C1-Pad1)*%
X118374000Y-102118000D03*
%TO.P,U1,7,DIS*%
%TO.N,Net-(R1-Pad1)*%
X118374000Y-99578000D03*
%TO.P,U1,8,VCC*%
%TO.N,+9V*%
X118374000Y-97038000D03*
%TD*%
D13*
%TO.P,D1,1,K*%
%TO.N,GND*%
X125600000Y-82725000D03*
D14*
%TO.P,D1,2,A*%
%TO.N,Net-(D1-Pad2)*%
X125600000Y-85265000D03*
%TD*%
D12*
%TO.P,C3,1*%
%TO.N,Net-(C3-Pad1)*%
X118110000Y-88138000D03*
D10*
%TO.P,C3,2*%
%TO.N,Net-(C3-Pad2)*%
X115610000Y-88138000D03*
%TD*%
D15*
%TO.P,J2,S*%
%TO.N,GND*%
X107950000Y-79056000D03*
D16*
%TO.P,J2,T*%
%TO.N,Net-(C3-Pad2)*%
X107950000Y-90456000D03*
%TO.P,J2,TN*%
%TO.N,unconnected-(J2-PadTN)*%
X107950000Y-82156000D03*
%TD*%
D12*
%TO.P,U2,1,GND*%
%TO.N,GND*%
X123200000Y-97038000D03*
D11*
%TO.P,U2,2,TR*%
%TO.N,Net-(U1-Pad3)*%
X123200000Y-99578000D03*
%TO.P,U2,3,Q*%
%TO.N,Net-(C3-Pad1)*%
X123200000Y-102118000D03*
%TO.P,U2,4,R*%
%TO.N,+9V*%
X123200000Y-104658000D03*
%TO.P,U2,5,CV*%
%TO.N,unconnected-(U2-Pad5)*%
X130820000Y-104658000D03*
%TO.P,U2,6,THR*%
%TO.N,Net-(C2-Pad1)*%
X130820000Y-102118000D03*
%TO.P,U2,7,DIS*%
X130820000Y-99578000D03*
%TO.P,U2,8,VCC*%
%TO.N,+9V*%
X130820000Y-97038000D03*
%TD*%
D10*
%TO.P,C2,1*%
%TO.N,Net-(C2-Pad1)*%
X133858000Y-99862000D03*
%TO.P,C2,2*%
%TO.N,GND*%
X133858000Y-104862000D03*
%TD*%
%TO.P,R2,1*%
%TO.N,Net-(D1-Pad2)*%
X123290000Y-91200000D03*
D11*
%TO.P,R2,2*%
%TO.N,+9V*%
X130910000Y-91200000D03*
%TD*%
D17*
%TO.P,RV2,*%
%TO.N,*%
X123724000Y-114049000D03*
X133324000Y-114049000D03*
D13*
%TO.P,RV2,1,1*%
%TO.N,+9V*%
X126024000Y-121549000D03*
D14*
%TO.P,RV2,2,2*%
X128524000Y-121549000D03*
%TO.P,RV2,3,3*%
%TO.N,Net-(C2-Pad1)*%
X131024000Y-121549000D03*
%TD*%
D17*
%TO.P,RV1,*%
%TO.N,*%
X104674000Y-114049000D03*
X114274000Y-114049000D03*
D13*
%TO.P,RV1,1,1*%
%TO.N,+9V*%
X106974000Y-121549000D03*
D14*
%TO.P,RV1,2,2*%
X109474000Y-121549000D03*
%TO.P,RV1,3,3*%
%TO.N,Net-(R1-Pad1)*%
X111974000Y-121549000D03*
%TD*%
D18*
%TO.P,BT1,1,+*%
%TO.N,+9V*%
X139225000Y-120900000D03*
D19*
%TO.P,BT1,2,-*%
%TO.N,GND*%
X141765000Y-120900000D03*
%TD*%
D20*
%TO.N,+9V*%
X106974000Y-121549000D02*
X109474000Y-121549000D01*
X123200000Y-104658000D02*
X130820000Y-97038000D01*
X126024000Y-121549000D02*
X126024000Y-107482000D01*
X109474000Y-121549000D02*
X109474000Y-105938000D01*
X111643000Y-119380000D02*
X123855000Y-119380000D01*
X126024000Y-121549000D02*
X128524000Y-121549000D01*
X130820000Y-97038000D02*
X130820000Y-91290000D01*
X120650000Y-102108000D02*
X120650000Y-99314000D01*
X131573000Y-118500000D02*
X136825000Y-118500000D01*
X139225000Y-120900000D02*
G75*
G03*
X136825000Y-118500000I-2400000J0D01*
G01*
X126024000Y-121549000D02*
G75*
G03*
X123855000Y-119380000I-2169000J0D01*
G01*
X111643000Y-119380000D02*
G75*
G03*
X109474000Y-121549000I0J-2169000D01*
G01*
X120650000Y-102108000D02*
G75*
G03*
X123200000Y-104658000I2550000J0D01*
G01*
X130910000Y-91200000D02*
G75*
G03*
X130820000Y-91290000I0J-90000D01*
G01*
X118374000Y-97038000D02*
G75*
G02*
X120650000Y-99314000I0J-2276000D01*
G01*
X110754000Y-104658000D02*
G75*
G03*
X109474000Y-105938000I0J-1280000D01*
G01*
X123200000Y-104658000D02*
G75*
G02*
X126024000Y-107482000I0J-2824000D01*
G01*
X131573000Y-118500000D02*
G75*
G03*
X128524000Y-121549000I0J-3049000D01*
G01*
D21*
%TO.N,Net-(D1-Pad2)*%
X123290000Y-91200000D02*
X123290000Y-90841833D01*
D20*
X125599990Y-85264990D02*
G75*
G03*
X123290000Y-90841833I5576810J-5576810D01*
G01*
%TD*%
%TA.AperFunction,Conductor*%
%TO.N,GND*%
G36*
X187441843Y-76545155D02*
G01*
X187488476Y-76598689D01*
X187500000Y-76651331D01*
X187500000Y-123874000D01*
X187479998Y-123942121D01*
X187426342Y-123988614D01*
X187374000Y-124000000D01*
X101626000Y-124000000D01*
X101557879Y-123979998D01*
X101511386Y-123926342D01*
X101500000Y-123874000D01*
X101500000Y-122497134D01*
X105565500Y-122497134D01*
X105572255Y-122559316D01*
X105623385Y-122695705D01*
X105710739Y-122812261D01*
X105827295Y-122899615D01*
X105963684Y-122950745D01*
X106025866Y-122957500D01*
X107922134Y-122957500D01*
X107984316Y-122950745D01*
X108120705Y-122899615D01*
X108237261Y-122812261D01*
X108324615Y-122695705D01*
X108328549Y-122685212D01*
X108339686Y-122655504D01*
X108382328Y-122598739D01*
X108448890Y-122574040D01*
X108518239Y-122589248D01*
X108538150Y-122602788D01*
X108663349Y-122706730D01*
X108863322Y-122823584D01*
X108868147Y-122825426D01*
X108868148Y-122825427D01*
X108942665Y-122853883D01*
X109079694Y-122906209D01*
X109084760Y-122907240D01*
X109084761Y-122907240D01*
X109137846Y-122918040D01*
X109306656Y-122952385D01*
X109436089Y-122957131D01*
X109532949Y-122960683D01*
X109532953Y-122960683D01*
X109538113Y-122960872D01*
X109543233Y-122960216D01*
X109543235Y-122960216D01*
X109617166Y-122950745D01*
X109767847Y-122931442D01*
X109772795Y-122929957D01*
X109772802Y-122929956D01*
X109984747Y-122866369D01*
X109989690Y-122864886D01*
X110005351Y-122857214D01*
X110193049Y-122765262D01*
X110193052Y-122765260D01*
X110197684Y-122762991D01*
X110386243Y-122628494D01*
X110550303Y-122465005D01*
X110619370Y-122368888D01*
X110675365Y-122325240D01*
X110746068Y-122318794D01*
X110809033Y-122351597D01*
X110829128Y-122376584D01*
X110830799Y-122379311D01*
X110830804Y-122379317D01*
X110833501Y-122383719D01*
X110985147Y-122558784D01*
X111163349Y-122706730D01*
X111363322Y-122823584D01*
X111368147Y-122825426D01*
X111368148Y-122825427D01*
X111442665Y-122853883D01*
X111579694Y-122906209D01*
X111584760Y-122907240D01*
X111584761Y-122907240D01*
X111637846Y-122918040D01*
X111806656Y-122952385D01*
X111936089Y-122957131D01*
X112032949Y-122960683D01*
X112032953Y-122960683D01*
X112038113Y-122960872D01*
X112043233Y-122960216D01*
X112043235Y-122960216D01*
X112117166Y-122950745D01*
X112267847Y-122931442D01*
X112272795Y-122929957D01*
X112272802Y-122929956D01*
X112484747Y-122866369D01*
X112489690Y-122864886D01*
X112505351Y-122857214D01*
X112693049Y-122765262D01*
X112693052Y-122765260D01*
X112697684Y-122762991D01*
X112886243Y-122628494D01*
X113050303Y-122465005D01*
X113185458Y-122276917D01*
X113208938Y-122229410D01*
X113285784Y-122073922D01*
X113285785Y-122073920D01*
X113288078Y-122069280D01*
X113355408Y-121847671D01*
X113385640Y-121618041D01*
X113387327Y-121549000D01*
X113375592Y-121406267D01*
X113368773Y-121323318D01*
X113368772Y-121323312D01*
X113368349Y-121318167D01*
X113330516Y-121167548D01*
X113313184Y-121098544D01*
X113313183Y-121098540D01*
X113311925Y-121093533D01*
X113219570Y-120881131D01*
X113093764Y-120686665D01*
X113044885Y-120632947D01*
X113014268Y-120599300D01*
X112983216Y-120535454D01*
X112991611Y-120464955D01*
X113036787Y-120410187D01*
X113107461Y-120388500D01*
X123791181Y-120388500D01*
X123805225Y-120389285D01*
X123840851Y-120393281D01*
X123846995Y-120392765D01*
X123846996Y-120392765D01*
X123865194Y-120391237D01*
X123886719Y-120391275D01*
X124045533Y-120405170D01*
X124067162Y-120408983D01*
X124241266Y-120455634D01*
X124261905Y-120463146D01*
X124425263Y-120539321D01*
X124444283Y-120550303D01*
X124561770Y-120632568D01*
X124606099Y-120688025D01*
X124615500Y-120735781D01*
X124615500Y-122497134D01*
X124622255Y-122559316D01*
X124673385Y-122695705D01*
X124760739Y-122812261D01*
X124877295Y-122899615D01*
X125013684Y-122950745D01*
X125075866Y-122957500D01*
X126972134Y-122957500D01*
X127034316Y-122950745D01*
X127170705Y-122899615D01*
X127287261Y-122812261D01*
X127374615Y-122695705D01*
X127378549Y-122685212D01*
X127389686Y-122655504D01*
X127432328Y-122598739D01*
X127498890Y-122574040D01*
X127568239Y-122589248D01*
X127588150Y-122602788D01*
X127713349Y-122706730D01*
X127913322Y-122823584D01*
X127918147Y-122825426D01*
X127918148Y-122825427D01*
X127992665Y-122853883D01*
X128129694Y-122906209D01*
X128134760Y-122907240D01*
X128134761Y-122907240D01*
X128187846Y-122918040D01*
X128356656Y-122952385D01*
X128486089Y-122957131D01*
X128582949Y-122960683D01*
X128582953Y-122960683D01*
X128588113Y-122960872D01*
X128593233Y-122960216D01*
X128593235Y-122960216D01*
X128667166Y-122950745D01*
X128817847Y-122931442D01*
X128822795Y-122929957D01*
X128822802Y-122929956D01*
X129034747Y-122866369D01*
X129039690Y-122864886D01*
X129055351Y-122857214D01*
X129243049Y-122765262D01*
X129243052Y-122765260D01*
X129247684Y-122762991D01*
X129436243Y-122628494D01*
X129600303Y-122465005D01*
X129669370Y-122368888D01*
X129725365Y-122325240D01*
X129796068Y-122318794D01*
X129859033Y-122351597D01*
X129879128Y-122376584D01*
X129880799Y-122379311D01*
X129880804Y-122379317D01*
X129883501Y-122383719D01*
X130035147Y-122558784D01*
X130213349Y-122706730D01*
X130413322Y-122823584D01*
X130418147Y-122825426D01*
X130418148Y-122825427D01*
X130492665Y-122853883D01*
X130629694Y-122906209D01*
X130634760Y-122907240D01*
X130634761Y-122907240D01*
X130687846Y-122918040D01*
X130856656Y-122952385D01*
X130986089Y-122957131D01*
X131082949Y-122960683D01*
X131082953Y-122960683D01*
X131088113Y-122960872D01*
X131093233Y-122960216D01*
X131093235Y-122960216D01*
X131167166Y-122950745D01*
X131317847Y-122931442D01*
X131322795Y-122929957D01*
X131322802Y-122929956D01*
X131534747Y-122866369D01*
X131539690Y-122864886D01*
X131555351Y-122857214D01*
X131743049Y-122765262D01*
X131743052Y-122765260D01*
X131747684Y-122762991D01*
X131936243Y-122628494D01*
X132100303Y-122465005D01*
X132235458Y-122276917D01*
X132258938Y-122229410D01*
X132335784Y-122073922D01*
X132335785Y-122073920D01*
X132338078Y-122069280D01*
X132405408Y-121847671D01*
X132435640Y-121618041D01*
X132437327Y-121549000D01*
X132425592Y-121406267D01*
X132418773Y-121323318D01*
X132418772Y-121323312D01*
X132418349Y-121318167D01*
X132380516Y-121167548D01*
X132363184Y-121098544D01*
X132363183Y-121098540D01*
X132361925Y-121093533D01*
X132269570Y-120881131D01*
X132143764Y-120686665D01*
X132094885Y-120632947D01*
X132010764Y-120540500D01*
X131987887Y-120515358D01*
X131983836Y-120512159D01*
X131983832Y-120512155D01*
X131810177Y-120375011D01*
X131810172Y-120375008D01*
X131806123Y-120371810D01*
X131801607Y-120369317D01*
X131801604Y-120369315D01*
X131607879Y-120262373D01*
X131607875Y-120262371D01*
X131603355Y-120259876D01*
X131598486Y-120258152D01*
X131598482Y-120258150D01*
X131389903Y-120184288D01*
X131389899Y-120184287D01*
X131385028Y-120182562D01*
X131379935Y-120181655D01*
X131379932Y-120181654D01*
X131162095Y-120142851D01*
X131162089Y-120142850D01*
X131157006Y-120141945D01*
X131084096Y-120141054D01*
X130930581Y-120139179D01*
X130930579Y-120139179D01*
X130925411Y-120139116D01*
X130696464Y-120174150D01*
X130476314Y-120246106D01*
X130471726Y-120248494D01*
X130471722Y-120248496D01*
X130302136Y-120336777D01*
X130270872Y-120353052D01*
X130266739Y-120356155D01*
X130266736Y-120356157D01*
X130241625Y-120375011D01*
X130200178Y-120406131D01*
X130195788Y-120409427D01*
X130129304Y-120434333D01*
X130059908Y-120419341D01*
X130009634Y-120369211D01*
X129994443Y-120299858D01*
X130019159Y-120233302D01*
X130025403Y-120225589D01*
X130124704Y-120112358D01*
X130136358Y-120100704D01*
X130324616Y-119935606D01*
X130337692Y-119925573D01*
X130545884Y-119786463D01*
X130560158Y-119778222D01*
X130784729Y-119667476D01*
X130799955Y-119661169D01*
X130804580Y-119659599D01*
X131037065Y-119580681D01*
X131052975Y-119576418D01*
X131180614Y-119551029D01*
X131298563Y-119527568D01*
X131314903Y-119525417D01*
X131526000Y-119511581D01*
X131548283Y-119512096D01*
X131552723Y-119512594D01*
X131552726Y-119512594D01*
X131558851Y-119513281D01*
X131610524Y-119508942D01*
X131621067Y-119508500D01*
X136761181Y-119508500D01*
X136775225Y-119509285D01*
X136810851Y-119513281D01*
X136831095Y-119511581D01*
X136836871Y-119511096D01*
X136857301Y-119511042D01*
X137032794Y-119524854D01*
X137052321Y-119527947D01*
X137245361Y-119574292D01*
X137264155Y-119580399D01*
X137364651Y-119622025D01*
X137447570Y-119656371D01*
X137465187Y-119665348D01*
X137634448Y-119769072D01*
X137650443Y-119780693D01*
X137801394Y-119909617D01*
X137815375Y-119923598D01*
X137836311Y-119948111D01*
X137865342Y-120012900D01*
X137866500Y-120029941D01*
X137866500Y-121798134D01*
X137873255Y-121860316D01*
X137924385Y-121996705D01*
X138011739Y-122113261D01*
X138128295Y-122200615D01*
X138264684Y-122251745D01*
X138326866Y-122258500D01*
X140123134Y-122258500D01*
X140185316Y-122251745D01*
X140321705Y-122200615D01*
X140438261Y-122113261D01*
X140525615Y-121996705D01*
X140569798Y-121878848D01*
X140612440Y-121822084D01*
X140679001Y-121797384D01*
X140748350Y-121812592D01*
X140783017Y-121840580D01*
X140808218Y-121869673D01*
X140815580Y-121876883D01*
X140979434Y-122012916D01*
X140987881Y-122018831D01*
X141171756Y-122126279D01*
X141181042Y-122130729D01*
X141380001Y-122206703D01*
X141389899Y-122209579D01*
X141493250Y-122230606D01*
X141507299Y-122229410D01*
X141511000Y-122219065D01*
X141511000Y-122218517D01*
X142019000Y-122218517D01*
X142023064Y-122232359D01*
X142036478Y-122234393D01*
X142043184Y-122233534D01*
X142053262Y-122231392D01*
X142257255Y-122170191D01*
X142266842Y-122166433D01*
X142458095Y-122072739D01*
X142466945Y-122067464D01*
X142640328Y-121943792D01*
X142648200Y-121937139D01*
X142799052Y-121786812D01*
X142805730Y-121778965D01*
X142930003Y-121606020D01*
X142935313Y-121597183D01*
X143029670Y-121406267D01*
X143033469Y-121396672D01*
X143095377Y-121192910D01*
X143097555Y-121182837D01*
X143098986Y-121171962D01*
X143096775Y-121157778D01*
X143083617Y-121154000D01*
X142037115Y-121154000D01*
X142021876Y-121158475D01*
X142020671Y-121159865D01*
X142019000Y-121167548D01*
X142019000Y-122218517D01*
X141511000Y-122218517D01*
X141511000Y-120627885D01*
X142019000Y-120627885D01*
X142023475Y-120643124D01*
X142024865Y-120644329D01*
X142032548Y-120646000D01*
X143083344Y-120646000D01*
X143096875Y-120642027D01*
X143098180Y-120632947D01*
X143056214Y-120465875D01*
X143052894Y-120456124D01*
X142967972Y-120260814D01*
X142963105Y-120251739D01*
X142847426Y-120072926D01*
X142841136Y-120064757D01*
X142697806Y-119907240D01*
X142690273Y-119900215D01*
X142523139Y-119768222D01*
X142514552Y-119762517D01*
X142328117Y-119659599D01*
X142318705Y-119655369D01*
X142117959Y-119584280D01*
X142107988Y-119581646D01*
X142036837Y-119568972D01*
X142023540Y-119570432D01*
X142019000Y-119584989D01*
X142019000Y-120627885D01*
X141511000Y-120627885D01*
X141511000Y-119583102D01*
X141507082Y-119569758D01*
X141492806Y-119567771D01*
X141454324Y-119573660D01*
X141444288Y-119576051D01*
X141241868Y-119642212D01*
X141232359Y-119646209D01*
X141043463Y-119744542D01*
X141034738Y-119750036D01*
X140864433Y-119877905D01*
X140856726Y-119884748D01*
X140779478Y-119965584D01*
X140717954Y-120001014D01*
X140647042Y-119997557D01*
X140589255Y-119956311D01*
X140570402Y-119922763D01*
X140528767Y-119811703D01*
X140525615Y-119803295D01*
X140438261Y-119686739D01*
X140321705Y-119599385D01*
X140185316Y-119548255D01*
X140123134Y-119541500D01*
X140035472Y-119541500D01*
X139967351Y-119521498D01*
X139923205Y-119472703D01*
X139782396Y-119196350D01*
X139780899Y-119193411D01*
X139586319Y-118893784D01*
X139584244Y-118891221D01*
X139584237Y-118891212D01*
X139363571Y-118618713D01*
X139361486Y-118616138D01*
X139108862Y-118363514D01*
X139037769Y-118305944D01*
X138833788Y-118140763D01*
X138833779Y-118140756D01*
X138831216Y-118138681D01*
X138531589Y-117944101D01*
X138213265Y-117781907D01*
X137879730Y-117653875D01*
X137534640Y-117561408D01*
X137181774Y-117505520D01*
X136892564Y-117490363D01*
X136875363Y-117489461D01*
X136866169Y-117488641D01*
X136856781Y-117487455D01*
X136856776Y-117487455D01*
X136853295Y-117487015D01*
X136846962Y-117486927D01*
X136828523Y-117486669D01*
X136828520Y-117486669D01*
X136825000Y-117486620D01*
X136785358Y-117490507D01*
X136781360Y-117490899D01*
X136769064Y-117491500D01*
X131644722Y-117491500D01*
X131628944Y-117490508D01*
X131601295Y-117487015D01*
X131573000Y-117486620D01*
X131569503Y-117486963D01*
X131569500Y-117486963D01*
X131565702Y-117487335D01*
X131559229Y-117487803D01*
X131445163Y-117493076D01*
X131201112Y-117504359D01*
X131201105Y-117504360D01*
X131198221Y-117504493D01*
X131192092Y-117505348D01*
X130829528Y-117555923D01*
X130829525Y-117555924D01*
X130826640Y-117556326D01*
X130626257Y-117603456D01*
X130464265Y-117641556D01*
X130464260Y-117641558D01*
X130461426Y-117642224D01*
X130105696Y-117761453D01*
X129762485Y-117912995D01*
X129759932Y-117914417D01*
X129759928Y-117914419D01*
X129706639Y-117944101D01*
X129434720Y-118095559D01*
X129125198Y-118307586D01*
X129122972Y-118309434D01*
X129122962Y-118309442D01*
X128854589Y-118532297D01*
X128836560Y-118547268D01*
X128571268Y-118812560D01*
X128569414Y-118814793D01*
X128569411Y-118814796D01*
X128333442Y-119098962D01*
X128333434Y-119098972D01*
X128331586Y-119101198D01*
X128119559Y-119410720D01*
X128118137Y-119413273D01*
X127968815Y-119681358D01*
X127936995Y-119738485D01*
X127785453Y-120081696D01*
X127751646Y-120182562D01*
X127681283Y-120392497D01*
X127637470Y-120453214D01*
X127585655Y-120492117D01*
X127584976Y-120491213D01*
X127525730Y-120519131D01*
X127455341Y-120509869D01*
X127401132Y-120464022D01*
X127388325Y-120438866D01*
X127377768Y-120410705D01*
X127377767Y-120410703D01*
X127374615Y-120402295D01*
X127287261Y-120285739D01*
X127170705Y-120198385D01*
X127160092Y-120194406D01*
X127114270Y-120177228D01*
X127057505Y-120134586D01*
X127032806Y-120068024D01*
X127032500Y-120059246D01*
X127032500Y-114377884D01*
X131455500Y-114377884D01*
X131455665Y-114380152D01*
X131455665Y-114380164D01*
X131463725Y-114491238D01*
X131470125Y-114579451D01*
X131471109Y-114583906D01*
X131471109Y-114583909D01*
X131510482Y-114762240D01*
X131528585Y-114844237D01*
X131624655Y-115097810D01*
X131756324Y-115334859D01*
X131920833Y-115550417D01*
X132114736Y-115739970D01*
X132118428Y-115742657D01*
X132118430Y-115742659D01*
X132330279Y-115896859D01*
X132333972Y-115899547D01*
X132573947Y-116025804D01*
X132578248Y-116027323D01*
X132578253Y-116027325D01*
X132711087Y-116074233D01*
X132829634Y-116116096D01*
X132927653Y-116135415D01*
X133091206Y-116167652D01*
X133091212Y-116167653D01*
X133095678Y-116168533D01*
X133100232Y-116168760D01*
X133100234Y-116168760D01*
X133361936Y-116181789D01*
X133361942Y-116181789D01*
X133366505Y-116182016D01*
X133636441Y-116156262D01*
X133640870Y-116155178D01*
X133640877Y-116155177D01*
X133800584Y-116116096D01*
X133899832Y-116091810D01*
X134059039Y-116027325D01*
X134146931Y-115991725D01*
X134146932Y-115991725D01*
X134151160Y-115990012D01*
X134385161Y-115852999D01*
X134596932Y-115683641D01*
X134718399Y-115553612D01*
X134778921Y-115488824D01*
X134778923Y-115488821D01*
X134782037Y-115485488D01*
X134936598Y-115262688D01*
X135018624Y-115097810D01*
X135055346Y-115023997D01*
X135055347Y-115023994D01*
X135057379Y-115019910D01*
X135141847Y-114762240D01*
X135188235Y-114495075D01*
X135192500Y-114409400D01*
X135192500Y-113720116D01*
X135190328Y-113690170D01*
X135178205Y-113523100D01*
X135177875Y-113518549D01*
X135176891Y-113514091D01*
X135120400Y-113258223D01*
X135120399Y-113258219D01*
X135119415Y-113253763D01*
X135023345Y-113000190D01*
X134891676Y-112763141D01*
X134727167Y-112547583D01*
X134533264Y-112358030D01*
X134446739Y-112295050D01*
X134317721Y-112201141D01*
X134314028Y-112198453D01*
X134074053Y-112072196D01*
X134069752Y-112070677D01*
X134069747Y-112070675D01*
X133891998Y-112007906D01*
X133818366Y-111981904D01*
X133720347Y-111962585D01*
X133556794Y-111930348D01*
X133556788Y-111930347D01*
X133552322Y-111929467D01*
X133547768Y-111929240D01*
X133547766Y-111929240D01*
X133286064Y-111916211D01*
X133286058Y-111916211D01*
X133281495Y-111915984D01*
X133011559Y-111941738D01*
X133007130Y-111942822D01*
X133007123Y-111942823D01*
X132877069Y-111974648D01*
X132748168Y-112006190D01*
X132743933Y-112007905D01*
X132743931Y-112007906D01*
X132501069Y-112106275D01*
X132496840Y-112107988D01*
X132262839Y-112245001D01*
X132051068Y-112414359D01*
X132047947Y-112417700D01*
X131923224Y-112551215D01*
X131865963Y-112612512D01*
X131711402Y-112835312D01*
X131709374Y-112839388D01*
X131709373Y-112839390D01*
X131627252Y-113004460D01*
X131590621Y-113078090D01*
X131506153Y-113335760D01*
X131459765Y-113602925D01*
X131455500Y-113688600D01*
X131455500Y-114377884D01*
X127032500Y-114377884D01*
X127032500Y-107553722D01*
X127033492Y-107537944D01*
X127036985Y-107510295D01*
X127037380Y-107482000D01*
X127037037Y-107478505D01*
X127036996Y-107477520D01*
X127036712Y-107473655D01*
X127018797Y-107108986D01*
X127018797Y-107108982D01*
X127018645Y-107105896D01*
X126963393Y-106733415D01*
X126871897Y-106368142D01*
X126745038Y-106013597D01*
X126743718Y-106010806D01*
X126585355Y-105675975D01*
X126585353Y-105675972D01*
X126584039Y-105673193D01*
X126514061Y-105556442D01*
X126392039Y-105352859D01*
X126392033Y-105352850D01*
X126390450Y-105350209D01*
X126375035Y-105329424D01*
X126167982Y-105050246D01*
X126167979Y-105050242D01*
X126166135Y-105047756D01*
X125913255Y-104768745D01*
X125634244Y-104515865D01*
X125603698Y-104493210D01*
X125334276Y-104293393D01*
X125331791Y-104291550D01*
X125258251Y-104247472D01*
X125210104Y-104195295D01*
X125197810Y-104125371D01*
X125225271Y-104059901D01*
X125233932Y-104050303D01*
X127226004Y-102058231D01*
X129361930Y-99922304D01*
X129424242Y-99888278D01*
X129495057Y-99893343D01*
X129551893Y-99935890D01*
X129572731Y-99978787D01*
X129584290Y-100021925D01*
X129584293Y-100021933D01*
X129585716Y-100027243D01*
X129588039Y-100032224D01*
X129588039Y-100032225D01*
X129680151Y-100229762D01*
X129680154Y-100229767D01*
X129682477Y-100234749D01*
X129706640Y-100269257D01*
X129810640Y-100417784D01*
X129813802Y-100422300D01*
X129975700Y-100584198D01*
X129980208Y-100587355D01*
X129980211Y-100587357D01*
X130012979Y-100610301D01*
X130163251Y-100715523D01*
X130168233Y-100717846D01*
X130168238Y-100717849D01*
X130202457Y-100733805D01*
X130255742Y-100780722D01*
X130275203Y-100848999D01*
X130254661Y-100916959D01*
X130202457Y-100962195D01*
X130168238Y-100978151D01*
X130168233Y-100978154D01*
X130163251Y-100980477D01*
X130136051Y-100999523D01*
X129980211Y-101108643D01*
X129980208Y-101108645D01*
X129975700Y-101111802D01*
X129813802Y-101273700D01*
X129810645Y-101278208D01*
X129810643Y-101278211D01*
X129781713Y-101319527D01*
X129682477Y-101461251D01*
X129680154Y-101466233D01*
X129680151Y-101466238D01*
X129588039Y-101663775D01*
X129585716Y-101668757D01*
X129526457Y-101889913D01*
X129506502Y-102118000D01*
X129526457Y-102346087D01*
X129585716Y-102567243D01*
X129588039Y-102572224D01*
X129588039Y-102572225D01*
X129680151Y-102769762D01*
X129680154Y-102769767D01*
X129682477Y-102774749D01*
X129813802Y-102962300D01*
X129975700Y-103124198D01*
X129980208Y-103127355D01*
X129980211Y-103127357D01*
X130005592Y-103145129D01*
X130163251Y-103255523D01*
X130168233Y-103257846D01*
X130168238Y-103257849D01*
X130202457Y-103273805D01*
X130255742Y-103320722D01*
X130275203Y-103388999D01*
X130254661Y-103456959D01*
X130202457Y-103502195D01*
X130168238Y-103518151D01*
X130168233Y-103518154D01*
X130163251Y-103520477D01*
X130058389Y-103593902D01*
X129980211Y-103648643D01*
X129980208Y-103648645D01*
X129975700Y-103651802D01*
X129813802Y-103813700D01*
X129810645Y-103818208D01*
X129810643Y-103818211D01*
X129758329Y-103892923D01*
X129682477Y-104001251D01*
X129680154Y-104006233D01*
X129680151Y-104006238D01*
X129658107Y-104053513D01*
X129585716Y-104208757D01*
X129584294Y-104214065D01*
X129584293Y-104214067D01*
X129527881Y-104424598D01*
X129526457Y-104429913D01*
X129506502Y-104658000D01*
X129526457Y-104886087D01*
X129527881Y-104891400D01*
X129527881Y-104891402D01*
X129570850Y-105051761D01*
X129585716Y-105107243D01*
X129588039Y-105112224D01*
X129588039Y-105112225D01*
X129680151Y-105309762D01*
X129680154Y-105309767D01*
X129682477Y-105314749D01*
X129813802Y-105502300D01*
X129975700Y-105664198D01*
X129980208Y-105667355D01*
X129980211Y-105667357D01*
X130018350Y-105694062D01*
X130163251Y-105795523D01*
X130168233Y-105797846D01*
X130168238Y-105797849D01*
X130332623Y-105874502D01*
X130370757Y-105892284D01*
X130376065Y-105893706D01*
X130376067Y-105893707D01*
X130586598Y-105950119D01*
X130586600Y-105950119D01*
X130591913Y-105951543D01*
X130820000Y-105971498D01*
X131048087Y-105951543D01*
X131053400Y-105950119D01*
X131053402Y-105950119D01*
X131061079Y-105948062D01*
X133136493Y-105948062D01*
X133145789Y-105960077D01*
X133196994Y-105995931D01*
X133206489Y-106001414D01*
X133403947Y-106093490D01*
X133414239Y-106097236D01*
X133624688Y-106153625D01*
X133635481Y-106155528D01*
X133852525Y-106174517D01*
X133863475Y-106174517D01*
X134080519Y-106155528D01*
X134091312Y-106153625D01*
X134301761Y-106097236D01*
X134312053Y-106093490D01*
X134509511Y-106001414D01*
X134519006Y-105995931D01*
X134571048Y-105959491D01*
X134579424Y-105949012D01*
X134572356Y-105935566D01*
X133870812Y-105234022D01*
X133856868Y-105226408D01*
X133855035Y-105226539D01*
X133848420Y-105230790D01*
X133142923Y-105936287D01*
X133136493Y-105948062D01*
X131061079Y-105948062D01*
X131263933Y-105893707D01*
X131263935Y-105893706D01*
X131269243Y-105892284D01*
X131307377Y-105874502D01*
X131471762Y-105797849D01*
X131471767Y-105797846D01*
X131476749Y-105795523D01*
X131621650Y-105694062D01*
X131659789Y-105667357D01*
X131659792Y-105667355D01*
X131664300Y-105664198D01*
X131826198Y-105502300D01*
X131957523Y-105314749D01*
X131959846Y-105309767D01*
X131959849Y-105309762D01*
X132051961Y-105112225D01*
X132051961Y-105112224D01*
X132054284Y-105107243D01*
X132069151Y-105051761D01*
X132112119Y-104891402D01*
X132112119Y-104891400D01*
X132113543Y-104886087D01*
X132115171Y-104867475D01*
X132545483Y-104867475D01*
X132564472Y-105084519D01*
X132566375Y-105095312D01*
X132622764Y-105305761D01*
X132626510Y-105316053D01*
X132718586Y-105513511D01*
X132724069Y-105523006D01*
X132760509Y-105575048D01*
X132770988Y-105583424D01*
X132784434Y-105576356D01*
X133485978Y-104874812D01*
X133492356Y-104863132D01*
X134222408Y-104863132D01*
X134222539Y-104864965D01*
X134226790Y-104871580D01*
X134932287Y-105577077D01*
X134944062Y-105583507D01*
X134956077Y-105574211D01*
X134991931Y-105523006D01*
X134997414Y-105513511D01*
X135089490Y-105316053D01*
X135093236Y-105305761D01*
X135149625Y-105095312D01*
X135151528Y-105084519D01*
X135170517Y-104867475D01*
X135170517Y-104856525D01*
X135151528Y-104639481D01*
X135149625Y-104628688D01*
X135093236Y-104418239D01*
X135089490Y-104407947D01*
X134997414Y-104210489D01*
X134991931Y-104200994D01*
X134955491Y-104148952D01*
X134945012Y-104140576D01*
X134931566Y-104147644D01*
X134230022Y-104849188D01*
X134222408Y-104863132D01*
X133492356Y-104863132D01*
X133493592Y-104860868D01*
X133493461Y-104859035D01*
X133489210Y-104852420D01*
X132783713Y-104146923D01*
X132771938Y-104140493D01*
X132759923Y-104149789D01*
X132724069Y-104200994D01*
X132718586Y-104210489D01*
X132626510Y-104407947D01*
X132622764Y-104418239D01*
X132566375Y-104628688D01*
X132564472Y-104639481D01*
X132545483Y-104856525D01*
X132545483Y-104867475D01*
X132115171Y-104867475D01*
X132133498Y-104658000D01*
X132113543Y-104429913D01*
X132112119Y-104424598D01*
X132055707Y-104214067D01*
X132055706Y-104214065D01*
X132054284Y-104208757D01*
X131981893Y-104053513D01*
X131959849Y-104006238D01*
X131959846Y-104006233D01*
X131957523Y-104001251D01*
X131881671Y-103892923D01*
X131829357Y-103818211D01*
X131829355Y-103818208D01*
X131826198Y-103813700D01*
X131787486Y-103774988D01*
X133136576Y-103774988D01*
X133143644Y-103788434D01*
X133845188Y-104489978D01*
X133859132Y-104497592D01*
X133860965Y-104497461D01*
X133867580Y-104493210D01*
X134573077Y-103787713D01*
X134579507Y-103775938D01*
X134570211Y-103763923D01*
X134519006Y-103728069D01*
X134509511Y-103722586D01*
X134312053Y-103630510D01*
X134301761Y-103626764D01*
X134091312Y-103570375D01*
X134080519Y-103568472D01*
X133863475Y-103549483D01*
X133852525Y-103549483D01*
X133635481Y-103568472D01*
X133624688Y-103570375D01*
X133414239Y-103626764D01*
X133403947Y-103630510D01*
X133206489Y-103722586D01*
X133196994Y-103728069D01*
X133144952Y-103764509D01*
X133136576Y-103774988D01*
X131787486Y-103774988D01*
X131664300Y-103651802D01*
X131659792Y-103648645D01*
X131659789Y-103648643D01*
X131581611Y-103593902D01*
X131476749Y-103520477D01*
X131471767Y-103518154D01*
X131471762Y-103518151D01*
X131437543Y-103502195D01*
X131384258Y-103455278D01*
X131364797Y-103387001D01*
X131385339Y-103319041D01*
X131437543Y-103273805D01*
X131471762Y-103257849D01*
X131471767Y-103257846D01*
X131476749Y-103255523D01*
X131634408Y-103145129D01*
X131659789Y-103127357D01*
X131659792Y-103127355D01*
X131664300Y-103124198D01*
X131826198Y-102962300D01*
X131957523Y-102774749D01*
X131959846Y-102769767D01*
X131959849Y-102769762D01*
X132051961Y-102572225D01*
X132051961Y-102572224D01*
X132054284Y-102567243D01*
X132113543Y-102346087D01*
X132133498Y-102118000D01*
X132113543Y-101889913D01*
X132054284Y-101668757D01*
X132051961Y-101663775D01*
X131959849Y-101466238D01*
X131959846Y-101466233D01*
X131957523Y-101461251D01*
X131858287Y-101319527D01*
X131829357Y-101278211D01*
X131829355Y-101278208D01*
X131826198Y-101273700D01*
X131664300Y-101111802D01*
X131659792Y-101108645D01*
X131659789Y-101108643D01*
X131503949Y-100999523D01*
X131476749Y-100980477D01*
X131471767Y-100978154D01*
X131471762Y-100978151D01*
X131437543Y-100962195D01*
X131384258Y-100915278D01*
X131364797Y-100847001D01*
X131385339Y-100779041D01*
X131437543Y-100733805D01*
X131471762Y-100717849D01*
X131471767Y-100717846D01*
X131476749Y-100715523D01*
X131627021Y-100610301D01*
X131659789Y-100587357D01*
X131659792Y-100587355D01*
X131664300Y-100584198D01*
X131826198Y-100422300D01*
X131829361Y-100417784D01*
X131933360Y-100269257D01*
X131957523Y-100234749D01*
X131959846Y-100229767D01*
X131959849Y-100229762D01*
X132051961Y-100032225D01*
X132051961Y-100032224D01*
X132054284Y-100027243D01*
X132058387Y-100011933D01*
X132098561Y-99862000D01*
X132544502Y-99862000D01*
X132564457Y-100090087D01*
X132565881Y-100095400D01*
X132565881Y-100095402D01*
X132609922Y-100259762D01*
X132623716Y-100311243D01*
X132626039Y-100316224D01*
X132626039Y-100316225D01*
X132718151Y-100513762D01*
X132718154Y-100513767D01*
X132720477Y-100518749D01*
X132851802Y-100706300D01*
X133013700Y-100868198D01*
X133018208Y-100871355D01*
X133018211Y-100871357D01*
X133080937Y-100915278D01*
X133201251Y-100999523D01*
X133206233Y-101001846D01*
X133206238Y-101001849D01*
X133403775Y-101093961D01*
X133408757Y-101096284D01*
X133414065Y-101097706D01*
X133414067Y-101097707D01*
X133624598Y-101154119D01*
X133624600Y-101154119D01*
X133629913Y-101155543D01*
X133858000Y-101175498D01*
X134086087Y-101155543D01*
X134091400Y-101154119D01*
X134091402Y-101154119D01*
X134301933Y-101097707D01*
X134301935Y-101097706D01*
X134307243Y-101096284D01*
X134312225Y-101093961D01*
X134509762Y-101001849D01*
X134509767Y-101001846D01*
X134514749Y-100999523D01*
X134635063Y-100915278D01*
X134697789Y-100871357D01*
X134697792Y-100871355D01*
X134702300Y-100868198D01*
X134864198Y-100706300D01*
X134995523Y-100518749D01*
X134997846Y-100513767D01*
X134997849Y-100513762D01*
X135089961Y-100316225D01*
X135089961Y-100316224D01*
X135092284Y-100311243D01*
X135106079Y-100259762D01*
X135150119Y-100095402D01*
X135150119Y-100095400D01*
X135151543Y-100090087D01*
X135171498Y-99862000D01*
X135151543Y-99633913D01*
X135092284Y-99412757D01*
X135076969Y-99379913D01*
X134997849Y-99210238D01*
X134997846Y-99210233D01*
X134995523Y-99205251D01*
X134864198Y-99017700D01*
X134702300Y-98855802D01*
X134697792Y-98852645D01*
X134697789Y-98852643D01*
X134570765Y-98763700D01*
X134514749Y-98724477D01*
X134509767Y-98722154D01*
X134509762Y-98722151D01*
X134312225Y-98630039D01*
X134312224Y-98630039D01*
X134307243Y-98627716D01*
X134301935Y-98626294D01*
X134301933Y-98626293D01*
X134091402Y-98569881D01*
X134091400Y-98569881D01*
X134086087Y-98568457D01*
X133858000Y-98548502D01*
X133629913Y-98568457D01*
X133624600Y-98569881D01*
X133624598Y-98569881D01*
X133414067Y-98626293D01*
X133414065Y-98626294D01*
X133408757Y-98627716D01*
X133403776Y-98630039D01*
X133403775Y-98630039D01*
X133206238Y-98722151D01*
X133206233Y-98722154D01*
X133201251Y-98724477D01*
X133145235Y-98763700D01*
X133018211Y-98852643D01*
X133018208Y-98852645D01*
X133013700Y-98855802D01*
X132851802Y-99017700D01*
X132720477Y-99205251D01*
X132718154Y-99210233D01*
X132718151Y-99210238D01*
X132639031Y-99379913D01*
X132623716Y-99412757D01*
X132564457Y-99633913D01*
X132544502Y-99862000D01*
X132098561Y-99862000D01*
X132112119Y-99811402D01*
X132112119Y-99811400D01*
X132113543Y-99806087D01*
X132133498Y-99578000D01*
X132113543Y-99349913D01*
X132111502Y-99342295D01*
X132055707Y-99134067D01*
X132055706Y-99134064D01*
X132054284Y-99128757D01*
X132002498Y-99017700D01*
X131959849Y-98926238D01*
X131959846Y-98926233D01*
X131957523Y-98921251D01*
X131850363Y-98768211D01*
X131829357Y-98738211D01*
X131829355Y-98738208D01*
X131826198Y-98733700D01*
X131664300Y-98571802D01*
X131659792Y-98568645D01*
X131659789Y-98568643D01*
X131581045Y-98513506D01*
X131476749Y-98440477D01*
X131471767Y-98438154D01*
X131471762Y-98438151D01*
X131437543Y-98422195D01*
X131384258Y-98375278D01*
X131364797Y-98307001D01*
X131385339Y-98239041D01*
X131437543Y-98193805D01*
X131471762Y-98177849D01*
X131471767Y-98177846D01*
X131476749Y-98175523D01*
X131618805Y-98076054D01*
X131659789Y-98047357D01*
X131659792Y-98047355D01*
X131664300Y-98044198D01*
X131826198Y-97882300D01*
X131957523Y-97694749D01*
X131959846Y-97689767D01*
X131959849Y-97689762D01*
X132051961Y-97492225D01*
X132051961Y-97492224D01*
X132054284Y-97487243D01*
X132102970Y-97305548D01*
X132112119Y-97271402D01*
X132112119Y-97271400D01*
X132113543Y-97266087D01*
X132133498Y-97038000D01*
X132113543Y-96809913D01*
X132105028Y-96778135D01*
X132055707Y-96594067D01*
X132055706Y-96594065D01*
X132054284Y-96588757D01*
X131996174Y-96464139D01*
X131959849Y-96386238D01*
X131959846Y-96386233D01*
X131957523Y-96381251D01*
X131851287Y-96229531D01*
X131828500Y-96157260D01*
X131828500Y-92184188D01*
X131848502Y-92116067D01*
X131865405Y-92095093D01*
X131916198Y-92044300D01*
X131936761Y-92014934D01*
X132044366Y-91861257D01*
X132047523Y-91856749D01*
X132049846Y-91851767D01*
X132049849Y-91851762D01*
X132141961Y-91654225D01*
X132141961Y-91654224D01*
X132144284Y-91649243D01*
X132203543Y-91428087D01*
X132223498Y-91200000D01*
X132203543Y-90971913D01*
X132144284Y-90750757D01*
X132121973Y-90702911D01*
X132049849Y-90548238D01*
X132049846Y-90548233D01*
X132047523Y-90543251D01*
X131934906Y-90382418D01*
X131919357Y-90360211D01*
X131919355Y-90360208D01*
X131916198Y-90355700D01*
X131754300Y-90193802D01*
X131749792Y-90190645D01*
X131749789Y-90190643D01*
X131671611Y-90135902D01*
X131566749Y-90062477D01*
X131561767Y-90060154D01*
X131561762Y-90060151D01*
X131364225Y-89968039D01*
X131364224Y-89968039D01*
X131359243Y-89965716D01*
X131353935Y-89964294D01*
X131353933Y-89964293D01*
X131143402Y-89907881D01*
X131143400Y-89907881D01*
X131138087Y-89906457D01*
X130910000Y-89886502D01*
X130681913Y-89906457D01*
X130676600Y-89907881D01*
X130676598Y-89907881D01*
X130466067Y-89964293D01*
X130466065Y-89964294D01*
X130460757Y-89965716D01*
X130455776Y-89968039D01*
X130455775Y-89968039D01*
X130258238Y-90060151D01*
X130258233Y-90060154D01*
X130253251Y-90062477D01*
X130148389Y-90135902D01*
X130070211Y-90190643D01*
X130070208Y-90190645D01*
X130065700Y-90193802D01*
X129903802Y-90355700D01*
X129900645Y-90360208D01*
X129900643Y-90360211D01*
X129885094Y-90382418D01*
X129772477Y-90543251D01*
X129770154Y-90548233D01*
X129770151Y-90548238D01*
X129698027Y-90702911D01*
X129675716Y-90750757D01*
X129616457Y-90971913D01*
X129596502Y-91200000D01*
X129616457Y-91428087D01*
X129675716Y-91649243D01*
X129678039Y-91654224D01*
X129678039Y-91654225D01*
X129770151Y-91851762D01*
X129770154Y-91851767D01*
X129772477Y-91856749D01*
X129775634Y-91861257D01*
X129788713Y-91879936D01*
X129811500Y-91952207D01*
X129811500Y-96157260D01*
X129788713Y-96229531D01*
X129682477Y-96381251D01*
X129680154Y-96386233D01*
X129680151Y-96386238D01*
X129643826Y-96464139D01*
X129585716Y-96588757D01*
X129526457Y-96809913D01*
X129525978Y-96815392D01*
X129521308Y-96868769D01*
X129495445Y-96934887D01*
X129484882Y-96946883D01*
X127013699Y-99418067D01*
X124658070Y-101773696D01*
X124595758Y-101807722D01*
X124524943Y-101802657D01*
X124468107Y-101760110D01*
X124447269Y-101717213D01*
X124435710Y-101674075D01*
X124435706Y-101674064D01*
X124434284Y-101668757D01*
X124431961Y-101663775D01*
X124339849Y-101466238D01*
X124339846Y-101466233D01*
X124337523Y-101461251D01*
X124238287Y-101319527D01*
X124209357Y-101278211D01*
X124209355Y-101278208D01*
X124206198Y-101273700D01*
X124044300Y-101111802D01*
X124039792Y-101108645D01*
X124039789Y-101108643D01*
X123883949Y-100999523D01*
X123856749Y-100980477D01*
X123851767Y-100978154D01*
X123851762Y-100978151D01*
X123817543Y-100962195D01*
X123764258Y-100915278D01*
X123744797Y-100847001D01*
X123765339Y-100779041D01*
X123817543Y-100733805D01*
X123851762Y-100717849D01*
X123851767Y-100717846D01*
X123856749Y-100715523D01*
X124007021Y-100610301D01*
X124039789Y-100587357D01*
X124039792Y-100587355D01*
X124044300Y-100584198D01*
X124206198Y-100422300D01*
X124209361Y-100417784D01*
X124313360Y-100269257D01*
X124337523Y-100234749D01*
X124339846Y-100229767D01*
X124339849Y-100229762D01*
X124431961Y-100032225D01*
X124431961Y-100032224D01*
X124434284Y-100027243D01*
X124438387Y-100011933D01*
X124492119Y-99811402D01*
X124492119Y-99811400D01*
X124493543Y-99806087D01*
X124513498Y-99578000D01*
X124493543Y-99349913D01*
X124491502Y-99342295D01*
X124435707Y-99134067D01*
X124435706Y-99134064D01*
X124434284Y-99128757D01*
X124382498Y-99017700D01*
X124339849Y-98926238D01*
X124339846Y-98926233D01*
X124337523Y-98921251D01*
X124230363Y-98768211D01*
X124209357Y-98738211D01*
X124209355Y-98738208D01*
X124206198Y-98733700D01*
X124044300Y-98571802D01*
X124039789Y-98568643D01*
X124035576Y-98565108D01*
X124036388Y-98564140D01*
X123995910Y-98513506D01*
X123988596Y-98442887D01*
X124020624Y-98379524D01*
X124081823Y-98343536D01*
X124098901Y-98340480D01*
X124102352Y-98340105D01*
X124117604Y-98336479D01*
X124238054Y-98291324D01*
X124253649Y-98282786D01*
X124355724Y-98206285D01*
X124368285Y-98193724D01*
X124444786Y-98091649D01*
X124453324Y-98076054D01*
X124498478Y-97955606D01*
X124502105Y-97940351D01*
X124507631Y-97889486D01*
X124508000Y-97882672D01*
X124508000Y-97310115D01*
X124503525Y-97294876D01*
X124502135Y-97293671D01*
X124494452Y-97292000D01*
X121910116Y-97292000D01*
X121894877Y-97296475D01*
X121893672Y-97297865D01*
X121892001Y-97305548D01*
X121892001Y-97882669D01*
X121892371Y-97889490D01*
X121897895Y-97940352D01*
X121901521Y-97955604D01*
X121946676Y-98076054D01*
X121955214Y-98091649D01*
X122031715Y-98193724D01*
X122044276Y-98206285D01*
X122146351Y-98282786D01*
X122161946Y-98291324D01*
X122282394Y-98336478D01*
X122297643Y-98340104D01*
X122301096Y-98340479D01*
X122303606Y-98341522D01*
X122305331Y-98341932D01*
X122305265Y-98342211D01*
X122366659Y-98367719D01*
X122407088Y-98426080D01*
X122409546Y-98497034D01*
X122373253Y-98558054D01*
X122361760Y-98567344D01*
X122360214Y-98568641D01*
X122355700Y-98571802D01*
X122193802Y-98733700D01*
X122190645Y-98738208D01*
X122190643Y-98738211D01*
X122169637Y-98768211D01*
X122062477Y-98921251D01*
X122060154Y-98926233D01*
X122060151Y-98926238D01*
X122017502Y-99017700D01*
X121965716Y-99128757D01*
X121964294Y-99134064D01*
X121910506Y-99334802D01*
X121873554Y-99395424D01*
X121809693Y-99426446D01*
X121739199Y-99418017D01*
X121684452Y-99372814D01*
X121665024Y-99313846D01*
X121663381Y-99314007D01*
X121662858Y-99308674D01*
X121662429Y-99302971D01*
X121657569Y-99210238D01*
X121644989Y-98970205D01*
X121591134Y-98630177D01*
X121502032Y-98297641D01*
X121416972Y-98076054D01*
X121379838Y-97979316D01*
X121379836Y-97979312D01*
X121378657Y-97976240D01*
X121377162Y-97973305D01*
X121223863Y-97672438D01*
X121223859Y-97672431D01*
X121222364Y-97669497D01*
X121034863Y-97380770D01*
X120818209Y-97113225D01*
X120574775Y-96869791D01*
X120446462Y-96765885D01*
X121892000Y-96765885D01*
X121896475Y-96781124D01*
X121897865Y-96782329D01*
X121905548Y-96784000D01*
X122927885Y-96784000D01*
X122943124Y-96779525D01*
X122944329Y-96778135D01*
X122946000Y-96770452D01*
X122946000Y-96765885D01*
X123454000Y-96765885D01*
X123458475Y-96781124D01*
X123459865Y-96782329D01*
X123467548Y-96784000D01*
X124489884Y-96784000D01*
X124505123Y-96779525D01*
X124506328Y-96778135D01*
X124507999Y-96770452D01*
X124507999Y-96193331D01*
X124507629Y-96186510D01*
X124502105Y-96135648D01*
X124498479Y-96120396D01*
X124453324Y-95999946D01*
X124444786Y-95984351D01*
X124368285Y-95882276D01*
X124355724Y-95869715D01*
X124253649Y-95793214D01*
X124238054Y-95784676D01*
X124117606Y-95739522D01*
X124102351Y-95735895D01*
X124051486Y-95730369D01*
X124044672Y-95730000D01*
X123472115Y-95730000D01*
X123456876Y-95734475D01*
X123455671Y-95735865D01*
X123454000Y-95743548D01*
X123454000Y-96765885D01*
X122946000Y-96765885D01*
X122946000Y-95748116D01*
X122941525Y-95732877D01*
X122940135Y-95731672D01*
X122932452Y-95730001D01*
X122355331Y-95730001D01*
X122348510Y-95730371D01*
X122297648Y-95735895D01*
X122282396Y-95739521D01*
X122161946Y-95784676D01*
X122146351Y-95793214D01*
X122044276Y-95869715D01*
X122031715Y-95882276D01*
X121955214Y-95984351D01*
X121946676Y-95999946D01*
X121901522Y-96120394D01*
X121897895Y-96135649D01*
X121892369Y-96186514D01*
X121892000Y-96193328D01*
X121892000Y-96765885D01*
X120446462Y-96765885D01*
X120307230Y-96653137D01*
X120018504Y-96465636D01*
X119844041Y-96376743D01*
X119714695Y-96310838D01*
X119714688Y-96310835D01*
X119711760Y-96309343D01*
X119708688Y-96308164D01*
X119708684Y-96308162D01*
X119503844Y-96229531D01*
X119390359Y-96185968D01*
X119390529Y-96185525D01*
X119342732Y-96156234D01*
X119218300Y-96031802D01*
X119213792Y-96028645D01*
X119213789Y-96028643D01*
X119135611Y-95973902D01*
X119030749Y-95900477D01*
X119025767Y-95898154D01*
X119025762Y-95898151D01*
X118828225Y-95806039D01*
X118828224Y-95806039D01*
X118823243Y-95803716D01*
X118817935Y-95802294D01*
X118817933Y-95802293D01*
X118607402Y-95745881D01*
X118607400Y-95745881D01*
X118602087Y-95744457D01*
X118374000Y-95724502D01*
X118145913Y-95744457D01*
X118140600Y-95745881D01*
X118140598Y-95745881D01*
X117930067Y-95802293D01*
X117930065Y-95802294D01*
X117924757Y-95803716D01*
X117919776Y-95806039D01*
X117919775Y-95806039D01*
X117722238Y-95898151D01*
X117722233Y-95898154D01*
X117717251Y-95900477D01*
X117612389Y-95973902D01*
X117534211Y-96028643D01*
X117534208Y-96028645D01*
X117529700Y-96031802D01*
X117367802Y-96193700D01*
X117236477Y-96381251D01*
X117234154Y-96386233D01*
X117234151Y-96386238D01*
X117197826Y-96464139D01*
X117139716Y-96588757D01*
X117138294Y-96594065D01*
X117138293Y-96594067D01*
X117088972Y-96778135D01*
X117080457Y-96809913D01*
X117060502Y-97038000D01*
X117080457Y-97266087D01*
X117081881Y-97271400D01*
X117081881Y-97271402D01*
X117091031Y-97305548D01*
X117139716Y-97487243D01*
X117142039Y-97492224D01*
X117142039Y-97492225D01*
X117234151Y-97689762D01*
X117234154Y-97689767D01*
X117236477Y-97694749D01*
X117367802Y-97882300D01*
X117529700Y-98044198D01*
X117534208Y-98047355D01*
X117534211Y-98047357D01*
X117575195Y-98076054D01*
X117717251Y-98175523D01*
X117722233Y-98177846D01*
X117722238Y-98177849D01*
X117756457Y-98193805D01*
X117809742Y-98240722D01*
X117829203Y-98308999D01*
X117808661Y-98376959D01*
X117756457Y-98422195D01*
X117722238Y-98438151D01*
X117722233Y-98438154D01*
X117717251Y-98440477D01*
X117612955Y-98513506D01*
X117534211Y-98568643D01*
X117534208Y-98568645D01*
X117529700Y-98571802D01*
X117367802Y-98733700D01*
X117364645Y-98738208D01*
X117364643Y-98738211D01*
X117343637Y-98768211D01*
X117236477Y-98921251D01*
X117234154Y-98926233D01*
X117234151Y-98926238D01*
X117191502Y-99017700D01*
X117139716Y-99128757D01*
X117138294Y-99134064D01*
X117138293Y-99134067D01*
X117082498Y-99342295D01*
X117080457Y-99349913D01*
X117060502Y-99578000D01*
X117080457Y-99806087D01*
X117081881Y-99811400D01*
X117081881Y-99811402D01*
X117135614Y-100011933D01*
X117139716Y-100027243D01*
X117142039Y-100032224D01*
X117142039Y-100032225D01*
X117234151Y-100229762D01*
X117234154Y-100229767D01*
X117236477Y-100234749D01*
X117260640Y-100269257D01*
X117364640Y-100417784D01*
X117367802Y-100422300D01*
X117529700Y-100584198D01*
X117534208Y-100587355D01*
X117534211Y-100587357D01*
X117566979Y-100610301D01*
X117717251Y-100715523D01*
X117722233Y-100717846D01*
X117722238Y-100717849D01*
X117756457Y-100733805D01*
X117809742Y-100780722D01*
X117829203Y-100848999D01*
X117808661Y-100916959D01*
X117756457Y-100962195D01*
X117722238Y-100978151D01*
X117722233Y-100978154D01*
X117717251Y-100980477D01*
X117690051Y-100999523D01*
X117534211Y-101108643D01*
X117534208Y-101108645D01*
X117529700Y-101111802D01*
X117367802Y-101273700D01*
X117364645Y-101278208D01*
X117364643Y-101278211D01*
X117335713Y-101319527D01*
X117236477Y-101461251D01*
X117234154Y-101466233D01*
X117234151Y-101466238D01*
X117142039Y-101663775D01*
X117139716Y-101668757D01*
X117080457Y-101889913D01*
X117060502Y-102118000D01*
X117080457Y-102346087D01*
X117139716Y-102567243D01*
X117142039Y-102572224D01*
X117142039Y-102572225D01*
X117234151Y-102769762D01*
X117234154Y-102769767D01*
X117236477Y-102774749D01*
X117367802Y-102962300D01*
X117529700Y-103124198D01*
X117534208Y-103127355D01*
X117534211Y-103127357D01*
X117559592Y-103145129D01*
X117717251Y-103255523D01*
X117722233Y-103257846D01*
X117722238Y-103257849D01*
X117756457Y-103273805D01*
X117809742Y-103320722D01*
X117829203Y-103388999D01*
X117808661Y-103456959D01*
X117756457Y-103502195D01*
X117722238Y-103518151D01*
X117722233Y-103518154D01*
X117717251Y-103520477D01*
X117612389Y-103593902D01*
X117534211Y-103648643D01*
X117534208Y-103648645D01*
X117529700Y-103651802D01*
X117367802Y-103813700D01*
X117364645Y-103818208D01*
X117364643Y-103818211D01*
X117312329Y-103892923D01*
X117236477Y-104001251D01*
X117234154Y-104006233D01*
X117234151Y-104006238D01*
X117212107Y-104053513D01*
X117139716Y-104208757D01*
X117138294Y-104214065D01*
X117138293Y-104214067D01*
X117081881Y-104424598D01*
X117080457Y-104429913D01*
X117060502Y-104658000D01*
X117080457Y-104886087D01*
X117081881Y-104891400D01*
X117081881Y-104891402D01*
X117124850Y-105051761D01*
X117139716Y-105107243D01*
X117142039Y-105112224D01*
X117142039Y-105112225D01*
X117234151Y-105309762D01*
X117234154Y-105309767D01*
X117236477Y-105314749D01*
X117367802Y-105502300D01*
X117529700Y-105664198D01*
X117534208Y-105667355D01*
X117534211Y-105667357D01*
X117572350Y-105694062D01*
X117717251Y-105795523D01*
X117722233Y-105797846D01*
X117722238Y-105797849D01*
X117886623Y-105874502D01*
X117924757Y-105892284D01*
X117930065Y-105893706D01*
X117930067Y-105893707D01*
X118140598Y-105950119D01*
X118140600Y-105950119D01*
X118145913Y-105951543D01*
X118374000Y-105971498D01*
X118602087Y-105951543D01*
X118607400Y-105950119D01*
X118607402Y-105950119D01*
X118817933Y-105893707D01*
X118817935Y-105893706D01*
X118823243Y-105892284D01*
X118861377Y-105874502D01*
X119025762Y-105797849D01*
X119025767Y-105797846D01*
X119030749Y-105795523D01*
X119175650Y-105694062D01*
X119213789Y-105667357D01*
X119213792Y-105667355D01*
X119218300Y-105664198D01*
X119380198Y-105502300D01*
X119511523Y-105314749D01*
X119513846Y-105309767D01*
X119513849Y-105309762D01*
X119605961Y-105112225D01*
X119605961Y-105112224D01*
X119608284Y-105107243D01*
X119623151Y-105051761D01*
X119666119Y-104891402D01*
X119666119Y-104891400D01*
X119667543Y-104886087D01*
X119687498Y-104658000D01*
X119667543Y-104429913D01*
X119666119Y-104424598D01*
X119609707Y-104214067D01*
X119609706Y-104214065D01*
X119608284Y-104208757D01*
X119535893Y-104053513D01*
X119513849Y-104006238D01*
X119513846Y-104006233D01*
X119511523Y-104001251D01*
X119435671Y-103892923D01*
X119383357Y-103818211D01*
X119383355Y-103818208D01*
X119380198Y-103813700D01*
X119218300Y-103651802D01*
X119213792Y-103648645D01*
X119213789Y-103648643D01*
X119135611Y-103593902D01*
X119030749Y-103520477D01*
X119025767Y-103518154D01*
X119025762Y-103518151D01*
X118991543Y-103502195D01*
X118938258Y-103455278D01*
X118918797Y-103387001D01*
X118939339Y-103319041D01*
X118991543Y-103273805D01*
X119025762Y-103257849D01*
X119025767Y-103257846D01*
X119030749Y-103255523D01*
X119188408Y-103145129D01*
X119213789Y-103127357D01*
X119213792Y-103127355D01*
X119218300Y-103124198D01*
X119380198Y-102962300D01*
X119490934Y-102804152D01*
X119546392Y-102759824D01*
X119617012Y-102752515D01*
X119680372Y-102784546D01*
X119716372Y-102845807D01*
X119740983Y-102944058D01*
X119790621Y-103142224D01*
X119908409Y-103471421D01*
X119909725Y-103474204D01*
X119909729Y-103474213D01*
X119995566Y-103655699D01*
X120057898Y-103787489D01*
X120059481Y-103790130D01*
X120236058Y-104084731D01*
X120236064Y-104084740D01*
X120237647Y-104087381D01*
X120239490Y-104089866D01*
X120335670Y-104219549D01*
X120445925Y-104368211D01*
X120680726Y-104627274D01*
X120939789Y-104862075D01*
X120942275Y-104863919D01*
X120942279Y-104863922D01*
X121193508Y-105050246D01*
X121220619Y-105070353D01*
X121223260Y-105071936D01*
X121223269Y-105071942D01*
X121480980Y-105226408D01*
X121520511Y-105250102D01*
X121523290Y-105251416D01*
X121523293Y-105251418D01*
X121833787Y-105398271D01*
X121833796Y-105398275D01*
X121836579Y-105399591D01*
X122014158Y-105463129D01*
X122162871Y-105516340D01*
X122162879Y-105516342D01*
X122165776Y-105517379D01*
X122189466Y-105523313D01*
X122247944Y-105556442D01*
X122355700Y-105664198D01*
X122360208Y-105667355D01*
X122360211Y-105667357D01*
X122398350Y-105694062D01*
X122543251Y-105795523D01*
X122548233Y-105797846D01*
X122548238Y-105797849D01*
X122712623Y-105874502D01*
X122750757Y-105892284D01*
X122756065Y-105893706D01*
X122756067Y-105893707D01*
X122966598Y-105950119D01*
X122966600Y-105950119D01*
X122971913Y-105951543D01*
X123200000Y-105971498D01*
X123428087Y-105951543D01*
X123433400Y-105950119D01*
X123433402Y-105950119D01*
X123643933Y-105893707D01*
X123643935Y-105893706D01*
X123649243Y-105892284D01*
X123811953Y-105816412D01*
X123882143Y-105805751D01*
X123920927Y-105817600D01*
X124100346Y-105906080D01*
X124114616Y-105914319D01*
X124298336Y-106037077D01*
X124311412Y-106047110D01*
X124477543Y-106192803D01*
X124489197Y-106204457D01*
X124634890Y-106370588D01*
X124644923Y-106383664D01*
X124767681Y-106567384D01*
X124775922Y-106581658D01*
X124873651Y-106779833D01*
X124879957Y-106795057D01*
X124950985Y-107004299D01*
X124955249Y-107020212D01*
X124998357Y-107236932D01*
X125000508Y-107253272D01*
X125012419Y-107435000D01*
X125011904Y-107457283D01*
X125010719Y-107467851D01*
X125011235Y-107473995D01*
X125015058Y-107519524D01*
X125015500Y-107530067D01*
X125015500Y-112170332D01*
X124995498Y-112238453D01*
X124941842Y-112284946D01*
X124871568Y-112295050D01*
X124815350Y-112272203D01*
X124717722Y-112201141D01*
X124717715Y-112201136D01*
X124714028Y-112198453D01*
X124474053Y-112072196D01*
X124469752Y-112070677D01*
X124469747Y-112070675D01*
X124291998Y-112007906D01*
X124218366Y-111981904D01*
X124120347Y-111962585D01*
X123956794Y-111930348D01*
X123956788Y-111930347D01*
X123952322Y-111929467D01*
X123947768Y-111929240D01*
X123947766Y-111929240D01*
X123686064Y-111916211D01*
X123686058Y-111916211D01*
X123681495Y-111915984D01*
X123411559Y-111941738D01*
X123407130Y-111942822D01*
X123407123Y-111942823D01*
X123277069Y-111974648D01*
X123148168Y-112006190D01*
X123143933Y-112007905D01*
X123143931Y-112007906D01*
X122901069Y-112106275D01*
X122896840Y-112107988D01*
X122662839Y-112245001D01*
X122451068Y-112414359D01*
X122447947Y-112417700D01*
X122323224Y-112551215D01*
X122265963Y-112612512D01*
X122111402Y-112835312D01*
X122109374Y-112839388D01*
X122109373Y-112839390D01*
X122027252Y-113004460D01*
X121990621Y-113078090D01*
X121906153Y-113335760D01*
X121859765Y-113602925D01*
X121855500Y-113688600D01*
X121855500Y-114377884D01*
X121855665Y-114380152D01*
X121855665Y-114380164D01*
X121863725Y-114491238D01*
X121870125Y-114579451D01*
X121871109Y-114583906D01*
X121871109Y-114583909D01*
X121910482Y-114762240D01*
X121928585Y-114844237D01*
X122024655Y-115097810D01*
X122156324Y-115334859D01*
X122320833Y-115550417D01*
X122514736Y-115739970D01*
X122518428Y-115742657D01*
X122518430Y-115742659D01*
X122730279Y-115896859D01*
X122733972Y-115899547D01*
X122973947Y-116025804D01*
X122978248Y-116027323D01*
X122978253Y-116027325D01*
X123111087Y-116074233D01*
X123229634Y-116116096D01*
X123327653Y-116135415D01*
X123491206Y-116167652D01*
X123491212Y-116167653D01*
X123495678Y-116168533D01*
X123500232Y-116168760D01*
X123500234Y-116168760D01*
X123761936Y-116181789D01*
X123761942Y-116181789D01*
X123766505Y-116182016D01*
X124036441Y-116156262D01*
X124040870Y-116155178D01*
X124040877Y-116155177D01*
X124200584Y-116116096D01*
X124299832Y-116091810D01*
X124459039Y-116027325D01*
X124546931Y-115991725D01*
X124546932Y-115991725D01*
X124551160Y-115990012D01*
X124785161Y-115852999D01*
X124810805Y-115832491D01*
X124876498Y-115805567D01*
X124946319Y-115818433D01*
X124998101Y-115867004D01*
X125015500Y-115930894D01*
X125015500Y-118407579D01*
X124995498Y-118475700D01*
X124941842Y-118522193D01*
X124871568Y-118532297D01*
X124844353Y-118525213D01*
X124843955Y-118525060D01*
X124838249Y-118522870D01*
X124516546Y-118436670D01*
X124513296Y-118436155D01*
X124513290Y-118436154D01*
X124190848Y-118385085D01*
X124190844Y-118385085D01*
X124187595Y-118384570D01*
X124184310Y-118384398D01*
X124184302Y-118384397D01*
X123909654Y-118370003D01*
X123900459Y-118369183D01*
X123886778Y-118367455D01*
X123886779Y-118367455D01*
X123883295Y-118367015D01*
X123878282Y-118366945D01*
X123858523Y-118366669D01*
X123858520Y-118366669D01*
X123855000Y-118366620D01*
X123815358Y-118370507D01*
X123811360Y-118370899D01*
X123799064Y-118371500D01*
X111714722Y-118371500D01*
X111698944Y-118370508D01*
X111671295Y-118367015D01*
X111656753Y-118366812D01*
X111646523Y-118366669D01*
X111646520Y-118366669D01*
X111643000Y-118366620D01*
X111634458Y-118367458D01*
X111628778Y-118367884D01*
X111469283Y-118376243D01*
X111313697Y-118384397D01*
X111313688Y-118384398D01*
X111310405Y-118384570D01*
X111228424Y-118397554D01*
X110984710Y-118436154D01*
X110984704Y-118436155D01*
X110981454Y-118436670D01*
X110659751Y-118522870D01*
X110654045Y-118525060D01*
X110653647Y-118525213D01*
X110582883Y-118530947D01*
X110520251Y-118497513D01*
X110485638Y-118435526D01*
X110482500Y-118407579D01*
X110482500Y-114377884D01*
X112405500Y-114377884D01*
X112405665Y-114380152D01*
X112405665Y-114380164D01*
X112413725Y-114491238D01*
X112420125Y-114579451D01*
X112421109Y-114583906D01*
X112421109Y-114583909D01*
X112460482Y-114762240D01*
X112478585Y-114844237D01*
X112574655Y-115097810D01*
X112706324Y-115334859D01*
X112870833Y-115550417D01*
X113064736Y-115739970D01*
X113068428Y-115742657D01*
X113068430Y-115742659D01*
X113280279Y-115896859D01*
X113283972Y-115899547D01*
X113523947Y-116025804D01*
X113528248Y-116027323D01*
X113528253Y-116027325D01*
X113661087Y-116074233D01*
X113779634Y-116116096D01*
X113877653Y-116135415D01*
X114041206Y-116167652D01*
X114041212Y-116167653D01*
X114045678Y-116168533D01*
X114050232Y-116168760D01*
X114050234Y-116168760D01*
X114311936Y-116181789D01*
X114311942Y-116181789D01*
X114316505Y-116182016D01*
X114586441Y-116156262D01*
X114590870Y-116155178D01*
X114590877Y-116155177D01*
X114750584Y-116116096D01*
X114849832Y-116091810D01*
X115009039Y-116027325D01*
X115096931Y-115991725D01*
X115096932Y-115991725D01*
X115101160Y-115990012D01*
X115335161Y-115852999D01*
X115546932Y-115683641D01*
X115668399Y-115553612D01*
X115728921Y-115488824D01*
X115728923Y-115488821D01*
X115732037Y-115485488D01*
X115886598Y-115262688D01*
X115968624Y-115097810D01*
X116005346Y-115023997D01*
X116005347Y-115023994D01*
X116007379Y-115019910D01*
X116091847Y-114762240D01*
X116138235Y-114495075D01*
X116142500Y-114409400D01*
X116142500Y-113720116D01*
X116140328Y-113690170D01*
X116128205Y-113523100D01*
X116127875Y-113518549D01*
X116126891Y-113514091D01*
X116070400Y-113258223D01*
X116070399Y-113258219D01*
X116069415Y-113253763D01*
X115973345Y-113000190D01*
X115841676Y-112763141D01*
X115677167Y-112547583D01*
X115483264Y-112358030D01*
X115396739Y-112295050D01*
X115267721Y-112201141D01*
X115264028Y-112198453D01*
X115024053Y-112072196D01*
X115019752Y-112070677D01*
X115019747Y-112070675D01*
X114841998Y-112007906D01*
X114768366Y-111981904D01*
X114670347Y-111962585D01*
X114506794Y-111930348D01*
X114506788Y-111930347D01*
X114502322Y-111929467D01*
X114497768Y-111929240D01*
X114497766Y-111929240D01*
X114236064Y-111916211D01*
X114236058Y-111916211D01*
X114231495Y-111915984D01*
X113961559Y-111941738D01*
X113957130Y-111942822D01*
X113957123Y-111942823D01*
X113827069Y-111974648D01*
X113698168Y-112006190D01*
X113693933Y-112007905D01*
X113693931Y-112007906D01*
X113451069Y-112106275D01*
X113446840Y-112107988D01*
X113212839Y-112245001D01*
X113001068Y-112414359D01*
X112997947Y-112417700D01*
X112873224Y-112551215D01*
X112815963Y-112612512D01*
X112661402Y-112835312D01*
X112659374Y-112839388D01*
X112659373Y-112839390D01*
X112577252Y-113004460D01*
X112540621Y-113078090D01*
X112456153Y-113335760D01*
X112409765Y-113602925D01*
X112405500Y-113688600D01*
X112405500Y-114377884D01*
X110482500Y-114377884D01*
X110482500Y-106085250D01*
X110502502Y-106017129D01*
X110556158Y-105970636D01*
X110619481Y-105959729D01*
X110754000Y-105971498D01*
X110982087Y-105951543D01*
X110987400Y-105950119D01*
X110987402Y-105950119D01*
X111197933Y-105893707D01*
X111197935Y-105893706D01*
X111203243Y-105892284D01*
X111241377Y-105874502D01*
X111405762Y-105797849D01*
X111405767Y-105797846D01*
X111410749Y-105795523D01*
X111555650Y-105694062D01*
X111593789Y-105667357D01*
X111593792Y-105667355D01*
X111598300Y-105664198D01*
X111760198Y-105502300D01*
X111891523Y-105314749D01*
X111893846Y-105309767D01*
X111893849Y-105309762D01*
X111985961Y-105112225D01*
X111985961Y-105112224D01*
X111988284Y-105107243D01*
X112003151Y-105051761D01*
X112046119Y-104891402D01*
X112046119Y-104891400D01*
X112047543Y-104886087D01*
X112067498Y-104658000D01*
X112047543Y-104429913D01*
X112046119Y-104424598D01*
X111989707Y-104214067D01*
X111989706Y-104214065D01*
X111988284Y-104208757D01*
X111915893Y-104053513D01*
X111893849Y-104006238D01*
X111893846Y-104006233D01*
X111891523Y-104001251D01*
X111815671Y-103892923D01*
X111763357Y-103818211D01*
X111763355Y-103818208D01*
X111760198Y-103813700D01*
X111598300Y-103651802D01*
X111593792Y-103648645D01*
X111593789Y-103648643D01*
X111515611Y-103593902D01*
X111410749Y-103520477D01*
X111405767Y-103518154D01*
X111405762Y-103518151D01*
X111371543Y-103502195D01*
X111318258Y-103455278D01*
X111298797Y-103387001D01*
X111319339Y-103319041D01*
X111371543Y-103273805D01*
X111405762Y-103257849D01*
X111405767Y-103257846D01*
X111410749Y-103255523D01*
X111568408Y-103145129D01*
X111593789Y-103127357D01*
X111593792Y-103127355D01*
X111598300Y-103124198D01*
X111760198Y-102962300D01*
X111891523Y-102774749D01*
X111893846Y-102769767D01*
X111893849Y-102769762D01*
X111985961Y-102572225D01*
X111985961Y-102572224D01*
X111988284Y-102567243D01*
X112047543Y-102346087D01*
X112067498Y-102118000D01*
X112047543Y-101889913D01*
X111988284Y-101668757D01*
X111985961Y-101663775D01*
X111893849Y-101466238D01*
X111893846Y-101466233D01*
X111891523Y-101461251D01*
X111792287Y-101319527D01*
X111763357Y-101278211D01*
X111763355Y-101278208D01*
X111760198Y-101273700D01*
X111598300Y-101111802D01*
X111593792Y-101108645D01*
X111593789Y-101108643D01*
X111437949Y-100999523D01*
X111410749Y-100980477D01*
X111405767Y-100978154D01*
X111405762Y-100978151D01*
X111371543Y-100962195D01*
X111318258Y-100915278D01*
X111298797Y-100847001D01*
X111319339Y-100779041D01*
X111371543Y-100733805D01*
X111405762Y-100717849D01*
X111405767Y-100717846D01*
X111410749Y-100715523D01*
X111561021Y-100610301D01*
X111593789Y-100587357D01*
X111593792Y-100587355D01*
X111598300Y-100584198D01*
X111760198Y-100422300D01*
X111763361Y-100417784D01*
X111867360Y-100269257D01*
X111891523Y-100234749D01*
X111893846Y-100229767D01*
X111893849Y-100229762D01*
X111985961Y-100032225D01*
X111985961Y-100032224D01*
X111988284Y-100027243D01*
X111992387Y-100011933D01*
X112046119Y-99811402D01*
X112046119Y-99811400D01*
X112047543Y-99806087D01*
X112067498Y-99578000D01*
X112047543Y-99349913D01*
X112045502Y-99342295D01*
X111989707Y-99134067D01*
X111989706Y-99134064D01*
X111988284Y-99128757D01*
X111936498Y-99017700D01*
X111893849Y-98926238D01*
X111893846Y-98926233D01*
X111891523Y-98921251D01*
X111784363Y-98768211D01*
X111763357Y-98738211D01*
X111763355Y-98738208D01*
X111760198Y-98733700D01*
X111598300Y-98571802D01*
X111593789Y-98568643D01*
X111589576Y-98565108D01*
X111590388Y-98564140D01*
X111549910Y-98513506D01*
X111542596Y-98442887D01*
X111574624Y-98379524D01*
X111635823Y-98343536D01*
X111652901Y-98340480D01*
X111656352Y-98340105D01*
X111671604Y-98336479D01*
X111792054Y-98291324D01*
X111807649Y-98282786D01*
X111909724Y-98206285D01*
X111922285Y-98193724D01*
X111998786Y-98091649D01*
X112007324Y-98076054D01*
X112052478Y-97955606D01*
X112056105Y-97940351D01*
X112061631Y-97889486D01*
X112062000Y-97882672D01*
X112062000Y-97310115D01*
X112057525Y-97294876D01*
X112056135Y-97293671D01*
X112048452Y-97292000D01*
X109464116Y-97292000D01*
X109448877Y-97296475D01*
X109447672Y-97297865D01*
X109446001Y-97305548D01*
X109446001Y-97882669D01*
X109446371Y-97889490D01*
X109451895Y-97940352D01*
X109455521Y-97955604D01*
X109500676Y-98076054D01*
X109509214Y-98091649D01*
X109585715Y-98193724D01*
X109598276Y-98206285D01*
X109700351Y-98282786D01*
X109715946Y-98291324D01*
X109836394Y-98336478D01*
X109851643Y-98340104D01*
X109855096Y-98340479D01*
X109857606Y-98341522D01*
X109859331Y-98341932D01*
X109859265Y-98342211D01*
X109920659Y-98367719D01*
X109961088Y-98426080D01*
X109963546Y-98497034D01*
X109927253Y-98558054D01*
X109915760Y-98567344D01*
X109914214Y-98568641D01*
X109909700Y-98571802D01*
X109747802Y-98733700D01*
X109744645Y-98738208D01*
X109744643Y-98738211D01*
X109723637Y-98768211D01*
X109616477Y-98921251D01*
X109614154Y-98926233D01*
X109614151Y-98926238D01*
X109571502Y-99017700D01*
X109519716Y-99128757D01*
X109518294Y-99134064D01*
X109518293Y-99134067D01*
X109462498Y-99342295D01*
X109460457Y-99349913D01*
X109440502Y-99578000D01*
X109460457Y-99806087D01*
X109461881Y-99811400D01*
X109461881Y-99811402D01*
X109515614Y-100011933D01*
X109519716Y-100027243D01*
X109522039Y-100032224D01*
X109522039Y-100032225D01*
X109614151Y-100229762D01*
X109614154Y-100229767D01*
X109616477Y-100234749D01*
X109640640Y-100269257D01*
X109744640Y-100417784D01*
X109747802Y-100422300D01*
X109909700Y-100584198D01*
X109914208Y-100587355D01*
X109914211Y-100587357D01*
X109946979Y-100610301D01*
X110097251Y-100715523D01*
X110102233Y-100717846D01*
X110102238Y-100717849D01*
X110136457Y-100733805D01*
X110189742Y-100780722D01*
X110209203Y-100848999D01*
X110188661Y-100916959D01*
X110136457Y-100962195D01*
X110102238Y-100978151D01*
X110102233Y-100978154D01*
X110097251Y-100980477D01*
X110070051Y-100999523D01*
X109914211Y-101108643D01*
X109914208Y-101108645D01*
X109909700Y-101111802D01*
X109747802Y-101273700D01*
X109744645Y-101278208D01*
X109744643Y-101278211D01*
X109715713Y-101319527D01*
X109616477Y-101461251D01*
X109614154Y-101466233D01*
X109614151Y-101466238D01*
X109522039Y-101663775D01*
X109519716Y-101668757D01*
X109460457Y-101889913D01*
X109440502Y-102118000D01*
X109460457Y-102346087D01*
X109519716Y-102567243D01*
X109522039Y-102572224D01*
X109522039Y-102572225D01*
X109614151Y-102769762D01*
X109614154Y-102769767D01*
X109616477Y-102774749D01*
X109747802Y-102962300D01*
X109909700Y-103124198D01*
X109914208Y-103127355D01*
X109914211Y-103127357D01*
X109939592Y-103145129D01*
X110097251Y-103255523D01*
X110102233Y-103257846D01*
X110102238Y-103257849D01*
X110136457Y-103273805D01*
X110189742Y-103320722D01*
X110209203Y-103388999D01*
X110188661Y-103456959D01*
X110136457Y-103502195D01*
X110102238Y-103518151D01*
X110102233Y-103518154D01*
X110097251Y-103520477D01*
X109992389Y-103593902D01*
X109914211Y-103648643D01*
X109914208Y-103648645D01*
X109909700Y-103651802D01*
X109747802Y-103813700D01*
X109744644Y-103818210D01*
X109744639Y-103818216D01*
X109692152Y-103893176D01*
X109654123Y-103928734D01*
X109608211Y-103956489D01*
X109451608Y-104051159D01*
X109448606Y-104053511D01*
X109448603Y-104053513D01*
X109408756Y-104084731D01*
X109233670Y-104221902D01*
X109037902Y-104417670D01*
X108959340Y-104517947D01*
X108872066Y-104629345D01*
X108867159Y-104635608D01*
X108865187Y-104638870D01*
X108865185Y-104638873D01*
X108729616Y-104863132D01*
X108723930Y-104872537D01*
X108722366Y-104876013D01*
X108638636Y-105062053D01*
X108610304Y-105125003D01*
X108609171Y-105128639D01*
X108570912Y-105251418D01*
X108527938Y-105389325D01*
X108478033Y-105661648D01*
X108477804Y-105665442D01*
X108477803Y-105665446D01*
X108464069Y-105892492D01*
X108463514Y-105898925D01*
X108461401Y-105917769D01*
X108433933Y-105983236D01*
X108375431Y-106023460D01*
X108304468Y-106025671D01*
X108282936Y-106017923D01*
X108281234Y-106017129D01*
X108172219Y-105966295D01*
X108150225Y-105956039D01*
X108150224Y-105956039D01*
X108145243Y-105953716D01*
X108139935Y-105952294D01*
X108139933Y-105952293D01*
X107929402Y-105895881D01*
X107929400Y-105895881D01*
X107924087Y-105894457D01*
X107696000Y-105874502D01*
X107467913Y-105894457D01*
X107462600Y-105895881D01*
X107462598Y-105895881D01*
X107252067Y-105952293D01*
X107252065Y-105952294D01*
X107246757Y-105953716D01*
X107241776Y-105956039D01*
X107241775Y-105956039D01*
X107044238Y-106048151D01*
X107044233Y-106048154D01*
X107039251Y-106050477D01*
X106934389Y-106123902D01*
X106856211Y-106178643D01*
X106856208Y-106178645D01*
X106851700Y-106181802D01*
X106689802Y-106343700D01*
X106686645Y-106348208D01*
X106686643Y-106348211D01*
X106666629Y-106376794D01*
X106558477Y-106531251D01*
X106556154Y-106536233D01*
X106556151Y-106536238D01*
X106541628Y-106567384D01*
X106461716Y-106738757D01*
X106460294Y-106744065D01*
X106460293Y-106744067D01*
X106448725Y-106787238D01*
X106402457Y-106959913D01*
X106382502Y-107188000D01*
X106402457Y-107416087D01*
X106403881Y-107421400D01*
X106403881Y-107421402D01*
X106431584Y-107524788D01*
X106461716Y-107637243D01*
X106464039Y-107642224D01*
X106464039Y-107642225D01*
X106556151Y-107839762D01*
X106556154Y-107839767D01*
X106558477Y-107844749D01*
X106689802Y-108032300D01*
X106851700Y-108194198D01*
X106856208Y-108197355D01*
X106856211Y-108197357D01*
X106926500Y-108246574D01*
X107039251Y-108325523D01*
X107044233Y-108327846D01*
X107044238Y-108327849D01*
X107241771Y-108419959D01*
X107246757Y-108422284D01*
X107252065Y-108423706D01*
X107252067Y-108423707D01*
X107462598Y-108480119D01*
X107462600Y-108480119D01*
X107467913Y-108481543D01*
X107696000Y-108501498D01*
X107924087Y-108481543D01*
X107929400Y-108480119D01*
X107929402Y-108480119D01*
X108139933Y-108423707D01*
X108139935Y-108423706D01*
X108145243Y-108422284D01*
X108150225Y-108419961D01*
X108150230Y-108419959D01*
X108286251Y-108356532D01*
X108356442Y-108345871D01*
X108421255Y-108374851D01*
X108460111Y-108434271D01*
X108465500Y-108470727D01*
X108465500Y-120212059D01*
X108445498Y-120280180D01*
X108391842Y-120326673D01*
X108321568Y-120336777D01*
X108256988Y-120307283D01*
X108249266Y-120298995D01*
X108248992Y-120299269D01*
X108242642Y-120292919D01*
X108237261Y-120285739D01*
X108120705Y-120198385D01*
X107984316Y-120147255D01*
X107922134Y-120140500D01*
X106025866Y-120140500D01*
X105963684Y-120147255D01*
X105827295Y-120198385D01*
X105710739Y-120285739D01*
X105623385Y-120402295D01*
X105572255Y-120538684D01*
X105565500Y-120600866D01*
X105565500Y-122497134D01*
X101500000Y-122497134D01*
X101500000Y-114377884D01*
X102805500Y-114377884D01*
X102805665Y-114380152D01*
X102805665Y-114380164D01*
X102813725Y-114491238D01*
X102820125Y-114579451D01*
X102821109Y-114583906D01*
X102821109Y-114583909D01*
X102860482Y-114762240D01*
X102878585Y-114844237D01*
X102974655Y-115097810D01*
X103106324Y-115334859D01*
X103270833Y-115550417D01*
X103464736Y-115739970D01*
X103468428Y-115742657D01*
X103468430Y-115742659D01*
X103680279Y-115896859D01*
X103683972Y-115899547D01*
X103923947Y-116025804D01*
X103928248Y-116027323D01*
X103928253Y-116027325D01*
X104061087Y-116074233D01*
X104179634Y-116116096D01*
X104277653Y-116135415D01*
X104441206Y-116167652D01*
X104441212Y-116167653D01*
X104445678Y-116168533D01*
X104450232Y-116168760D01*
X104450234Y-116168760D01*
X104711936Y-116181789D01*
X104711942Y-116181789D01*
X104716505Y-116182016D01*
X104986441Y-116156262D01*
X104990870Y-116155178D01*
X104990877Y-116155177D01*
X105150584Y-116116096D01*
X105249832Y-116091810D01*
X105409039Y-116027325D01*
X105496931Y-115991725D01*
X105496932Y-115991725D01*
X105501160Y-115990012D01*
X105735161Y-115852999D01*
X105946932Y-115683641D01*
X106068399Y-115553612D01*
X106128921Y-115488824D01*
X106128923Y-115488821D01*
X106132037Y-115485488D01*
X106286598Y-115262688D01*
X106368624Y-115097810D01*
X106405346Y-115023997D01*
X106405347Y-115023994D01*
X106407379Y-115019910D01*
X106491847Y-114762240D01*
X106538235Y-114495075D01*
X106542500Y-114409400D01*
X106542500Y-113720116D01*
X106540328Y-113690170D01*
X106528205Y-113523100D01*
X106527875Y-113518549D01*
X106526891Y-113514091D01*
X106470400Y-113258223D01*
X106470399Y-113258219D01*
X106469415Y-113253763D01*
X106373345Y-113000190D01*
X106241676Y-112763141D01*
X106077167Y-112547583D01*
X105883264Y-112358030D01*
X105796739Y-112295050D01*
X105667721Y-112201141D01*
X105664028Y-112198453D01*
X105424053Y-112072196D01*
X105419752Y-112070677D01*
X105419747Y-112070675D01*
X105241998Y-112007906D01*
X105168366Y-111981904D01*
X105070347Y-111962585D01*
X104906794Y-111930348D01*
X104906788Y-111930347D01*
X104902322Y-111929467D01*
X104897768Y-111929240D01*
X104897766Y-111929240D01*
X104636064Y-111916211D01*
X104636058Y-111916211D01*
X104631495Y-111915984D01*
X104361559Y-111941738D01*
X104357130Y-111942822D01*
X104357123Y-111942823D01*
X104227069Y-111974648D01*
X104098168Y-112006190D01*
X104093933Y-112007905D01*
X104093931Y-112007906D01*
X103851069Y-112106275D01*
X103846840Y-112107988D01*
X103612839Y-112245001D01*
X103401068Y-112414359D01*
X103397947Y-112417700D01*
X103273224Y-112551215D01*
X103215963Y-112612512D01*
X103061402Y-112835312D01*
X103059374Y-112839388D01*
X103059373Y-112839390D01*
X102977252Y-113004460D01*
X102940621Y-113078090D01*
X102856153Y-113335760D01*
X102809765Y-113602925D01*
X102805500Y-113688600D01*
X102805500Y-114377884D01*
X101500000Y-114377884D01*
X101500000Y-105694062D01*
X103672493Y-105694062D01*
X103681789Y-105706077D01*
X103732994Y-105741931D01*
X103742489Y-105747414D01*
X103939947Y-105839490D01*
X103950239Y-105843236D01*
X104160688Y-105899625D01*
X104171481Y-105901528D01*
X104388525Y-105920517D01*
X104399475Y-105920517D01*
X104616519Y-105901528D01*
X104627312Y-105899625D01*
X104837761Y-105843236D01*
X104848053Y-105839490D01*
X105045511Y-105747414D01*
X105055006Y-105741931D01*
X105107048Y-105705491D01*
X105115424Y-105695012D01*
X105108356Y-105681566D01*
X104406812Y-104980022D01*
X104392868Y-104972408D01*
X104391035Y-104972539D01*
X104384420Y-104976790D01*
X103678923Y-105682287D01*
X103672493Y-105694062D01*
X101500000Y-105694062D01*
X101500000Y-104613475D01*
X103081483Y-104613475D01*
X103100472Y-104830519D01*
X103102375Y-104841312D01*
X103158764Y-105051761D01*
X103162510Y-105062053D01*
X103254586Y-105259511D01*
X103260069Y-105269006D01*
X103296509Y-105321048D01*
X103306988Y-105329424D01*
X103320434Y-105322356D01*
X104021978Y-104620812D01*
X104028356Y-104609132D01*
X104758408Y-104609132D01*
X104758539Y-104610965D01*
X104762790Y-104617580D01*
X105468287Y-105323077D01*
X105480062Y-105329507D01*
X105492077Y-105320211D01*
X105527931Y-105269006D01*
X105533414Y-105259511D01*
X105625490Y-105062053D01*
X105629236Y-105051761D01*
X105685625Y-104841312D01*
X105687528Y-104830519D01*
X105706517Y-104613475D01*
X105706517Y-104602525D01*
X105687528Y-104385481D01*
X105685625Y-104374688D01*
X105629236Y-104164239D01*
X105625490Y-104153947D01*
X105533414Y-103956489D01*
X105527931Y-103946994D01*
X105491491Y-103894952D01*
X105481012Y-103886576D01*
X105467566Y-103893644D01*
X104766022Y-104595188D01*
X104758408Y-104609132D01*
X104028356Y-104609132D01*
X104029592Y-104606868D01*
X104029461Y-104605035D01*
X104025210Y-104598420D01*
X103319713Y-103892923D01*
X103307938Y-103886493D01*
X103295923Y-103895789D01*
X103260069Y-103946994D01*
X103254586Y-103956489D01*
X103162510Y-104153947D01*
X103158764Y-104164239D01*
X103102375Y-104374688D01*
X103100472Y-104385481D01*
X103081483Y-104602525D01*
X103081483Y-104613475D01*
X101500000Y-104613475D01*
X101500000Y-103520988D01*
X103672576Y-103520988D01*
X103679644Y-103534434D01*
X104381188Y-104235978D01*
X104395132Y-104243592D01*
X104396965Y-104243461D01*
X104403580Y-104239210D01*
X105109077Y-103533713D01*
X105115507Y-103521938D01*
X105106211Y-103509923D01*
X105055006Y-103474069D01*
X105045511Y-103468586D01*
X104848053Y-103376510D01*
X104837761Y-103372764D01*
X104627312Y-103316375D01*
X104616519Y-103314472D01*
X104399475Y-103295483D01*
X104388525Y-103295483D01*
X104171481Y-103314472D01*
X104160688Y-103316375D01*
X103950239Y-103372764D01*
X103939947Y-103376510D01*
X103742489Y-103468586D01*
X103732994Y-103474069D01*
X103680952Y-103510509D01*
X103672576Y-103520988D01*
X101500000Y-103520988D01*
X101500000Y-99608000D01*
X103080502Y-99608000D01*
X103100457Y-99836087D01*
X103101881Y-99841400D01*
X103101881Y-99841402D01*
X103150255Y-100021933D01*
X103159716Y-100057243D01*
X103162039Y-100062224D01*
X103162039Y-100062225D01*
X103254151Y-100259762D01*
X103254154Y-100259767D01*
X103256477Y-100264749D01*
X103289033Y-100311243D01*
X103366796Y-100422300D01*
X103387802Y-100452300D01*
X103549700Y-100614198D01*
X103554208Y-100617355D01*
X103554211Y-100617357D01*
X103632389Y-100672098D01*
X103737251Y-100745523D01*
X103742233Y-100747846D01*
X103742238Y-100747849D01*
X103880421Y-100812284D01*
X103944757Y-100842284D01*
X103950065Y-100843706D01*
X103950067Y-100843707D01*
X104160598Y-100900119D01*
X104160600Y-100900119D01*
X104165913Y-100901543D01*
X104394000Y-100921498D01*
X104622087Y-100901543D01*
X104627400Y-100900119D01*
X104627402Y-100900119D01*
X104837933Y-100843707D01*
X104837935Y-100843706D01*
X104843243Y-100842284D01*
X104907579Y-100812284D01*
X105045762Y-100747849D01*
X105045767Y-100747846D01*
X105050749Y-100745523D01*
X105155611Y-100672098D01*
X105233789Y-100617357D01*
X105233792Y-100617355D01*
X105238300Y-100614198D01*
X105400198Y-100452300D01*
X105421205Y-100422300D01*
X105498967Y-100311243D01*
X105531523Y-100264749D01*
X105533846Y-100259767D01*
X105533849Y-100259762D01*
X105625961Y-100062225D01*
X105625961Y-100062224D01*
X105628284Y-100057243D01*
X105637746Y-100021933D01*
X105686119Y-99841402D01*
X105686119Y-99841400D01*
X105687543Y-99836087D01*
X105707498Y-99608000D01*
X105703998Y-99568000D01*
X106382502Y-99568000D01*
X106402457Y-99796087D01*
X106403881Y-99801400D01*
X106403881Y-99801402D01*
X106451412Y-99978787D01*
X106461716Y-100017243D01*
X106464039Y-100022224D01*
X106464039Y-100022225D01*
X106556151Y-100219762D01*
X106556154Y-100219767D01*
X106558477Y-100224749D01*
X106589642Y-100269257D01*
X106664716Y-100376473D01*
X106689802Y-100412300D01*
X106851700Y-100574198D01*
X106856208Y-100577355D01*
X106856211Y-100577357D01*
X106865981Y-100584198D01*
X107039251Y-100705523D01*
X107044233Y-100707846D01*
X107044238Y-100707849D01*
X107241775Y-100799961D01*
X107246757Y-100802284D01*
X107252065Y-100803706D01*
X107252067Y-100803707D01*
X107462598Y-100860119D01*
X107462600Y-100860119D01*
X107467913Y-100861543D01*
X107696000Y-100881498D01*
X107924087Y-100861543D01*
X107929400Y-100860119D01*
X107929402Y-100860119D01*
X108139933Y-100803707D01*
X108139935Y-100803706D01*
X108145243Y-100802284D01*
X108150225Y-100799961D01*
X108347762Y-100707849D01*
X108347767Y-100707846D01*
X108352749Y-100705523D01*
X108526019Y-100584198D01*
X108535789Y-100577357D01*
X108535792Y-100577355D01*
X108540300Y-100574198D01*
X108702198Y-100412300D01*
X108727285Y-100376473D01*
X108802358Y-100269257D01*
X108833523Y-100224749D01*
X108835846Y-100219767D01*
X108835849Y-100219762D01*
X108927961Y-100022225D01*
X108927961Y-100022224D01*
X108930284Y-100017243D01*
X108940589Y-99978787D01*
X108988119Y-99801402D01*
X108988119Y-99801400D01*
X108989543Y-99796087D01*
X109009498Y-99568000D01*
X108989543Y-99339913D01*
X108988119Y-99334598D01*
X108931707Y-99124067D01*
X108931706Y-99124065D01*
X108930284Y-99118757D01*
X108883161Y-99017700D01*
X108835849Y-98916238D01*
X108835846Y-98916233D01*
X108833523Y-98911251D01*
X108733365Y-98768211D01*
X108705357Y-98728211D01*
X108705355Y-98728208D01*
X108702198Y-98723700D01*
X108540300Y-98561802D01*
X108535792Y-98558645D01*
X108535789Y-98558643D01*
X108414383Y-98473634D01*
X108352749Y-98430477D01*
X108347767Y-98428154D01*
X108347762Y-98428151D01*
X108150225Y-98336039D01*
X108150224Y-98336039D01*
X108145243Y-98333716D01*
X108139935Y-98332294D01*
X108139933Y-98332293D01*
X107929402Y-98275881D01*
X107929400Y-98275881D01*
X107924087Y-98274457D01*
X107696000Y-98254502D01*
X107467913Y-98274457D01*
X107462600Y-98275881D01*
X107462598Y-98275881D01*
X107252067Y-98332293D01*
X107252065Y-98332294D01*
X107246757Y-98333716D01*
X107241776Y-98336039D01*
X107241775Y-98336039D01*
X107044238Y-98428151D01*
X107044233Y-98428154D01*
X107039251Y-98430477D01*
X106977617Y-98473634D01*
X106856211Y-98558643D01*
X106856208Y-98558645D01*
X106851700Y-98561802D01*
X106689802Y-98723700D01*
X106686645Y-98728208D01*
X106686643Y-98728211D01*
X106658635Y-98768211D01*
X106558477Y-98911251D01*
X106556154Y-98916233D01*
X106556151Y-98916238D01*
X106508839Y-99017700D01*
X106461716Y-99118757D01*
X106460294Y-99124065D01*
X106460293Y-99124067D01*
X106403881Y-99334598D01*
X106402457Y-99339913D01*
X106382502Y-99568000D01*
X105703998Y-99568000D01*
X105687543Y-99379913D01*
X105680973Y-99355393D01*
X105629707Y-99164067D01*
X105629706Y-99164065D01*
X105628284Y-99158757D01*
X105564612Y-99022211D01*
X105533849Y-98956238D01*
X105533846Y-98956233D01*
X105531523Y-98951251D01*
X105400198Y-98763700D01*
X105238300Y-98601802D01*
X105233792Y-98598645D01*
X105233789Y-98598643D01*
X105155611Y-98543902D01*
X105050749Y-98470477D01*
X105045767Y-98468154D01*
X105045762Y-98468151D01*
X104848225Y-98376039D01*
X104848224Y-98376039D01*
X104843243Y-98373716D01*
X104837935Y-98372294D01*
X104837933Y-98372293D01*
X104627402Y-98315881D01*
X104627400Y-98315881D01*
X104622087Y-98314457D01*
X104394000Y-98294502D01*
X104165913Y-98314457D01*
X104160600Y-98315881D01*
X104160598Y-98315881D01*
X103950067Y-98372293D01*
X103950065Y-98372294D01*
X103944757Y-98373716D01*
X103939776Y-98376039D01*
X103939775Y-98376039D01*
X103742238Y-98468151D01*
X103742233Y-98468154D01*
X103737251Y-98470477D01*
X103632389Y-98543902D01*
X103554211Y-98598643D01*
X103554208Y-98598645D01*
X103549700Y-98601802D01*
X103387802Y-98763700D01*
X103256477Y-98951251D01*
X103254154Y-98956233D01*
X103254151Y-98956238D01*
X103223388Y-99022211D01*
X103159716Y-99158757D01*
X103158294Y-99164065D01*
X103158293Y-99164067D01*
X103107027Y-99355393D01*
X103100457Y-99379913D01*
X103080502Y-99608000D01*
X101500000Y-99608000D01*
X101500000Y-96765885D01*
X109446000Y-96765885D01*
X109450475Y-96781124D01*
X109451865Y-96782329D01*
X109459548Y-96784000D01*
X110481885Y-96784000D01*
X110497124Y-96779525D01*
X110498329Y-96778135D01*
X110500000Y-96770452D01*
X110500000Y-96765885D01*
X111008000Y-96765885D01*
X111012475Y-96781124D01*
X111013865Y-96782329D01*
X111021548Y-96784000D01*
X112043884Y-96784000D01*
X112059123Y-96779525D01*
X112060328Y-96778135D01*
X112061999Y-96770452D01*
X112061999Y-96193331D01*
X112061629Y-96186510D01*
X112056105Y-96135648D01*
X112052479Y-96120396D01*
X112007324Y-95999946D01*
X111998786Y-95984351D01*
X111922285Y-95882276D01*
X111909724Y-95869715D01*
X111807649Y-95793214D01*
X111792054Y-95784676D01*
X111671606Y-95739522D01*
X111656351Y-95735895D01*
X111605486Y-95730369D01*
X111598672Y-95730000D01*
X111026115Y-95730000D01*
X111010876Y-95734475D01*
X111009671Y-95735865D01*
X111008000Y-95743548D01*
X111008000Y-96765885D01*
X110500000Y-96765885D01*
X110500000Y-95748116D01*
X110495525Y-95732877D01*
X110494135Y-95731672D01*
X110486452Y-95730001D01*
X109909331Y-95730001D01*
X109902510Y-95730371D01*
X109851648Y-95735895D01*
X109836396Y-95739521D01*
X109715946Y-95784676D01*
X109700351Y-95793214D01*
X109598276Y-95869715D01*
X109585715Y-95882276D01*
X109509214Y-95984351D01*
X109500676Y-95999946D01*
X109455522Y-96120394D01*
X109451895Y-96135649D01*
X109446369Y-96186514D01*
X109446000Y-96193328D01*
X109446000Y-96765885D01*
X101500000Y-96765885D01*
X101500000Y-90456000D01*
X106371634Y-90456000D01*
X106391066Y-90702911D01*
X106392220Y-90707718D01*
X106392221Y-90707724D01*
X106428499Y-90858830D01*
X106448885Y-90943742D01*
X106543666Y-91172563D01*
X106673075Y-91383740D01*
X106833927Y-91572073D01*
X107022260Y-91732925D01*
X107233437Y-91862334D01*
X107238007Y-91864227D01*
X107238011Y-91864229D01*
X107354497Y-91912479D01*
X107462258Y-91957115D01*
X107547170Y-91977501D01*
X107698276Y-92013779D01*
X107698282Y-92013780D01*
X107703089Y-92014934D01*
X107950000Y-92034366D01*
X108196911Y-92014934D01*
X108201718Y-92013780D01*
X108201724Y-92013779D01*
X108352830Y-91977501D01*
X108437742Y-91957115D01*
X108545503Y-91912479D01*
X108661989Y-91864229D01*
X108661993Y-91864227D01*
X108666563Y-91862334D01*
X108877740Y-91732925D01*
X109066073Y-91572073D01*
X109226925Y-91383740D01*
X109339521Y-91200000D01*
X121976502Y-91200000D01*
X121996457Y-91428087D01*
X122055716Y-91649243D01*
X122058039Y-91654224D01*
X122058039Y-91654225D01*
X122150151Y-91851762D01*
X122150154Y-91851767D01*
X122152477Y-91856749D01*
X122155634Y-91861257D01*
X122263240Y-92014934D01*
X122283802Y-92044300D01*
X122445700Y-92206198D01*
X122450208Y-92209355D01*
X122450211Y-92209357D01*
X122528389Y-92264098D01*
X122633251Y-92337523D01*
X122638233Y-92339846D01*
X122638238Y-92339849D01*
X122835775Y-92431961D01*
X122840757Y-92434284D01*
X122846065Y-92435706D01*
X122846067Y-92435707D01*
X123056598Y-92492119D01*
X123056600Y-92492119D01*
X123061913Y-92493543D01*
X123290000Y-92513498D01*
X123518087Y-92493543D01*
X123523400Y-92492119D01*
X123523402Y-92492119D01*
X123733933Y-92435707D01*
X123733935Y-92435706D01*
X123739243Y-92434284D01*
X123744225Y-92431961D01*
X123941762Y-92339849D01*
X123941767Y-92339846D01*
X123946749Y-92337523D01*
X124051611Y-92264098D01*
X124129789Y-92209357D01*
X124129792Y-92209355D01*
X124134300Y-92206198D01*
X124296198Y-92044300D01*
X124316761Y-92014934D01*
X124424366Y-91861257D01*
X124427523Y-91856749D01*
X124429846Y-91851767D01*
X124429849Y-91851762D01*
X124521961Y-91654225D01*
X124521961Y-91654224D01*
X124524284Y-91649243D01*
X124583543Y-91428087D01*
X124603498Y-91200000D01*
X124583543Y-90971913D01*
X124524284Y-90750757D01*
X124501973Y-90702911D01*
X124429849Y-90548238D01*
X124429846Y-90548233D01*
X124427523Y-90543251D01*
X124340078Y-90418367D01*
X124317390Y-90351093D01*
X124318013Y-90332628D01*
X124368027Y-89867414D01*
X124369307Y-89858511D01*
X124428889Y-89528260D01*
X124454889Y-89384152D01*
X124456799Y-89375371D01*
X124465846Y-89339927D01*
X124576002Y-88908332D01*
X124578531Y-88899719D01*
X124730751Y-88442366D01*
X124733893Y-88433943D01*
X124918353Y-87988616D01*
X124922081Y-87980451D01*
X125137853Y-87549393D01*
X125142149Y-87541526D01*
X125180587Y-87476743D01*
X125278320Y-87312021D01*
X125388106Y-87126987D01*
X125392969Y-87119420D01*
X125667869Y-86723488D01*
X125673259Y-86716288D01*
X125677920Y-86710504D01*
X125736238Y-86670013D01*
X125760019Y-86664586D01*
X125790843Y-86660637D01*
X125893847Y-86647442D01*
X125898795Y-86645957D01*
X125898802Y-86645956D01*
X126110747Y-86582369D01*
X126115690Y-86580886D01*
X126120324Y-86578616D01*
X126319049Y-86481262D01*
X126319052Y-86481260D01*
X126323684Y-86478991D01*
X126512243Y-86344494D01*
X126676303Y-86181005D01*
X126811458Y-85992917D01*
X126914078Y-85785280D01*
X126981408Y-85563671D01*
X127011640Y-85334041D01*
X127013327Y-85265000D01*
X127007032Y-85188434D01*
X126994773Y-85039318D01*
X126994772Y-85039312D01*
X126994349Y-85034167D01*
X126937925Y-84809533D01*
X126935866Y-84804797D01*
X126847630Y-84601868D01*
X126847628Y-84601865D01*
X126845570Y-84597131D01*
X126719764Y-84402665D01*
X126629486Y-84303450D01*
X126598434Y-84239605D01*
X126606829Y-84169106D01*
X126652005Y-84114338D01*
X126678449Y-84100669D01*
X126738054Y-84078324D01*
X126753649Y-84069786D01*
X126855724Y-83993285D01*
X126868285Y-83980724D01*
X126944786Y-83878649D01*
X126953324Y-83863054D01*
X126998478Y-83742606D01*
X127002105Y-83727351D01*
X127007631Y-83676486D01*
X127008000Y-83669672D01*
X127008000Y-82997115D01*
X127003525Y-82981876D01*
X127002135Y-82980671D01*
X126994452Y-82979000D01*
X124210116Y-82979000D01*
X124194877Y-82983475D01*
X124193672Y-82984865D01*
X124192001Y-82992548D01*
X124192001Y-83669669D01*
X124192371Y-83676490D01*
X124197895Y-83727352D01*
X124201521Y-83742604D01*
X124246676Y-83863054D01*
X124255214Y-83878649D01*
X124331715Y-83980724D01*
X124344276Y-83993285D01*
X124446351Y-84069786D01*
X124461946Y-84078324D01*
X124521540Y-84100665D01*
X124578304Y-84143307D01*
X124603004Y-84209868D01*
X124587796Y-84279217D01*
X124568404Y-84305698D01*
X124501639Y-84375564D01*
X124498725Y-84379836D01*
X124498724Y-84379837D01*
X124483152Y-84402665D01*
X124371119Y-84566899D01*
X124273602Y-84776981D01*
X124211707Y-85000169D01*
X124187095Y-85230469D01*
X124187392Y-85235621D01*
X124187392Y-85235624D01*
X124189911Y-85279300D01*
X124173864Y-85348459D01*
X124165607Y-85361229D01*
X123857228Y-85780329D01*
X123852765Y-85786394D01*
X123560888Y-86237834D01*
X123559953Y-86239492D01*
X123330708Y-86645956D01*
X123296801Y-86706074D01*
X123061468Y-87189404D01*
X123060741Y-87191159D01*
X123060737Y-87191168D01*
X122856475Y-87684303D01*
X122856469Y-87684320D01*
X122855747Y-87686062D01*
X122855131Y-87687848D01*
X122855125Y-87687863D01*
X122699793Y-88138000D01*
X122680388Y-88194235D01*
X122536033Y-88712069D01*
X122423207Y-89237674D01*
X122422924Y-89239531D01*
X122422924Y-89239533D01*
X122401587Y-89379733D01*
X122342323Y-89769132D01*
X122342152Y-89771018D01*
X122342151Y-89771023D01*
X122302782Y-90204276D01*
X122293674Y-90304504D01*
X122293617Y-90306397D01*
X122293501Y-90308313D01*
X122292754Y-90308268D01*
X122270910Y-90374111D01*
X122152477Y-90543251D01*
X122150154Y-90548233D01*
X122150151Y-90548238D01*
X122078027Y-90702911D01*
X122055716Y-90750757D01*
X121996457Y-90971913D01*
X121976502Y-91200000D01*
X109339521Y-91200000D01*
X109356334Y-91172563D01*
X109451115Y-90943742D01*
X109471501Y-90858830D01*
X109507779Y-90707724D01*
X109507780Y-90707718D01*
X109508934Y-90702911D01*
X109528366Y-90456000D01*
X109508934Y-90209089D01*
X109507780Y-90204282D01*
X109507779Y-90204276D01*
X109452270Y-89973070D01*
X109451115Y-89968258D01*
X109417449Y-89886981D01*
X109358229Y-89744011D01*
X109358227Y-89744007D01*
X109356334Y-89739437D01*
X109226925Y-89528260D01*
X109066073Y-89339927D01*
X108877740Y-89179075D01*
X108666563Y-89049666D01*
X108661993Y-89047773D01*
X108661989Y-89047771D01*
X108442315Y-88956779D01*
X108442313Y-88956778D01*
X108437742Y-88954885D01*
X108352830Y-88934499D01*
X108201724Y-88898221D01*
X108201718Y-88898220D01*
X108196911Y-88897066D01*
X107950000Y-88877634D01*
X107703089Y-88897066D01*
X107698282Y-88898220D01*
X107698276Y-88898221D01*
X107547170Y-88934499D01*
X107462258Y-88954885D01*
X107457687Y-88956778D01*
X107457685Y-88956779D01*
X107238011Y-89047771D01*
X107238007Y-89047773D01*
X107233437Y-89049666D01*
X107022260Y-89179075D01*
X106833927Y-89339927D01*
X106673075Y-89528260D01*
X106543666Y-89739437D01*
X106541773Y-89744007D01*
X106541771Y-89744011D01*
X106482551Y-89886981D01*
X106448885Y-89968258D01*
X106447730Y-89973070D01*
X106392221Y-90204276D01*
X106392220Y-90204282D01*
X106391066Y-90209089D01*
X106371634Y-90456000D01*
X101500000Y-90456000D01*
X101500000Y-88138000D01*
X114296502Y-88138000D01*
X114316457Y-88366087D01*
X114317881Y-88371400D01*
X114317881Y-88371402D01*
X114335752Y-88438095D01*
X114375716Y-88587243D01*
X114378039Y-88592224D01*
X114378039Y-88592225D01*
X114470151Y-88789762D01*
X114470154Y-88789767D01*
X114472477Y-88794749D01*
X114475634Y-88799257D01*
X114591319Y-88964472D01*
X114603802Y-88982300D01*
X114765700Y-89144198D01*
X114770208Y-89147355D01*
X114770211Y-89147357D01*
X114811542Y-89176297D01*
X114953251Y-89275523D01*
X114958233Y-89277846D01*
X114958238Y-89277849D01*
X115155775Y-89369961D01*
X115160757Y-89372284D01*
X115166065Y-89373706D01*
X115166067Y-89373707D01*
X115376598Y-89430119D01*
X115376600Y-89430119D01*
X115381913Y-89431543D01*
X115610000Y-89451498D01*
X115838087Y-89431543D01*
X115843400Y-89430119D01*
X115843402Y-89430119D01*
X116053933Y-89373707D01*
X116053935Y-89373706D01*
X116059243Y-89372284D01*
X116064225Y-89369961D01*
X116261762Y-89277849D01*
X116261767Y-89277846D01*
X116266749Y-89275523D01*
X116408458Y-89176297D01*
X116449789Y-89147357D01*
X116449792Y-89147355D01*
X116454300Y-89144198D01*
X116600000Y-88998498D01*
X116662312Y-88964472D01*
X116733127Y-88969537D01*
X116789963Y-89012084D01*
X116807132Y-89048737D01*
X116808255Y-89048316D01*
X116859385Y-89184705D01*
X116946739Y-89301261D01*
X117063295Y-89388615D01*
X117199684Y-89439745D01*
X117261866Y-89446500D01*
X118958134Y-89446500D01*
X119020316Y-89439745D01*
X119156705Y-89388615D01*
X119273261Y-89301261D01*
X119360615Y-89184705D01*
X119411745Y-89048316D01*
X119418500Y-88986134D01*
X119418500Y-87289866D01*
X119411745Y-87227684D01*
X119360615Y-87091295D01*
X119273261Y-86974739D01*
X119156705Y-86887385D01*
X119020316Y-86836255D01*
X118958134Y-86829500D01*
X117261866Y-86829500D01*
X117199684Y-86836255D01*
X117063295Y-86887385D01*
X116946739Y-86974739D01*
X116859385Y-87091295D01*
X116808255Y-87227684D01*
X116806309Y-87226954D01*
X116776455Y-87279205D01*
X116713497Y-87312021D01*
X116642793Y-87305591D01*
X116600000Y-87277502D01*
X116454300Y-87131802D01*
X116449792Y-87128645D01*
X116449789Y-87128643D01*
X116371611Y-87073902D01*
X116266749Y-87000477D01*
X116261767Y-86998154D01*
X116261762Y-86998151D01*
X116064225Y-86906039D01*
X116064224Y-86906039D01*
X116059243Y-86903716D01*
X116053935Y-86902294D01*
X116053933Y-86902293D01*
X115843402Y-86845881D01*
X115843400Y-86845881D01*
X115838087Y-86844457D01*
X115610000Y-86824502D01*
X115381913Y-86844457D01*
X115376600Y-86845881D01*
X115376598Y-86845881D01*
X115166067Y-86902293D01*
X115166065Y-86902294D01*
X115160757Y-86903716D01*
X115155776Y-86906039D01*
X115155775Y-86906039D01*
X114958238Y-86998151D01*
X114958233Y-86998154D01*
X114953251Y-87000477D01*
X114848389Y-87073902D01*
X114770211Y-87128643D01*
X114770208Y-87128645D01*
X114765700Y-87131802D01*
X114603802Y-87293700D01*
X114600645Y-87298208D01*
X114600643Y-87298211D01*
X114590973Y-87312021D01*
X114472477Y-87481251D01*
X114470154Y-87486233D01*
X114470151Y-87486238D01*
X114444370Y-87541526D01*
X114375716Y-87688757D01*
X114316457Y-87909913D01*
X114296502Y-88138000D01*
X101500000Y-88138000D01*
X101500000Y-82156000D01*
X106371634Y-82156000D01*
X106391066Y-82402911D01*
X106392220Y-82407718D01*
X106392221Y-82407724D01*
X106407413Y-82471000D01*
X106448885Y-82643742D01*
X106543666Y-82872563D01*
X106673075Y-83083740D01*
X106833927Y-83272073D01*
X107022260Y-83432925D01*
X107233437Y-83562334D01*
X107238007Y-83564227D01*
X107238011Y-83564229D01*
X107457685Y-83655221D01*
X107462258Y-83657115D01*
X107542943Y-83676486D01*
X107698276Y-83713779D01*
X107698282Y-83713780D01*
X107703089Y-83714934D01*
X107950000Y-83734366D01*
X108196911Y-83714934D01*
X108201718Y-83713780D01*
X108201724Y-83713779D01*
X108357057Y-83676486D01*
X108437742Y-83657115D01*
X108442315Y-83655221D01*
X108661989Y-83564229D01*
X108661993Y-83564227D01*
X108666563Y-83562334D01*
X108877740Y-83432925D01*
X109066073Y-83272073D01*
X109226925Y-83083740D01*
X109356334Y-82872563D01*
X109451115Y-82643742D01*
X109492587Y-82471000D01*
X109496936Y-82452885D01*
X124192000Y-82452885D01*
X124196475Y-82468124D01*
X124197865Y-82469329D01*
X124205548Y-82471000D01*
X125327885Y-82471000D01*
X125343124Y-82466525D01*
X125344329Y-82465135D01*
X125346000Y-82457452D01*
X125346000Y-82452885D01*
X125854000Y-82452885D01*
X125858475Y-82468124D01*
X125859865Y-82469329D01*
X125867548Y-82471000D01*
X126989884Y-82471000D01*
X127005123Y-82466525D01*
X127006328Y-82465135D01*
X127007999Y-82457452D01*
X127007999Y-81780331D01*
X127007629Y-81773510D01*
X127002105Y-81722648D01*
X126998479Y-81707396D01*
X126953324Y-81586946D01*
X126944786Y-81571351D01*
X126868285Y-81469276D01*
X126855724Y-81456715D01*
X126753649Y-81380214D01*
X126738054Y-81371676D01*
X126617606Y-81326522D01*
X126602351Y-81322895D01*
X126551486Y-81317369D01*
X126544672Y-81317000D01*
X125872115Y-81317000D01*
X125856876Y-81321475D01*
X125855671Y-81322865D01*
X125854000Y-81330548D01*
X125854000Y-82452885D01*
X125346000Y-82452885D01*
X125346000Y-81335116D01*
X125341525Y-81319877D01*
X125340135Y-81318672D01*
X125332452Y-81317001D01*
X124655331Y-81317001D01*
X124648510Y-81317371D01*
X124597648Y-81322895D01*
X124582396Y-81326521D01*
X124461946Y-81371676D01*
X124446351Y-81380214D01*
X124344276Y-81456715D01*
X124331715Y-81469276D01*
X124255214Y-81571351D01*
X124246676Y-81586946D01*
X124201522Y-81707394D01*
X124197895Y-81722649D01*
X124192369Y-81773514D01*
X124192000Y-81780328D01*
X124192000Y-82452885D01*
X109496936Y-82452885D01*
X109507779Y-82407724D01*
X109507780Y-82407718D01*
X109508934Y-82402911D01*
X109528366Y-82156000D01*
X109508934Y-81909089D01*
X109507780Y-81904282D01*
X109507779Y-81904276D01*
X109452270Y-81673070D01*
X109451115Y-81668258D01*
X109449221Y-81663685D01*
X109358229Y-81444011D01*
X109358227Y-81444007D01*
X109356334Y-81439437D01*
X109226925Y-81228260D01*
X109066073Y-81039927D01*
X108877740Y-80879075D01*
X108666563Y-80749666D01*
X108598342Y-80721408D01*
X108543062Y-80676859D01*
X108520641Y-80609496D01*
X108538199Y-80540705D01*
X108590162Y-80492326D01*
X108646561Y-80478999D01*
X108959669Y-80478999D01*
X108966490Y-80478629D01*
X109017352Y-80473105D01*
X109032604Y-80469479D01*
X109153054Y-80424324D01*
X109168649Y-80415786D01*
X109270724Y-80339285D01*
X109283285Y-80326724D01*
X109359786Y-80224649D01*
X109368324Y-80209054D01*
X109413478Y-80088606D01*
X109417105Y-80073351D01*
X109422631Y-80022486D01*
X109423000Y-80015672D01*
X109423000Y-79328115D01*
X109418525Y-79312876D01*
X109417135Y-79311671D01*
X109409452Y-79310000D01*
X106495116Y-79310000D01*
X106479877Y-79314475D01*
X106478672Y-79315865D01*
X106477001Y-79323548D01*
X106477001Y-80015669D01*
X106477371Y-80022490D01*
X106482895Y-80073352D01*
X106486521Y-80088604D01*
X106531676Y-80209054D01*
X106540214Y-80224649D01*
X106616715Y-80326724D01*
X106629276Y-80339285D01*
X106731351Y-80415786D01*
X106746946Y-80424324D01*
X106867394Y-80469478D01*
X106882649Y-80473105D01*
X106933514Y-80478631D01*
X106940328Y-80479000D01*
X107253438Y-80479000D01*
X107321559Y-80499002D01*
X107368052Y-80552658D01*
X107378156Y-80622932D01*
X107348662Y-80687512D01*
X107301657Y-80721408D01*
X107273360Y-80733129D01*
X107238011Y-80747771D01*
X107238007Y-80747773D01*
X107233437Y-80749666D01*
X107022260Y-80879075D01*
X106833927Y-81039927D01*
X106673075Y-81228260D01*
X106543666Y-81439437D01*
X106541773Y-81444007D01*
X106541771Y-81444011D01*
X106450779Y-81663685D01*
X106448885Y-81668258D01*
X106447730Y-81673070D01*
X106392221Y-81904276D01*
X106392220Y-81904282D01*
X106391066Y-81909089D01*
X106371634Y-82156000D01*
X101500000Y-82156000D01*
X101500000Y-78783885D01*
X106477000Y-78783885D01*
X106481475Y-78799124D01*
X106482865Y-78800329D01*
X106490548Y-78802000D01*
X107677885Y-78802000D01*
X107693124Y-78797525D01*
X107694329Y-78796135D01*
X107696000Y-78788452D01*
X107696000Y-78783885D01*
X108204000Y-78783885D01*
X108208475Y-78799124D01*
X108209865Y-78800329D01*
X108217548Y-78802000D01*
X109404884Y-78802000D01*
X109420123Y-78797525D01*
X109421328Y-78796135D01*
X109422999Y-78788452D01*
X109422999Y-78096331D01*
X109422629Y-78089510D01*
X109417105Y-78038648D01*
X109413479Y-78023396D01*
X109368324Y-77902946D01*
X109359786Y-77887351D01*
X109283285Y-77785276D01*
X109270724Y-77772715D01*
X109168649Y-77696214D01*
X109153054Y-77687676D01*
X109032606Y-77642522D01*
X109017351Y-77638895D01*
X108966486Y-77633369D01*
X108959672Y-77633000D01*
X108222115Y-77633000D01*
X108206876Y-77637475D01*
X108205671Y-77638865D01*
X108204000Y-77646548D01*
X108204000Y-78783885D01*
X107696000Y-78783885D01*
X107696000Y-77651116D01*
X107691525Y-77635877D01*
X107690135Y-77634672D01*
X107682452Y-77633001D01*
X106940331Y-77633001D01*
X106933510Y-77633371D01*
X106882648Y-77638895D01*
X106867396Y-77642521D01*
X106746946Y-77687676D01*
X106731351Y-77696214D01*
X106629276Y-77772715D01*
X106616715Y-77785276D01*
X106540214Y-77887351D01*
X106531676Y-77902946D01*
X106486522Y-78023394D01*
X106482895Y-78038649D01*
X106477369Y-78089514D01*
X106477000Y-78096328D01*
X106477000Y-78783885D01*
X101500000Y-78783885D01*
X101500000Y-76875671D01*
X101520002Y-76807550D01*
X101573658Y-76761057D01*
X101625669Y-76749671D01*
X127707353Y-76681434D01*
X187373670Y-76525331D01*
X187441843Y-76545155D01*
G37*
%TD.AperFunction*%
%TD*%
M02*
