%TF.GenerationSoftware,KiCad,Pcbnew,6.0.8+dfsg-1~bpo11+1*%
%TF.CreationDate,2022-10-27T04:09:54+08:00*%
%TF.ProjectId,SynthCard,53796e74-6843-4617-9264-2e6b69636164,rev?*%
%TF.SameCoordinates,Original*%
%TF.FileFunction,Drillmap*%
%TF.FilePolarity,Positive*%
%FSLAX45Y45*%
G04 Gerber Fmt 4.5, Leading zero omitted, Abs format (unit mm)*
G04 Created by KiCad (PCBNEW 6.0.8+dfsg-1~bpo11+1) date 2022-10-27 04:09:54*
%MOMM*%
%LPD*%
G01*
G04 APERTURE LIST*
%ADD10C,0.050000*%
%ADD11C,0.200000*%
G04 APERTURE END LIST*
D10*
X10000000Y-7800000D02*
X10002132Y-12282868D01*
X10300000Y-7500000D02*
G75*
G03*
X10000000Y-7800000I0J-300000D01*
G01*
X18592500Y-12580000D02*
X10302132Y-12582868D01*
X10002132Y-12282868D02*
G75*
G03*
X10302132Y-12582868I299998J-2D01*
G01*
X18892500Y-12280000D02*
X18892868Y-7802132D01*
X18592500Y-12580000D02*
G75*
G03*
X18892500Y-12280000I0J300000D01*
G01*
X18592868Y-7502132D02*
X10300000Y-7500000D01*
X18892868Y-7802132D02*
G75*
G03*
X18592868Y-7502132I-299998J2D01*
G01*
D11*
X10255119Y-12895844D02*
X10255119Y-12695844D01*
X10302738Y-12695844D01*
X10331310Y-12705368D01*
X10350357Y-12724416D01*
X10359881Y-12743463D01*
X10369405Y-12781558D01*
X10369405Y-12810130D01*
X10359881Y-12848225D01*
X10350357Y-12867273D01*
X10331310Y-12886320D01*
X10302738Y-12895844D01*
X10255119Y-12895844D01*
X10455119Y-12895844D02*
X10455119Y-12762511D01*
X10455119Y-12800606D02*
X10464643Y-12781558D01*
X10474167Y-12772035D01*
X10493214Y-12762511D01*
X10512262Y-12762511D01*
X10578929Y-12895844D02*
X10578929Y-12762511D01*
X10578929Y-12695844D02*
X10569405Y-12705368D01*
X10578929Y-12714892D01*
X10588452Y-12705368D01*
X10578929Y-12695844D01*
X10578929Y-12714892D01*
X10702738Y-12895844D02*
X10683690Y-12886320D01*
X10674167Y-12867273D01*
X10674167Y-12695844D01*
X10807500Y-12895844D02*
X10788452Y-12886320D01*
X10778929Y-12867273D01*
X10778929Y-12695844D01*
X11036071Y-12895844D02*
X11036071Y-12695844D01*
X11102738Y-12838701D01*
X11169405Y-12695844D01*
X11169405Y-12895844D01*
X11350357Y-12895844D02*
X11350357Y-12791082D01*
X11340833Y-12772035D01*
X11321786Y-12762511D01*
X11283690Y-12762511D01*
X11264643Y-12772035D01*
X11350357Y-12886320D02*
X11331309Y-12895844D01*
X11283690Y-12895844D01*
X11264643Y-12886320D01*
X11255119Y-12867273D01*
X11255119Y-12848225D01*
X11264643Y-12829177D01*
X11283690Y-12819654D01*
X11331309Y-12819654D01*
X11350357Y-12810130D01*
X11445595Y-12762511D02*
X11445595Y-12962511D01*
X11445595Y-12772035D02*
X11464643Y-12762511D01*
X11502738Y-12762511D01*
X11521786Y-12772035D01*
X11531309Y-12781558D01*
X11540833Y-12800606D01*
X11540833Y-12857749D01*
X11531309Y-12876796D01*
X11521786Y-12886320D01*
X11502738Y-12895844D01*
X11464643Y-12895844D01*
X11445595Y-12886320D01*
X11626548Y-12876796D02*
X11636071Y-12886320D01*
X11626548Y-12895844D01*
X11617024Y-12886320D01*
X11626548Y-12876796D01*
X11626548Y-12895844D01*
X11626548Y-12772035D02*
X11636071Y-12781558D01*
X11626548Y-12791082D01*
X11617024Y-12781558D01*
X11626548Y-12772035D01*
X11626548Y-12791082D01*
M02*
