<?xml version="1.0" encoding="UTF-8" standalone="no"?>
<svg
   xmlns:dc="http://purl.org/dc/elements/1.1/"
   xmlns:cc="http://creativecommons.org/ns#"
   xmlns:rdf="http://www.w3.org/1999/02/22-rdf-syntax-ns#"
   xmlns:svg="http://www.w3.org/2000/svg"
   xmlns="http://www.w3.org/2000/svg"
   xmlns:sodipodi="http://sodipodi.sourceforge.net/DTD/sodipodi-0.dtd"
   xmlns:inkscape="http://www.inkscape.org/namespaces/inkscape"
   width="210mm"
   height="297mm"
   viewBox="0 0 210 297"
   version="1.1"
   id="svg8"
   inkscape:version="1.0.2 (e86c870879, 2021-01-15)"
   sodipodi:docname="SynthCard - Front Labels - No Cut Lines.svg">
  <defs
     id="defs2">
    <rect
       x="34.75"
       y="30.25"
       width="24.25"
       height="17.75"
       id="rect1308" />
    <rect
       x="70"
       y="8"
       width="8"
       height="31"
       id="rect902" />
  </defs>
  <sodipodi:namedview
     id="base"
     pagecolor="#ffffff"
     bordercolor="#666666"
     borderopacity="1.0"
     inkscape:pageopacity="0.0"
     inkscape:pageshadow="2"
     inkscape:zoom="5.6568543"
     inkscape:cx="257.3669"
     inkscape:cy="113.76733"
     inkscape:document-units="mm"
     inkscape:current-layer="layer2"
     inkscape:document-rotation="0"
     showgrid="true"
     inkscape:window-width="2560"
     inkscape:window-height="1376"
     inkscape:window-x="0"
     inkscape:window-y="27"
     inkscape:window-maximized="1">
    <inkscape:grid
       type="xygrid"
       id="grid892"
       units="mm"
       spacingx="0.05"
       spacingy="0.05" />
  </sodipodi:namedview>
  <metadata
     id="metadata5">
    <rdf:RDF>
      <cc:Work
         rdf:about="">
        <dc:format>image/svg+xml</dc:format>
        <dc:type
           rdf:resource="http://purl.org/dc/dcmitype/StillImage" />
        <dc:title />
      </cc:Work>
    </rdf:RDF>
  </metadata>
  <g
     inkscape:groupmode="layer"
     id="layer2"
     inkscape:label="Labels">
    <g
       inkscape:groupmode="layer"
       id="layer3"
       inkscape:label="Graphics"
       style="display:inline" />
    <g
       inkscape:groupmode="layer"
       id="layer5"
       inkscape:label="IG Logo" />
    <g
       inkscape:groupmode="layer"
       id="layer6"
       inkscape:label="FB Logo" />
    <text
       xml:space="preserve"
       style="font-style:normal;font-weight:normal;font-size:10.5833px;line-height:1.25;font-family:sans-serif;letter-spacing:-0.15875px;fill:#000000;fill-opacity:1;stroke:none;stroke-width:0.264583"
       x="51.795349"
       y="41.236694"
       id="text898-9"><tspan
         sodipodi:role="line"
         id="tspan896-3"
         x="51.795349"
         y="41.236694"
         style="font-style:normal;font-variant:normal;font-weight:normal;font-stretch:normal;font-size:3.52778px;font-family:'Exo 2';-inkscape-font-specification:'Exo 2, @wght=600';font-variant-ligatures:normal;font-variant-caps:normal;font-variant-numeric:normal;font-variant-east-asian:normal;font-variation-settings:'wght' 600;stroke-width:0.264583" /></text>
    <path
       id="path2639"
       style="font-style:normal;font-variant:normal;font-weight:normal;font-stretch:normal;font-size:11.7807px;line-height:1.25;font-family:'Exo 2';-inkscape-font-specification:'Exo 2, @wght=700';font-variant-ligatures:normal;font-variant-caps:normal;font-variant-numeric:normal;font-variant-east-asian:normal;font-variation-settings:'wght' 700;letter-spacing:-0.545093px;fill:#000000;fill-opacity:1;stroke:none;stroke-width:0.294516"
       d="m 35.063238,4.4029867 c -0.534059,-6e-7 -0.993375,0.031737 -1.378212,0.094568 -0.376981,0.062831 -0.687223,0.1766514 -0.93069,0.3415813 -0.235614,0.1649299 -0.412396,0.3966035 -0.530201,0.695048 -0.109953,0.2905905 -0.164849,0.6713378 -0.164849,1.142566 0,0.6047426 0.129432,1.091764 0.388607,1.4608927 0.259175,0.3691284 0.698849,0.6672752 1.3193,0.8950356 l 1.649513,0.5658567 c 0.196344,0.05498 0.349448,0.117418 0.459401,0.188102 0.117811,0.06283 0.200411,0.153495 0.247531,0.271301 0.05497,0.109954 0.08217,0.259027 0.08217,0.447518 0,0.219907 -0.03525,0.388623 -0.105936,0.506429 -0.07069,0.11781 -0.196602,0.196378 -0.377238,0.235645 -0.172783,0.03927 -0.416036,0.05891 -0.730189,0.05891 h -0.636138 c -0.243467,-0.0079 -0.538099,-0.0154 -0.883666,-0.02325 -0.337714,-0.01571 -0.738102,-0.0278 -1.201478,-0.03566 l -0.117821,1.272274 c 0.636158,0.14137 1.201748,0.228002 1.696537,0.259415 0.494789,0.03927 0.875538,0.05891 1.142566,0.05891 0.55762,0 1.029031,-0.03928 1.413867,-0.117822 0.384837,-0.07068 0.695079,-0.192569 0.930693,-0.365352 0.235614,-0.172784 0.408361,-0.412005 0.518314,-0.718303 0.109953,-0.306297 0.164848,-0.691594 0.164848,-1.154968 0,-0.612596 -0.125915,-1.1071639 -0.377237,-1.4841465 C 37.391603,8.6205561 36.940351,8.321892 36.288487,8.1019854 L 34.721656,7.5955565 C 34.407505,7.493457 34.183377,7.3796362 34.049863,7.2539752 33.924202,7.1283145 33.861244,6.9278614 33.861244,6.6529784 c 0,-0.1806374 0.01964,-0.3216473 0.05891,-0.4237469 0.03927,-0.1020995 0.10626,-0.176636 0.200504,-0.2237589 0.09425,-0.054977 0.21613,-0.086714 0.365353,-0.094568 0.157075,-0.015707 0.345432,-0.023254 0.56534,-0.023254 0.447665,0 0.902949,0.00351 1.366324,0.011369 0.463373,0.00785 0.868313,0.015917 1.21388,0.023771 L 37.748862,4.7326821 C 37.301195,4.5991673 36.841879,4.513052 36.37065,4.4737833 35.899425,4.4266605 35.463783,4.4029867 35.063238,4.4029867 Z m 30.248799,0.011885 c -0.840356,5e-7 -1.516253,0.137495 -2.026751,0.412378 -0.502642,0.2670291 -0.86778,0.7067029 -1.095539,1.3192993 -0.219905,0.6125964 -0.329694,1.4375656 -0.329694,2.4742676 -3e-6,1.0367011 0.109789,1.8611541 0.329694,2.4737511 0.227759,0.612596 0.592897,1.056302 1.095539,1.331184 0.510498,0.26703 1.186395,0.400493 2.026751,0.400493 0.581181,0 1.067686,-0.02771 1.460376,-0.08268 0.392689,-0.04712 0.77747,-0.129207 1.154451,-0.247014 l -0.152961,-1.319816 c -0.361275,0.03927 -0.726414,0.06698 -1.095542,0.08268 -0.369128,0.01571 -0.824412,0.02377 -1.366324,0.02377 -0.400545,0 -0.714817,-0.07857 -0.942578,-0.235645 -0.219906,-0.157076 -0.377042,-0.428034 -0.471289,-0.81287 -0.09424,-0.392691 -0.141595,-0.9305752 -0.141595,-1.6138551 0,-0.6832809 0.04735,-1.21765 0.141595,-1.6024862 0.09425,-0.3926881 0.251383,-0.6676777 0.471289,-0.8247537 0.227761,-0.157076 0.542033,-0.2356446 0.942578,-0.2356446 0.345567,0 0.639683,0.00403 0.88315,0.011885 0.251322,0 0.482994,0.00403 0.695047,0.011886 0.219906,0.00785 0.459645,0.019433 0.71882,0.03514 l 0.141595,-1.3192992 c -0.24347,-0.070684 -0.479174,-0.1255786 -0.706935,-0.1648478 -0.227759,-0.039269 -0.479076,-0.066975 -0.75396,-0.082682 -0.267028,-0.023561 -0.592881,-0.03514 -0.977717,-0.03514 z m -9.82214,0.023771 v 8.246009 h 1.743564 V 8.6962645 C 57.544974,8.5348641 57.822842,8.40514 58.04633,8.3262611 c 0.267031,-0.094245 0.52641,-0.1415934 0.777732,-0.1415934 0.227759,0 0.384379,0.050863 0.470771,0.1529623 0.09425,0.094246 0.141594,0.2710248 0.141594,0.5302003 v 3.8168217 h 1.755447 V 8.3262611 c 0,-1.0759705 -0.549979,-1.6143716 -1.64951,-1.6143716 -0.431959,0 -0.871633,0.1022424 -1.3193,0.3064412 -0.367964,0.1613874 -0.730438,0.3873317 -1.08779,0.67076 0.01868,-0.1119642 0.0361,-0.232482 0.05116,-0.3643188 0.03927,-0.274883 0.05891,-0.5654831 0.05891,-0.8717814 l -0.01188,-2.0143473 z m 27.377141,0 v 1.5781983 c 0,0.2591753 0.004,0.514523 0.01188,0.7658447 0.01011,0.1566822 0.02436,0.3135733 0.03772,0.4702556 C 82.691606,7.0949699 82.444178,6.9719461 82.171991,6.8886229 81.795007,6.7708159 81.40268,6.7118895 80.994283,6.7118895 c -0.486934,0 -0.895387,0.090664 -1.225246,0.2713014 -0.329861,0.1806373 -0.577146,0.4908796 -0.742074,0.9306925 -0.157078,0.4319592 -0.235646,1.0363168 -0.235646,1.8138426 0,0.997433 0.15662,1.763476 0.470773,2.297534 0.322006,0.534059 0.856374,0.800985 1.602486,0.800985 0.549767,0 1.013113,-0.109789 1.390097,-0.329696 0.331682,-0.200392 0.605091,-0.443008 0.827339,-0.722436 l 0.150378,0.910539 H 84.6106 V 4.4386432 Z m -31.143834,0.8128704 0.0031,1.6200562 -1.016473,0.05271 v 1.083655 h 1.019058 l 0.0062,3.2044554 c 0,0.510497 0.145042,0.906854 0.435631,1.189591 0.298445,0.282737 0.71093,0.424264 1.237134,0.424264 0.141369,0 0.314116,-0.01158 0.518316,-0.03514 0.204197,-0.01571 0.408683,-0.04342 0.61288,-0.08268 0.204201,-0.03142 0.376947,-0.0707 0.518317,-0.117822 l -0.188619,-1.178222 h -0.75396 c -0.227761,0 -0.392961,-0.0428 -0.495061,-0.129191 -0.09425,-0.09425 -0.141076,-0.247351 -0.141076,-0.459404 V 8.0079345 h 1.62574 v -1.142566 h -1.62574 V 5.2515136 Z m -3.000851,1.4603759 c -0.424106,0 -0.856234,0.094696 -1.296046,0.2831867 -0.407411,0.1777794 -0.807521,0.4315304 -1.20096,0.7560262 L 46.071868,6.8653685 H 44.669886 V 12.684652 H 46.41345 V 8.6993651 C 46.724944,8.5434768 47.002839,8.4165054 47.226319,8.33763 47.49335,8.2355307 47.752213,8.1846677 48.003533,8.1846677 c 0.227761,0 0.388929,0.050863 0.483174,0.1529623 0.09425,0.094246 0.141594,0.2710248 0.141594,0.5302003 v 3.8168217 h 1.743562 V 8.3262611 c 0,-1.0759705 -0.549979,-1.6143716 -1.64951,-1.6143718 z m 22.759333,0 c -0.290592,-5e-7 -0.620474,0.016127 -0.989602,0.047542 -0.369131,0.023561 -0.738299,0.054782 -1.107427,0.094051 -0.369128,0.039269 -0.694981,0.086617 -0.977717,0.1415934 l 0.164846,1.1544517 c 0.471228,-0.031415 0.930545,-0.055089 1.378212,-0.070797 0.447667,-0.023561 0.820867,-0.035657 1.119311,-0.035657 0.361276,0 0.605044,0.062958 0.730703,0.188619 C 71.933529,8.3573531 72,8.5578059 72,8.8326892 v 0.2707844 h -2.108915 c -0.549767,0 -0.981376,0.1294315 -1.295527,0.3886064 -0.314153,0.259176 -0.471289,0.620798 -0.471289,1.084172 v 0.60048 c 0,0.361275 0.0826,0.66397 0.247529,0.907438 0.16493,0.243468 0.38854,0.427794 0.671277,0.553455 0.282736,0.12566 0.601043,0.188619 0.954463,0.188619 0.361275,0 0.683096,-0.05893 0.965832,-0.176734 0.282739,-0.117806 0.530022,-0.259333 0.742074,-0.424263 0.193003,-0.157261 0.349033,-0.314545 0.476975,-0.471806 l 0.182933,0.93121 h 1.390097 V 8.8445759 c 0,-0.541912 -0.09066,-0.9659755 -0.271301,-1.2722739 C 73.311365,7.2581501 73.056534,7.0380549 72.71882,6.9123939 72.381106,6.7788793 71.96862,6.7118895 71.481686,6.7118893 Z m 6.994406,0 c -0.392692,0 -0.797113,0.094696 -1.213363,0.2831867 -0.38899,0.1761464 -0.774388,0.4305379 -1.15652,0.7575767 l -0.16278,-0.8872844 h -1.36684 v 5.8192837 h 1.743562 V 8.7386391 c 0.371988,-0.1253112 0.698246,-0.22713 0.954463,-0.2945556 0.298445,-0.078538 0.585012,-0.1178224 0.859896,-0.1178224 h 0.483174 l 0.164849,-1.6143716 z m -40.553597,0.153479 1.920296,5.3955367 c 0.03927,0.12566 0.109775,0.227903 0.211873,0.306441 0.1021,0.07854 0.219953,0.117306 0.353467,0.117306 h 0.322461 l -0.01602,0.03566 c -0.149222,0.345567 -0.357221,0.624072 -0.624249,0.836125 -0.267031,0.212053 -0.640231,0.381285 -1.119312,0.506946 l 0.129706,0.989603 c 0.486937,0.06283 0.906968,0.03109 1.260391,-0.09457 0.361272,-0.117807 0.667485,-0.294587 0.918805,-0.530201 0.259175,-0.235614 0.471207,-0.50254 0.636138,-0.800984 0.172783,-0.29059 0.306763,-0.581191 0.401007,-0.871782 l 2.085145,-5.8900797 h -1.861384 l -1.084172,3.7697957 c -0.04712,0.180638 -0.106048,0.396701 -0.176734,0.648023 -0.02292,0.08883 -0.04683,0.167594 -0.0708,0.247013 h -0.141076 c -0.02356,-0.149222 -0.05127,-0.298295 -0.08268,-0.447518 -0.03142,-0.149222 -0.06264,-0.298296 -0.09405,-0.447518 L 39.783881,6.8653685 Z M 81.60665,7.9609086 c 0.282736,0 0.530021,0.031221 0.742074,0.094051 0.152887,0.0453 0.336847,0.099496 0.518314,0.1529622 v 2.7114632 c -0.11376,0.07798 -0.232572,0.160867 -0.329695,0.222208 -0.149225,0.0864 -0.298296,0.153385 -0.447519,0.200505 -0.149222,0.03927 -0.326001,0.05891 -0.530201,0.05891 -0.227759,0 -0.416118,-0.04332 -0.56534,-0.129708 -0.141367,-0.09425 -0.247643,-0.259446 -0.318326,-0.49506 -0.06283,-0.243468 -0.09405,-0.59651 -0.09405,-1.059884 0,-0.4947895 0.03525,-0.8679903 0.105936,-1.1193117 0.07068,-0.2513219 0.180472,-0.4200371 0.329695,-0.5064289 0.149222,-0.086392 0.345646,-0.129708 0.589113,-0.129708 z M 72,10.085844 V 11 c -0.02757,0.01971 -0.05431,0.04 -0.08268,0.05891 -0.235615,0.157076 -0.474835,0.27896 -0.718302,0.365352 -0.235614,0.08639 -0.45571,0.129708 -0.659908,0.129708 -0.243467,0 -0.420248,-0.05086 -0.530201,-0.152962 -0.109953,-0.109953 -0.164846,-0.263059 -0.164846,-0.459404 v -0.283186 c 0,-0.172784 0.04331,-0.310279 0.129707,-0.412378 0.09425,-0.1021 0.247351,-0.152963 0.459404,-0.152963 z" />
    <path
       id="path2658"
       style="font-style:normal;font-variant:normal;font-weight:normal;font-stretch:normal;font-size:4.10317px;line-height:1.25;font-family:'Exo 2';-inkscape-font-specification:'Exo 2, @wght=600';font-variant-ligatures:normal;font-variant-caps:normal;font-variant-numeric:normal;font-variant-east-asian:normal;font-variation-settings:'wght' 600;letter-spacing:-0.221509px;fill:#000000;fill-opacity:1;stroke:none;stroke-width:0.369181"
       d="m 55.217564,13.366264 c -0.09848,0 -0.147796,0.04932 -0.147796,0.147794 v 0.229444 c 0,0.09848 0.04932,0.147794 0.147796,0.147794 h 0.221692 c 0.09574,0 0.143142,-0.04932 0.143142,-0.147794 v -0.229444 c 0,-0.09848 -0.0474,-0.147794 -0.143142,-0.147794 z m 0.865579,0.0124 c -0.09848,0 -0.147794,0.0488 -0.147794,0.147278 v 0.22996 c 0,0.09848 0.04932,0.147795 0.147794,0.147795 h 0.221692 c 0.09848,0 0.147796,-0.04932 0.147796,-0.147795 v -0.22996 c 0,-0.09848 -0.04932,-0.147278 -0.147796,-0.147278 z m 4.753197,0 c -0.09848,0 -0.147794,0.0488 -0.147794,0.147278 v 0.22996 c 0,0.09848 0.04932,0.147795 0.147794,0.147795 h 0.221176 c 0.09847,0 0.147796,-0.04932 0.147796,-0.147795 v -0.22996 c 0,-0.09848 -0.04932,-0.147278 -0.147796,-0.147278 z m -17.180345,0.01602 v 2.769857 c 0.06565,0.02735 0.139628,0.05062 0.221691,0.06976 0.0848,0.01641 0.172247,0.03128 0.262517,0.04496 0.09027,0.01368 0.179115,0.02347 0.26665,0.02894 0.08753,0.0055 0.165709,0.0083 0.234095,0.0083 0.191482,0 0.348711,-0.02466 0.471805,-0.0739 0.123095,-0.04924 0.218935,-0.120419 0.287322,-0.213424 0.07112,-0.09574 0.120441,-0.209246 0.147794,-0.340548 0.03009,-0.131301 0.04496,-0.277858 0.04496,-0.439249 0,-0.374757 -0.05859,-0.642694 -0.176216,-0.804085 -0.117625,-0.161392 -0.305109,-0.241846 -0.562239,-0.241846 -0.09574,0 -0.191582,0.01627 -0.287322,0.04909 -0.09301,0.03009 -0.18185,0.07521 -0.266649,0.135393 -0.06717,0.04926 -0.131083,0.10638 -0.192755,0.168465 0.01809,-0.06891 0.03179,-0.138703 0.03669,-0.209806 0.0082,-0.08206 0.0124,-0.166715 0.0124,-0.254249 l -0.0041,-0.697632 z m 5.820833,0.0083 c -0.15045,0 -0.28302,0.0014 -0.39791,0.0041 -0.112151,0 -0.215868,0.0028 -0.311607,0.0083 -0.09301,0.0027 -0.191643,0.0097 -0.29559,0.02067 v 2.830835 c 0.11489,0.0082 0.225597,0.0152 0.332279,0.02067 0.106683,0.0055 0.224386,0.0083 0.352952,0.0083 0.128564,0.0027 0.278802,0.0041 0.451133,0.0041 0.221573,0 0.400664,-0.02046 0.537435,-0.06149 0.139512,-0.04377 0.240945,-0.119144 0.303858,-0.225826 0.06565,-0.106683 0.0987,-0.256919 0.0987,-0.451135 0,-0.227043 -0.04373,-0.405252 -0.131257,-0.533818 -0.0848,-0.128567 -0.235554,-0.202029 -0.451655,-0.221175 v -0.01654 c 0.17507,-0.01641 0.301162,-0.0778 0.377757,-0.184485 0.07659,-0.106682 0.11472,-0.261631 0.11472,-0.464054 0,-0.194217 -0.03305,-0.344453 -0.0987,-0.451135 -0.06291,-0.106681 -0.165229,-0.180659 -0.307472,-0.221692 -0.142243,-0.04377 -0.333923,-0.06563 -0.574643,-0.06563 z m 10.333736,0.03307 v 2.199349 c 0,0.175068 -0.100037,0.262516 -0.299723,0.262516 h -0.201022 l -0.05736,0.344682 c 0.03556,0.01368 0.08068,0.02575 0.13539,0.03669 0.05471,0.01095 0.111902,0.01794 0.172085,0.02067 0.06018,0.0055 0.110894,0.0083 0.151926,0.0083 0.194217,0 0.343056,-0.05212 0.447003,-0.156063 0.106683,-0.103947 0.160197,-0.256981 0.160197,-0.459404 v -2.256767 z m -10.744047,0.360674 h 0.386022 c 0.131302,0 0.233619,0.01119 0.307475,0.03307 0.07386,0.01915 0.125971,0.05868 0.156065,0.118856 0.03283,0.06018 0.04909,0.146229 0.04909,0.258382 0,0.112154 -0.01487,0.198719 -0.04496,0.258899 -0.03009,0.06018 -0.07941,0.102504 -0.147793,0.127124 -0.06565,0.02189 -0.157295,0.03256 -0.274918,0.03256 H 48.972464 V 13.79828 c 0.03282,-2.71e-4 0.0588,-0.0016 0.09405,-0.0016 z m 2.6386,0.406694 c -0.232513,0 -0.422796,0.03253 -0.570508,0.09818 -0.144981,0.06565 -0.251492,0.176359 -0.319878,0.332279 -0.06565,0.153186 -0.0987,0.362531 -0.0987,0.627869 0,0.24619 0.03305,0.447144 0.0987,0.603064 0.06839,0.155921 0.176297,0.270825 0.324011,0.344682 0.15045,0.07112 0.348607,0.10697 0.594796,0.10697 0.09027,0 0.186108,-0.0056 0.287322,-0.01654 0.103947,-0.0082 0.203981,-0.02168 0.299723,-0.04082 0.09574,-0.01915 0.18039,-0.0438 0.254246,-0.0739 l -0.04909,-0.31626 c -0.123095,0.01368 -0.251987,0.02487 -0.386024,0.03307 -0.1313,0.0082 -0.247087,0.0124 -0.348298,0.0124 -0.136774,0 -0.2466,-0.01818 -0.328663,-0.05374 -0.08206,-0.0383 -0.140657,-0.108078 -0.176217,-0.20929 -0.0202,-0.05749 -0.03313,-0.132191 -0.04186,-0.217041 h 0.809255 c 0.205158,0 0.351197,-0.04652 0.438732,-0.139526 0.09027,-0.09574 0.13399,-0.235304 0.131257,-0.418579 -0.0027,-0.221571 -0.0748,-0.388591 -0.21704,-0.500745 -0.142242,-0.114879 -0.376247,-0.172073 -0.701764,-0.172073 z m 2.470131,0 c -0.147714,0 -0.298465,0.03253 -0.451651,0.09818 -0.145212,0.06223 -0.287586,0.15228 -0.427882,0.266134 l -0.03979,-0.315227 h -0.406176 v 2.014348 h 0.49661 V 14.85764 c 0.124434,-0.06819 0.240348,-0.128682 0.33228,-0.166398 0.106682,-0.0465 0.210915,-0.06976 0.312126,-0.06976 0.09027,0 0.154458,0.02098 0.192752,0.06201 0.03829,0.04103 0.05736,0.115892 0.05736,0.225309 v 1.358057 h 0.49661 v -1.509986 c 0,-0.369285 -0.187484,-0.553454 -0.56224,-0.553454 z m 3.516583,0 c -0.232513,0 -0.422794,0.03253 -0.570508,0.09818 -0.144979,0.06565 -0.251492,0.176359 -0.319879,0.332279 -0.06565,0.153186 -0.0987,0.362531 -0.0987,0.627869 0,0.24619 0.03305,0.447144 0.0987,0.603064 0.06839,0.155921 0.176297,0.270825 0.324012,0.344682 0.15045,0.07112 0.349123,0.10697 0.595312,0.10697 0.09027,0 0.185595,-0.0056 0.286806,-0.01654 0.103947,-0.0082 0.203983,-0.02168 0.299723,-0.04082 0.09574,-0.01915 0.18039,-0.0438 0.254248,-0.0739 l -0.04909,-0.31626 c -0.123095,0.01368 -0.251468,0.02487 -0.385506,0.03307 -0.131302,0.0082 -0.247605,0.0124 -0.348816,0.0124 -0.136774,0 -0.2466,-0.01818 -0.328663,-0.05374 -0.08206,-0.0383 -0.140655,-0.108078 -0.176215,-0.20929 -0.0202,-0.05749 -0.03313,-0.132191 -0.04186,-0.217041 h 0.809255 c 0.205158,0 0.351197,-0.04652 0.438732,-0.139526 0.09027,-0.09574 0.134509,-0.235304 0.131776,-0.418579 -0.0027,-0.221571 -0.07531,-0.388591 -0.217559,-0.500745 -0.142243,-0.114888 -0.376248,-0.172082 -0.701765,-0.172082 z m 4.86792,0 c -0.09848,0 -0.209185,0.0037 -0.332279,0.01188 -0.123098,0.0082 -0.244994,0.01939 -0.365353,0.03307 -0.120359,0.01368 -0.228272,0.02995 -0.324011,0.04909 l 0.04496,0.340548 c 0.158654,-0.01367 0.315886,-0.02435 0.471805,-0.03256 0.158657,-0.0082 0.289827,-0.0124 0.393774,-0.0124 0.139507,0 0.233947,0.02466 0.283189,0.0739 0.04924,0.0465 0.0739,0.122761 0.0739,0.229444 v 0.131775 h -0.775663 c -0.183274,0 -0.327914,0.04512 -0.434597,0.135392 -0.103946,0.08753 -0.156064,0.210314 -0.156064,0.36897 v 0.213423 c 0,0.123095 0.02746,0.226811 0.08217,0.311609 0.05471,0.08206 0.130085,0.145369 0.225825,0.189136 0.09574,0.04103 0.203652,0.0615 0.324011,0.0615 0.117626,0 0.224137,-0.01767 0.319879,-0.05323 0.09848,-0.03556 0.184523,-0.08068 0.258381,-0.135392 0.07659,-0.05471 0.141296,-0.109625 0.19327,-0.164331 0.0073,-0.008 0.0098,-0.01297 0.01654,-0.02067 l 0.05323,0.33228 h 0.393774 v -1.366325 c 0,-0.177804 -0.02885,-0.317368 -0.0863,-0.418579 -0.05744,-0.10121 -0.142094,-0.171874 -0.254249,-0.212907 -0.109418,-0.04377 -0.244784,-0.06563 -0.406175,-0.06563 z m 1.977657,0 c -0.24072,0 -0.435197,0.03393 -0.582911,0.102319 -0.144976,0.06839 -0.250089,0.180494 -0.315743,0.336414 -0.06565,0.15592 -0.0987,0.362468 -0.0987,0.6196 0,0.257132 0.03305,0.46368 0.0987,0.619601 0.06565,0.153184 0.170765,0.265291 0.315743,0.336413 0.147714,0.06839 0.342191,0.102836 0.582911,0.102836 0.24619,0 0.441548,-0.03445 0.586526,-0.102836 0.147717,-0.07112 0.253347,-0.183229 0.316259,-0.336413 0.06565,-0.155921 0.09819,-0.362469 0.09819,-0.619601 0,-0.257132 -0.03253,-0.46368 -0.09819,-0.6196 -0.06292,-0.15592 -0.168545,-0.268027 -0.316259,-0.336414 -0.144978,-0.06839 -0.340336,-0.102319 -0.586526,-0.102319 z m -18.9544,0.04909 0.693499,1.891358 c 0.01095,0.0383 0.03141,0.06855 0.0615,0.09043 0.03009,0.02189 0.06403,0.03256 0.102319,0.03256 h 0.101286 l -0.01912,0.04547 c -0.05197,0.123095 -0.12455,0.224013 -0.217556,0.303341 -0.09027,0.07933 -0.217244,0.142635 -0.381373,0.189135 l 0.04082,0.295073 c 0.147714,0.01094 0.278003,-0.0053 0.390157,-0.04909 0.112154,-0.04377 0.208876,-0.103759 0.290939,-0.180351 0.08206,-0.07659 0.149047,-0.163158 0.20102,-0.258898 0.05471,-0.09301 0.09983,-0.18693 0.135392,-0.282671 l 0.754994,-2.076359 h -0.533302 l -0.438732,1.386996 c -0.01641,0.05744 -0.03688,0.125827 -0.0615,0.205155 -0.0083,0.02894 -0.0177,0.05092 -0.02636,0.07751 h -0.05168 c -0.0082,-0.0465 -0.018,-0.09303 -0.02894,-0.139527 -0.01094,-0.04924 -0.02301,-0.09664 -0.03669,-0.143143 l -0.447518,-1.386996 z m 9.499163,0 v 1.981791 c 0,0.125831 -0.01906,0.237938 -0.05736,0.336414 -0.0383,0.09848 -0.101603,0.197113 -0.189135,0.295589 l 0.274918,0.217558 c 0.09574,-0.05744 0.178109,-0.131422 0.246496,-0.221692 0.07113,-0.08753 0.125521,-0.184772 0.163814,-0.291455 0.03829,-0.106682 0.05788,-0.218789 0.05788,-0.336414 v -1.981791 z m 0.865579,0 v 2.014348 h 0.492477 v -2.014348 z m 4.7532,0 v 2.014348 h 0.491958 v -2.014348 z m -8.975164,0.319877 c 0.147714,0 0.251428,0.02186 0.311611,0.06563 0.06292,0.04377 0.09597,0.12194 0.0987,0.234094 0,0.07112 -0.01399,0.131111 -0.04134,0.180351 -0.02462,0.04924 -0.08321,0.0739 -0.176216,0.0739 h -0.681095 c 0.0044,-0.126078 0.01491,-0.233423 0.03669,-0.307475 0.03009,-0.09301 0.08081,-0.15771 0.151929,-0.19327 0.07112,-0.03556 0.171156,-0.05323 0.299722,-0.05323 z m 5.986714,0 c 0.147714,0 0.251431,0.02186 0.31161,0.06563 0.06292,0.04377 0.09597,0.12194 0.0987,0.234094 0,0.07112 -0.01399,0.131111 -0.04134,0.180351 -0.02462,0.04924 -0.08321,0.0739 -0.176215,0.0739 H 57.22416 c 0.0044,-0.126078 0.01491,-0.233423 0.03669,-0.307475 0.03009,-0.09301 0.08081,-0.15771 0.151929,-0.19327 0.07112,-0.03556 0.171159,-0.05323 0.299723,-0.05323 z m 6.824908,0.0083 c 0.123095,0 0.220332,0.02046 0.291455,0.0615 0.07112,0.0383 0.120441,0.106679 0.147793,0.205155 0.03009,0.09848 0.04496,0.236641 0.04496,0.414445 0,0.177804 -0.01486,0.315969 -0.04496,0.414445 -0.02735,0.09847 -0.07667,0.166855 -0.147793,0.205156 -0.07112,0.03829 -0.16836,0.05736 -0.291455,0.05736 -0.120361,0 -0.216199,-0.01907 -0.287321,-0.05736 -0.06838,-0.0383 -0.117703,-0.10668 -0.147796,-0.205156 -0.03009,-0.09848 -0.04496,-0.236641 -0.04496,-0.414445 0,-0.177804 0.01487,-0.315969 0.04496,-0.414445 0.03009,-0.09848 0.07941,-0.166862 0.147796,-0.205155 0.07112,-0.04103 0.16696,-0.0615 0.287321,-0.0615 z m -19.87579,0.0248 c 0.112154,0 0.198202,0.01907 0.258381,0.05736 0.06018,0.0383 0.101105,0.105281 0.122992,0.201022 0.02462,0.093 0.03721,0.221378 0.03721,0.385506 0,0.175068 -0.01538,0.313233 -0.04547,0.414445 -0.03009,0.09847 -0.07801,0.168256 -0.14366,0.209289 -0.06292,0.04103 -0.148966,0.0629 -0.258382,0.06563 -0.05745,0 -0.120234,-0.0014 -0.188619,-0.0041 -0.06565,-0.0055 -0.132635,-0.01335 -0.201022,-0.02429 -0.03148,-0.0066 -0.06022,-0.01596 -0.09043,-0.02377 v -1.057816 c 0.08498,-0.05965 0.167259,-0.115608 0.234096,-0.153479 0.0848,-0.0465 0.176442,-0.06976 0.274918,-0.06976 z m 4.310848,0.36897 h 0.529167 c 0.136771,0 0.241884,0.01538 0.315743,0.04547 0.07659,0.02736 0.131503,0.07616 0.16433,0.147278 0.03283,0.06839 0.04909,0.168421 0.04909,0.299724 0,0.117621 -0.01627,0.209265 -0.04909,0.274918 -0.03009,0.06291 -0.0822,0.106638 -0.156062,0.131258 -0.07386,0.02189 -0.174776,0.03307 -0.30334,0.03307 -0.210804,0 -0.387283,-0.0015 -0.549838,-0.0036 z m 13.192993,0.361218 h 0.64027 v 0.355018 c -0.0282,0.02181 -0.05593,0.04423 -0.0863,0.06356 -0.08753,0.05744 -0.176382,0.101165 -0.26665,0.131259 -0.09027,0.03009 -0.172122,0.04496 -0.24598,0.04496 -0.09301,0 -0.161388,-0.02046 -0.205156,-0.0615 -0.04377,-0.04377 -0.06563,-0.106555 -0.06563,-0.188619 v -0.110587 c 0,-0.07112 0.01767,-0.127432 0.05323,-0.168466 0.03556,-0.04103 0.09415,-0.06289 0.176216,-0.06563 z M 43.721625,17.11283 v 2.781742 c 0.06838,0.02462 0.139565,0.04508 0.213423,0.0615 0.07659,0.01641 0.153366,0.0304 0.22996,0.04134 0.07659,0.01368 0.151969,0.02296 0.225824,0.02842 0.07659,0.0055 0.149173,0.0083 0.217559,0.0083 0.161391,0 0.29676,-0.02046 0.406178,-0.06149 0.109413,-0.04377 0.196863,-0.107954 0.262514,-0.192753 0.06565,-0.08753 0.112173,-0.196844 0.139528,-0.328146 0.03009,-0.131301 0.04496,-0.285733 0.04496,-0.463537 0,-0.374757 -0.05719,-0.641812 -0.172082,-0.800468 -0.112154,-0.161392 -0.294042,-0.241846 -0.545703,-0.241846 -0.09301,0 -0.18605,0.01627 -0.279053,0.04909 -0.09027,0.03282 -0.179115,0.07935 -0.26665,0.139526 -0.08186,0.05372 -0.164121,0.122019 -0.245981,0.202055 l -5.16e-4,-0.001 c 0.01368,-0.06838 0.02207,-0.135368 0.02481,-0.201021 0.0027,-0.06565 0.0041,-0.141027 0.0041,-0.225826 v -0.795817 z m 18.70325,0 v 0.636137 0.213423 c 0.0023,0.0553 0.0089,0.11626 0.01705,0.179318 -0.11697,-0.06114 -0.235932,-0.109676 -0.3576,-0.142627 -0.131302,-0.03556 -0.262991,-0.05323 -0.39429,-0.05323 -0.172334,0 -0.313296,0.03393 -0.422714,0.102319 -0.106686,0.06565 -0.18714,0.174961 -0.241846,0.328146 -0.05197,0.15045 -0.07803,0.354717 -0.07803,0.611849 0,0.355608 0.05491,0.61935 0.16433,0.791683 0.109418,0.169597 0.289906,0.254247 0.541567,0.254247 0.153186,0 0.297829,-0.03393 0.4346,-0.102319 0.127822,-0.06647 0.249478,-0.151232 0.365352,-0.251147 l 0.02894,0.304374 h 0.20102 v -2.872176 z m 2.834968,0 v 2.428792 c 0,0.153185 0.04144,0.270887 0.123507,0.35295 0.0848,0.08206 0.196906,0.123507 0.336415,0.123507 0.03009,0 0.06682,-0.0014 0.110585,-0.0041 0.04377,-0.0027 0.0847,-0.0083 0.122992,-0.01654 0.04103,-0.0055 0.07268,-0.01386 0.09457,-0.0248 l -0.02894,-0.192753 h -0.209288 c -0.09301,0 -0.165068,-0.02466 -0.21704,-0.0739 -0.05197,-0.04924 -0.07803,-0.121817 -0.07803,-0.217558 l 0.0041,-2.375565 z m -15.226977,0.04496 c -0.05745,0 -0.0863,0.02885 -0.0863,0.0863 v 0.241846 c 0,0.05745 0.02885,0.0863 0.0863,0.0863 h 0.118856 c 0.05471,0 0.08217,-0.02885 0.08217,-0.0863 V 17.24409 c 0,-0.05745 -0.02746,-0.0863 -0.08217,-0.0863 z m 0.750858,0 c -0.05745,0 -0.0863,0.02885 -0.0863,0.0863 v 0.241846 c 0,0.05745 0.02885,0.0863 0.0863,0.0863 h 0.122992 c 0.05745,0 0.0863,-0.02885 0.0863,-0.0863 V 17.24409 c 0,-0.05745 -0.02885,-0.0863 -0.0863,-0.0863 z m -4.160986,0.788066 c -0.210629,0 -0.381328,0.03253 -0.51263,0.09819 -0.131302,0.06565 -0.228542,0.174079 -0.291454,0.324528 -0.06018,0.150449 -0.09043,0.355599 -0.09043,0.615466 0,0.251662 0.03166,0.455412 0.09457,0.611333 0.06291,0.153184 0.161554,0.265291 0.295589,0.336413 0.136774,0.06839 0.317262,0.102319 0.541571,0.102319 0.07386,0 0.157107,-0.0042 0.250113,-0.0124 0.09574,-0.0082 0.187383,-0.01888 0.274918,-0.03256 0.09027,-0.01368 0.164245,-0.03135 0.221692,-0.05323 l -0.02894,-0.176733 c -0.09301,0.01368 -0.202316,0.02627 -0.328147,0.03721 -0.123094,0.0082 -0.242194,0.0124 -0.357084,0.0124 -0.164126,0 -0.296696,-0.02326 -0.397907,-0.06976 -0.101216,-0.04924 -0.175194,-0.134405 -0.221692,-0.254765 -0.03455,-0.09146 -0.0521,-0.219003 -0.06098,-0.364835 h 0.980302 c 0.166862,0 0.285962,-0.04792 0.357082,-0.143661 0.07112,-0.09574 0.105053,-0.232507 0.10232,-0.410311 -0.0027,-0.205158 -0.07112,-0.360107 -0.205156,-0.464054 -0.131299,-0.103947 -0.339246,-0.155546 -0.623734,-0.155546 z m 2.326474,0 c -0.15045,0 -0.303483,0.03393 -0.459404,0.102319 -0.148709,0.06639 -0.301408,0.161111 -0.457854,0.281637 l -0.01809,-0.33489 h -0.217556 v 1.990059 h 0.258381 V 18.51737 c 0.166804,-0.106844 0.312846,-0.191831 0.435116,-0.251664 0.128566,-0.06291 0.259739,-0.09457 0.393774,-0.09457 0.120361,0 0.208327,0.03025 0.263033,0.09043 0.05471,0.05744 0.08165,0.15748 0.08165,0.299723 v 1.423686 h 0.258898 v -1.493443 c 0,-0.363815 -0.179608,-0.545703 -0.537951,-0.545703 z m 3.434932,0 c -0.112152,0 -0.224261,0.0056 -0.336413,0.01654 -0.112154,0.0082 -0.22058,0.01888 -0.324527,0.03256 -0.103947,0.01094 -0.202068,0.02441 -0.295074,0.04082 l 0.02429,0.19327 c 0.150447,-0.01641 0.304882,-0.0304 0.463536,-0.04134 0.158658,-0.01094 0.29822,-0.01654 0.418579,-0.01654 0.164124,0 0.275349,0.03305 0.332796,0.0987 0.06018,0.06565 0.08992,0.161491 0.08992,0.287321 v 0.213424 h -0.890386 c -0.166862,0 -0.296635,0.04232 -0.389639,0.127124 -0.09027,0.08206 -0.135392,0.199765 -0.135392,0.35295 v 0.229443 c 0,0.114889 0.02326,0.213526 0.06976,0.295589 0.04924,0.07933 0.116221,0.139318 0.201023,0.180351 0.0848,0.04103 0.184833,0.06149 0.299723,0.06149 0.103946,0 0.203464,-0.01487 0.299206,-0.04496 0.09848,-0.03009 0.187323,-0.06822 0.26665,-0.114722 0.08206,-0.0465 0.153244,-0.09442 0.213424,-0.143661 0.03926,-0.03072 0.06186,-0.05722 0.0894,-0.08475 l 0.03359,0.355534 h 0.205155 v -1.42782 c 0,-0.15045 -0.02466,-0.26955 -0.0739,-0.357084 -0.04924,-0.09027 -0.121301,-0.15446 -0.21704,-0.192753 -0.09301,-0.04103 -0.20791,-0.0615 -0.344683,-0.0615 z m 1.903759,0 c -0.22157,0 -0.399265,0.03393 -0.5333,0.102319 -0.134038,0.06839 -0.231275,0.179095 -0.291454,0.33228 -0.06018,0.153185 -0.09043,0.356935 -0.09043,0.611332 0,0.254397 0.03025,0.458664 0.09043,0.611849 0.06018,0.153185 0.157416,0.263893 0.291454,0.332279 0.134035,0.06839 0.31173,0.10232 0.5333,0.10232 0.221572,0 0.399264,-0.03393 0.533302,-0.10232 0.134035,-0.06839 0.229875,-0.179094 0.287321,-0.332279 0.06018,-0.153185 0.09043,-0.357452 0.09043,-0.611849 0,-0.254397 -0.03025,-0.458147 -0.09043,-0.611332 -0.05745,-0.153185 -0.153286,-0.263894 -0.287321,-0.33228 -0.134038,-0.06839 -0.31173,-0.102319 -0.533302,-0.102319 z m 2.347145,0 c -0.142243,0 -0.283207,0.03393 -0.422714,0.102319 -0.133708,0.06292 -0.271651,0.157895 -0.412896,0.28112 l -0.01808,-0.334346 h -0.213426 v 1.990059 h 0.2589 V 18.51223 c 0.100727,-0.07359 0.19263,-0.138122 0.26665,-0.185002 0.0848,-0.05471 0.162456,-0.09424 0.233579,-0.118856 0.07386,-0.02462 0.149233,-0.03721 0.225825,-0.03721 0.117623,0 0.20507,0.03025 0.262516,0.09043 0.06018,0.06018 0.09043,0.160215 0.09043,0.299723 v 1.423686 h 0.250113 V 18.51584 c 0.100542,-0.07295 0.191405,-0.13683 0.26665,-0.184485 0.08206,-0.05471 0.15884,-0.09424 0.22996,-0.118856 0.07386,-0.02735 0.150633,-0.04134 0.22996,-0.04134 0.123097,0 0.211944,0.03166 0.26665,0.09457 0.05471,0.06292 0.08305,0.161553 0.08578,0.295589 v 1.423686 h 0.2589 v -1.493472 c 0,-0.177804 -0.04512,-0.313171 -0.135393,-0.406177 -0.09027,-0.09301 -0.220559,-0.139526 -0.390157,-0.139526 -0.139507,0 -0.279953,0.03393 -0.422195,0.102319 -0.131948,0.06209 -0.267923,0.156164 -0.407213,0.276986 -0.02023,-0.09909 -0.05868,-0.180117 -0.118337,-0.239779 -0.09027,-0.09301 -0.218644,-0.139526 -0.385506,-0.139526 z m 3.126422,0 c -0.22157,0 -0.399261,0.03393 -0.533299,0.102319 -0.134038,0.06839 -0.231275,0.179095 -0.291455,0.33228 -0.06018,0.153185 -0.08992,0.356935 -0.08992,0.611332 0,0.254397 0.02974,0.458664 0.08992,0.611849 0.06018,0.153185 0.157417,0.263893 0.291455,0.332279 0.134038,0.06839 0.311729,0.10232 0.533299,0.10232 0.221573,0 0.399783,-0.03393 0.533818,-0.10232 0.134036,-0.06839 0.22936,-0.179094 0.286806,-0.332279 0.06018,-0.153185 0.09043,-0.357452 0.09043,-0.611849 0,-0.254397 -0.03025,-0.458147 -0.09043,-0.611332 -0.05744,-0.153185 -0.152768,-0.263894 -0.286806,-0.33228 -0.134035,-0.06839 -0.312245,-0.102319 -0.533818,-0.102319 z m 7.377846,0 c -0.112155,0 -0.224261,0.0056 -0.336413,0.01654 -0.112154,0.0082 -0.220064,0.01888 -0.324011,0.03256 -0.103947,0.01094 -0.202586,0.02441 -0.29559,0.04082 l 0.02481,0.19327 c 0.15045,-0.01641 0.304882,-0.0304 0.463536,-0.04134 0.158658,-0.01094 0.29822,-0.01654 0.418579,-0.01654 0.164127,0 0.274833,0.03305 0.33228,0.0987 0.06018,0.06565 0.09043,0.161491 0.09043,0.287321 v 0.213424 h -0.890383 c -0.166862,0 -0.297154,0.04232 -0.390158,0.127124 -0.09027,0.08206 -0.135392,0.199765 -0.135392,0.35295 v 0.229443 c 0,0.114889 0.02326,0.213526 0.06976,0.295589 0.04924,0.07933 0.116223,0.139318 0.201019,0.180351 0.0848,0.04103 0.184836,0.06149 0.299726,0.06149 0.103946,0 0.20398,-0.01487 0.299722,-0.04496 0.09848,-0.03009 0.187323,-0.06822 0.26665,-0.114722 0.08206,-0.0465 0.153244,-0.09442 0.213423,-0.143661 0.03915,-0.03064 0.0619,-0.05677 0.0894,-0.08423 l 0.03359,0.355017 h 0.205155 v -1.42782 c 0,-0.15045 -0.02466,-0.26955 -0.0739,-0.357084 -0.04924,-0.09027 -0.121817,-0.15446 -0.217559,-0.192753 -0.093,-0.04103 -0.207909,-0.0615 -0.34468,-0.0615 z m 2.195216,0 c -0.142246,0 -0.288285,0.03533 -0.438735,0.106453 -0.144833,0.06847 -0.291364,0.162421 -0.438732,0.279053 l -0.02946,-0.336413 h -0.20102 v 1.990059 h 0.258898 v -1.483114 c 0.163626,-0.09627 0.305376,-0.171841 0.422195,-0.223759 0.125831,-0.05745 0.253323,-0.0863 0.381889,-0.0863 h 0.09819 l 0.03307,-0.24598 z m 1.58388,0 c -0.227041,0 -0.408929,0.03393 -0.545703,0.102319 -0.136774,0.06565 -0.23681,0.174961 -0.299723,0.328146 -0.06018,0.153185 -0.09043,0.357452 -0.09043,0.611849 0,0.257132 0.03026,0.462281 0.09043,0.615466 0.06292,0.150449 0.162952,0.259758 0.299723,0.328145 0.136774,0.06839 0.317262,0.102319 0.54157,0.102319 0.112152,0 0.224261,-0.0079 0.336413,-0.02429 0.11489,-0.01367 0.221401,-0.03554 0.319878,-0.06563 l -0.03256,-0.176734 c -0.06565,0.01095 -0.135432,0.01934 -0.20929,0.02481 -0.07385,0.0055 -0.143635,0.0097 -0.209288,0.0124 -0.06565,0.0027 -0.119163,0.0041 -0.160198,0.0041 -0.172333,0 -0.310496,-0.02326 -0.414446,-0.06976 -0.101213,-0.04924 -0.175191,-0.134405 -0.221691,-0.254765 -0.04376,-0.120359 -0.06563,-0.285464 -0.06563,-0.496093 0,-0.21063 0.02186,-0.374852 0.06563,-0.492477 0.0465,-0.120362 0.12048,-0.20413 0.221691,-0.25063 0.10395,-0.04924 0.242113,-0.0739 0.414446,-0.0739 0.06839,0 0.153038,0.0028 0.254249,0.0083 0.101211,0.0055 0.194252,0.01386 0.279051,0.0248 l 0.03721,-0.172599 c -0.06292,-0.02189 -0.131299,-0.03815 -0.205155,-0.04909 -0.07386,-0.01368 -0.146436,-0.02295 -0.217559,-0.02842 -0.07112,-0.0055 -0.133911,-0.0083 -0.188619,-0.0083 z m 1.717725,0 c -0.22157,0 -0.399264,0.03393 -0.533299,0.102319 -0.134038,0.06839 -0.231275,0.179095 -0.291457,0.33228 -0.06018,0.153185 -0.09043,0.356935 -0.09043,0.611332 0,0.254397 0.03025,0.458664 0.09043,0.611849 0.06018,0.153185 0.157419,0.263893 0.291457,0.332279 0.134035,0.06839 0.311729,0.10232 0.533299,0.10232 0.221573,0 0.399265,-0.03393 0.533303,-0.10232 0.134032,-0.06839 0.229872,-0.179094 0.287319,-0.332279 0.06018,-0.153185 0.09043,-0.357452 0.09043,-0.611849 0,-0.254397 -0.03025,-0.458147 -0.09043,-0.611332 -0.05744,-0.153185 -0.153284,-0.263894 -0.287319,-0.33228 -0.134038,-0.06839 -0.31173,-0.102319 -0.533303,-0.102319 z m 2.347143,0 c -0.142243,0 -0.283205,0.03393 -0.422712,0.102319 -0.133707,0.06292 -0.27165,0.157893 -0.412895,0.28112 l -0.01809,-0.334346 H 73.91616 v 1.990059 h 0.2589 V 18.51223 c 0.100726,-0.07359 0.19263,-0.138122 0.266649,-0.185002 0.0848,-0.05471 0.162457,-0.09424 0.233577,-0.118856 0.07386,-0.02462 0.149233,-0.03721 0.225827,-0.03721 0.117621,0 0.205068,0.03025 0.262515,0.09043 0.06018,0.06018 0.09043,0.160215 0.09043,0.299723 v 1.423686 h 0.250113 V 18.51584 c 0.100545,-0.07295 0.191408,-0.13683 0.266653,-0.184485 0.08206,-0.05471 0.158837,-0.09424 0.22996,-0.118856 0.07386,-0.02735 0.150632,-0.04134 0.22996,-0.04134 0.123097,0 0.211944,0.03166 0.266649,0.09457 0.05471,0.06292 0.08305,0.161553 0.08578,0.295589 v 1.423686 h 0.2589 v -1.493472 c -3e-6,-0.177804 -0.04512,-0.313171 -0.135393,-0.406177 -0.09027,-0.09301 -0.220559,-0.139526 -0.390157,-0.139526 -0.139507,0 -0.280472,0.03393 -0.422714,0.102319 -0.131948,0.06209 -0.267404,0.156164 -0.406694,0.276986 -0.02023,-0.09909 -0.05868,-0.180117 -0.118337,-0.239779 -0.09027,-0.09301 -0.218644,-0.139526 -0.385509,-0.139526 z m -25.02431,0.04909 v 2.088761 c 0,0.131301 -0.01907,0.244807 -0.05736,0.340548 -0.03556,0.09848 -0.09187,0.195197 -0.168465,0.290938 l 0.143661,0.111104 c 0.06839,-0.06018 0.128378,-0.128562 0.18035,-0.205155 0.05197,-0.07659 0.09202,-0.160362 0.119372,-0.250631 0.03009,-0.09027 0.04496,-0.185593 0.04496,-0.286804 v -2.088785 z m 0.759127,0 v 1.990059 h 0.254246 v -1.990083 z m 12.424563,0 v 1.497583 c 0,0.363814 0.179091,0.545703 0.537435,0.545703 0.15045,0 0.299805,-0.03253 0.447519,-0.09818 0.139861,-0.06216 0.284927,-0.154805 0.434599,-0.273369 l 0.02067,0.318327 h 0.205156 v -1.990088 h -0.258382 v 1.483113 c -0.154006,0.102324 -0.289033,0.183791 -0.402042,0.240296 -0.117626,0.06018 -0.238125,0.09043 -0.36122,0.09043 -0.128566,0 -0.223007,-0.03025 -0.283186,-0.09043 -0.05744,-0.06018 -0.0849,-0.158818 -0.08217,-0.29559 v -1.427819 z m -16.507518,0.176216 c 0.191482,0 0.331044,0.03166 0.418579,0.09457 0.08754,0.06018 0.132659,0.161614 0.135392,0.303857 0.0027,0.09847 -0.01353,0.180327 -0.04909,0.24598 -0.03556,0.06565 -0.103944,0.0987 -0.205155,0.0987 h -0.928627 c 0.0034,-0.172236 0.01977,-0.315115 0.05426,-0.418579 0.0383,-0.117622 0.104399,-0.20139 0.197403,-0.25063 0.09301,-0.04924 0.218583,-0.0739 0.37724,-0.0739 z m 7.652761,0 c 0.158657,0 0.284234,0.02466 0.37724,0.0739 0.09574,0.04924 0.163237,0.134405 0.201536,0.254764 0.04103,0.117625 0.0615,0.281331 0.0615,0.49196 0,0.207894 -0.02046,0.372117 -0.0615,0.492476 -0.0383,0.120358 -0.105797,0.205525 -0.201536,0.254765 -0.09301,0.04924 -0.218583,0.0739 -0.37724,0.0739 -0.161391,0 -0.288367,-0.02466 -0.381371,-0.0739 -0.093,-0.04924 -0.160504,-0.134405 -0.201538,-0.254765 -0.03829,-0.120359 -0.05736,-0.284582 -0.05736,-0.492476 0,-0.210629 0.01907,-0.374335 0.05736,-0.49196 0.04103,-0.120357 0.108532,-0.205524 0.201538,-0.254764 0.093,-0.04924 0.21998,-0.0739 0.381371,-0.0739 z m 5.473567,0 c 0.158658,0 0.28475,0.02466 0.377757,0.0739 0.09574,0.04924 0.162726,0.134405 0.201019,0.254764 0.04104,0.117625 0.0615,0.281331 0.0615,0.49196 0,0.207894 -0.02046,0.372117 -0.0615,0.492476 -0.03829,0.120358 -0.10528,0.205525 -0.201019,0.254765 -0.09301,0.04924 -0.219099,0.0739 -0.377757,0.0739 -0.16139,0 -0.288366,-0.02466 -0.38137,-0.0739 -0.093,-0.04924 -0.159988,-0.134405 -0.201023,-0.254765 -0.03829,-0.120359 -0.05736,-0.284582 -0.05736,-0.492476 0,-0.210629 0.01907,-0.374335 0.05736,-0.49196 0.04103,-0.120357 0.108017,-0.205524 0.201023,-0.254764 0.093,-0.04924 0.21998,-0.0739 0.38137,-0.0739 z m 12.874667,0 c 0.158658,0 0.284234,0.02466 0.377238,0.0739 0.09574,0.04924 0.162722,0.134405 0.201023,0.254764 0.04103,0.117625 0.06201,0.281331 0.06201,0.49196 0,0.207894 -0.02098,0.372117 -0.06201,0.492476 -0.0383,0.120358 -0.105281,0.205525 -0.201023,0.254765 -0.093,0.04924 -0.21858,0.0739 -0.377238,0.0739 -0.16139,0 -0.288882,-0.02466 -0.381889,-0.0739 -0.093,-0.04924 -0.159988,-0.134405 -0.201019,-0.254765 -0.0383,-0.120359 -0.05736,-0.284582 -0.05736,-0.492476 0,-0.210629 0.01906,-0.374335 0.05736,-0.49196 0.04103,-0.120357 0.108016,-0.205524 0.201019,-0.254764 0.09301,-0.04924 0.220499,-0.0739 0.381889,-0.0739 z m -27.974519,0.0041 c 0.136773,0 0.243284,0.02606 0.319878,0.07803 0.07659,0.05197 0.130109,0.138022 0.160198,0.258382 0.03282,0.117624 0.04909,0.276769 0.04909,0.476457 0,0.202422 -0.01906,0.363331 -0.05736,0.483691 -0.0383,0.120359 -0.101084,0.206925 -0.188619,0.258899 -0.0848,0.05197 -0.198303,0.07803 -0.340548,0.07803 -0.07112,0 -0.142301,-0.0014 -0.213424,-0.0041 -0.07112,-0.0055 -0.145097,-0.01526 -0.221691,-0.02894 -0.0608,-0.01303 -0.124884,-0.029 -0.189135,-0.04547 l -0.0031,-1.212329 c 0.131207,-0.102204 0.248322,-0.184954 0.3483,-0.243913 0.109419,-0.06565 0.221525,-0.0987 0.336413,-0.0987 z m 17.081645,0 c 0.117623,0 0.230248,0.01399 0.336931,0.04134 0.09999,0.025 0.217273,0.0603 0.344681,0.101286 v 1.168921 c -0.08909,0.06497 -0.172416,0.124189 -0.242364,0.170016 -0.07933,0.05197 -0.154702,0.0901 -0.225825,0.114721 -0.06839,0.02188 -0.144645,0.03307 -0.229444,0.03307 -0.120359,0 -0.218995,-0.02466 -0.295589,-0.0739 -0.07386,-0.05197 -0.12877,-0.137141 -0.16433,-0.254765 -0.03556,-0.12036 -0.05323,-0.284065 -0.05323,-0.49196 0,-0.207893 0.01767,-0.370717 0.05323,-0.488342 0.03556,-0.117627 0.09187,-0.199996 0.168465,-0.246496 0.07933,-0.04924 0.181644,-0.0739 0.307475,-0.0739 z m -8.986015,0.793234 v 0.481624 c -0.06039,0.05435 -0.124581,0.105582 -0.196887,0.149345 -0.103946,0.06291 -0.20906,0.110834 -0.315743,0.14366 -0.103947,0.03283 -0.199787,0.04769 -0.287321,0.04496 -0.117621,0 -0.205071,-0.02746 -0.262517,-0.08217 -0.05745,-0.05471 -0.0863,-0.13796 -0.0863,-0.250114 v -0.172599 c 0,-0.09574 0.02326,-0.169719 0.06976,-0.221692 0.04924,-0.05471 0.126013,-0.08305 0.22996,-0.08578 z m 14.755688,0 v 0.481107 c -0.06051,0.05451 -0.124409,0.105995 -0.196887,0.149862 -0.103947,0.06291 -0.209576,0.110834 -0.316259,0.14366 -0.103947,0.03283 -0.199787,0.04769 -0.287321,0.04496 -0.117624,0 -0.205071,-0.02746 -0.262517,-0.08217 -0.05745,-0.05471 -0.0863,-0.13796 -0.0863,-0.250114 v -0.172599 c 0,-0.09574 0.02326,-0.169719 0.06976,-0.221692 0.04924,-0.05471 0.126013,-0.08305 0.22996,-0.08578 z m 1.948717,0.577225 c -0.03556,0 -0.06162,0.0084 -0.07803,0.02481 -0.01641,0.01641 -0.02481,0.04247 -0.02481,0.07803 v 0.233578 c 0,0.03829 0.0084,0.06575 0.02481,0.08216 0.01641,0.01368 0.04247,0.02067 0.07803,0.02067 h 0.09043 c 0.03829,0 0.06384,-0.007 0.07752,-0.02067 0.01641,-0.01641 0.02481,-0.04387 0.02481,-0.08216 v -0.233578 c 0,-0.03556 -0.0084,-0.06162 -0.02481,-0.07803 -0.01368,-0.01641 -0.03922,-0.02481 -0.07752,-0.02481 z" />
    <g
       id="g883"
       transform="translate(-0.78625474)">
      <path
         id="path2765"
         style="font-style:normal;font-variant:normal;font-weight:normal;font-stretch:normal;font-size:3.52778px;line-height:1.25;font-family:'Exo 2';-inkscape-font-specification:'Exo 2, @wght=400';font-variant-ligatures:normal;font-variant-caps:normal;font-variant-numeric:normal;font-variant-east-asian:normal;font-variation-settings:'wght' 400;letter-spacing:-0.221509px;fill:#000000;fill-opacity:1;stroke:none;stroke-width:1.39533"
         d="m 242.72461,146.00586 c -0.45333,0 -0.84972,0.005 -1.1875,0.0137 -0.32889,0 -0.63548,0.009 -0.91992,0.0273 -0.27556,0.009 -0.56975,0.0309 -0.88086,0.0664 v 9.19922 c 0.34666,0.0266 0.68,0.0505 1,0.0684 0.32,0.0179 0.66768,0.0254 1.04101,0.0254 0.38223,0.009 0.83493,0.0137 1.35938,0.0137 0.70222,0 1.26669,-0.0659 1.69336,-0.19922 0.43556,-0.14222 0.75171,-0.3877 0.94726,-0.73437 0.19556,-0.34667 0.29297,-0.83569 0.29297,-1.4668 0,-0.73778 -0.1385,-1.31464 -0.41406,-1.73242 -0.26667,-0.41779 -0.74134,-0.65849 -1.42578,-0.7207 v -0.0527 c 0.55111,-0.0533 0.94555,-0.25294 1.18555,-0.59961 0.24889,-0.34667 0.375,-0.85003 0.375,-1.50781 0,-0.63111 -0.1022,-1.12013 -0.30664,-1.4668 -0.19556,-0.34666 -0.5165,-0.58541 -0.96094,-0.71875 -0.44445,-0.14221 -1.04328,-0.21484 -1.79883,-0.21484 z m 17.92773,0.0547 c -0.2311,0 -0.34765,0.11459 -0.34765,0.3457 v 0.75977 c 0,0.2311 0.11655,0.34765 0.34765,0.34765 h 0.53321 c 0.22221,0 0.33398,-0.11655 0.33398,-0.34765 v -0.75977 c 0,-0.23111 -0.11177,-0.3457 -0.33398,-0.3457 z m 2.46875,0 c -0.2311,0 -0.3457,0.11459 -0.3457,0.3457 v 0.75977 c 0,0.2311 0.1146,0.34765 0.3457,0.34765 h 0.53321 c 0.2311,0 0.34765,-0.11655 0.34765,-0.34765 v -0.75977 c 0,-0.23111 -0.11655,-0.3457 -0.34765,-0.3457 z m 12.48829,0 c -0.23111,0 -0.34571,0.11459 -0.34571,0.3457 v 0.75977 c 0,0.2311 0.1146,0.34765 0.34571,0.34765 h 0.5332 c 0.2311,0 0.34765,-0.11655 0.34765,-0.34765 v -0.75977 c 0,-0.23111 -0.11655,-0.3457 -0.34765,-0.3457 z m -2.8418,0.0527 v 7.30664 c 0,0.67556 -0.34768,1.01367 -1.04102,1.01367 h -0.66601 l -0.13282,0.82618 c 0.0978,0.0356 0.21717,0.0671 0.35938,0.0937 0.15111,0.0267 0.30202,0.0439 0.45312,0.0527 0.16001,0.0179 0.29851,0.0273 0.41407,0.0273 0.57778,0 1.01809,-0.17286 1.32031,-0.51953 0.31111,-0.34666 0.46484,-0.85765 0.46484,-1.5332 v -7.26758 z m -31.27149,0.89258 h 1.17383 c 0.49778,0 0.88939,0.0411 1.17383,0.12109 0.29333,0.08 0.50251,0.23092 0.62695,0.45313 0.12445,0.22222 0.18555,0.54316 0.18555,0.96094 0,0.40889 -0.0563,0.72787 -0.17187,0.95898 -0.11556,0.22222 -0.30756,0.3779 -0.57422,0.4668 -0.25778,0.0801 -0.60829,0.12399 -1.05274,0.13281 h -1.97461 v -3.08399 c 0.19556,-0.004 0.38217,-0.01 0.61328,-0.01 z m 8.2168,1.6543 c -0.69333,0 -1.26259,0.10697 -1.70703,0.32031 -0.43555,0.20444 -0.75932,0.55495 -0.97266,1.05273 -0.20444,0.48889 -0.30664,1.16034 -0.30664,2.01368 0,0.82666 0.1022,1.49333 0.30664,2 0.21334,0.49778 0.54667,0.86264 1,1.09374 0.45333,0.22222 1.05412,0.33204 1.80078,0.33204 0.24889,0 0.52874,-0.0124 0.83985,-0.0391 0.32,-0.0267 0.62659,-0.0658 0.91992,-0.11914 0.30222,-0.0533 0.55532,-0.12117 0.75977,-0.20117 l -0.1211,-0.75976 c -0.32889,0.0444 -0.70136,0.0836 -1.11914,0.11914 -0.40889,0.0267 -0.78615,0.041 -1.13281,0.041 -0.49778,0 -0.89895,-0.0678 -1.20117,-0.20117 -0.30221,-0.13333 -0.52378,-0.38165 -0.66602,-0.74609 -0.0869,-0.23741 -0.13574,-0.57031 -0.16601,-0.94727 h 3.00585 c 0.54222,0 0.93861,-0.15851 1.1875,-0.47852 0.24882,-0.32888 0.3682,-0.78354 0.35938,-1.36132 0,-0.70222 -0.22157,-1.23039 -0.66602,-1.58594 -0.43555,-0.35556 -1.14331,-0.5332 -2.12109,-0.5332 z m 7.60352,0 c -0.48889,0 -0.9827,0.11177 -1.48047,0.33398 -0.47264,0.20256 -0.94904,0.49068 -1.42969,0.85352 l -0.0762,-1.02735 h -0.96094 v 6.49219 h 1.13281 v -4.66602 c 0.49356,-0.29871 0.94003,-0.55319 1.30664,-0.73242 0.4,-0.19555 0.80118,-0.29492 1.20118,-0.29492 0.33778,0 0.57653,0.085 0.71875,0.25391 0.14221,0.16 0.21484,0.45897 0.21484,0.89453 v 4.54492 h 1.13281 v -4.86523 c 0,-1.19112 -0.58643,-1.78711 -1.75976,-1.78711 z m 10.59375,0 c -0.69334,0 -1.26064,0.10697 -1.70508,0.32031 -0.43555,0.20444 -0.76127,0.55495 -0.97461,1.05273 -0.20445,0.48889 -0.30664,1.16034 -0.30664,2.01368 0,0.82666 0.10219,1.49333 0.30664,2 0.21333,0.49778 0.54666,0.86264 1,1.09374 0.45333,0.22222 1.05411,0.33204 1.80078,0.33204 0.24889,0 0.52873,-0.0124 0.83984,-0.0391 0.32,-0.0267 0.62659,-0.0658 0.91993,-0.11914 0.30222,-0.0533 0.55531,-0.12117 0.75976,-0.20117 l -0.11914,-0.75976 c -0.32889,0.0444 -0.70331,0.0836 -1.12109,0.11914 -0.40889,0.0267 -0.78615,0.041 -1.13282,0.041 -0.49777,0 -0.89699,-0.0678 -1.19921,-0.20117 -0.30224,-0.13333 -0.52576,-0.38165 -0.66797,-0.74609 -0.0869,-0.23741 -0.13574,-0.57031 -0.16602,-0.94727 h 3.00586 c 0.54222,0 0.93861,-0.15851 1.1875,-0.47852 0.24882,-0.32888 0.36819,-0.78354 0.35938,-1.36132 0,-0.70222 -0.22158,-1.23039 -0.66602,-1.58594 -0.43556,-0.35556 -1.14331,-0.5332 -2.12109,-0.5332 z m 12.88867,0 c -0.32,0 -0.66573,0.0124 -1.03906,0.0391 -0.37334,0.0267 -0.74298,0.063 -1.10743,0.10742 -0.35555,0.0445 -0.6841,0.0931 -0.98632,0.14648 l 0.10742,0.83985 c 0.49778,-0.0444 0.99919,-0.0836 1.50586,-0.11914 0.51555,-0.0356 0.94151,-0.0547 1.27929,-0.0547 0.51555,0 0.86323,0.0898 1.04102,0.26758 0.18666,0.16889 0.2793,0.45351 0.2793,0.85351 v 0.57227 h -2.70703 c -0.56889,0 -1.01204,0.14329 -1.33204,0.42773 -0.31111,0.27556 -0.46679,0.66717 -0.46679,1.17383 v 0.70508 c 0,0.39111 0.0802,0.72445 0.24023,1 0.16889,0.26668 0.40003,0.47107 0.69336,0.61328 0.29333,0.13334 0.63145,0.20117 1.01367,0.20117 0.35556,0 0.68411,-0.0487 0.98633,-0.14648 0.31111,-0.10667 0.59095,-0.23561 0.83984,-0.38672 0.25777,-0.16 0.47456,-0.32047 0.65235,-0.48047 0.087,-0.0787 0.13151,-0.136 0.19922,-0.20508 l 0.13476,1.09766 h 0.89258 v -4.57227 c 0,-0.52444 -0.0831,-0.93801 -0.25195,-1.24023 -0.16889,-0.30222 -0.42394,-0.51618 -0.76172,-0.64062 -0.32889,-0.13335 -0.73289,-0.19922 -1.21289,-0.19922 z m 6.16406,0 c -0.73778,0 -1.33377,0.11177 -1.78711,0.33398 -0.44444,0.22222 -0.77016,0.58513 -0.97461,1.0918 -0.19555,0.49778 -0.29297,1.16161 -0.29297,1.98828 0,0.82667 0.0974,1.49333 0.29297,2 0.20445,0.49779 0.53017,0.85787 0.97461,1.08008 0.45334,0.22221 1.04933,0.33203 1.78711,0.33203 0.74667,0 1.34071,-0.10982 1.78516,-0.33203 0.45333,-0.22222 0.77905,-0.5823 0.97461,-1.08008 0.19555,-0.50667 0.29296,-1.17333 0.29296,-2 10e-6,-0.82667 -0.0974,-1.4905 -0.29296,-1.98828 -0.19556,-0.50668 -0.52128,-0.86959 -0.97461,-1.0918 -0.44445,-0.22221 -1.03849,-0.33398 -1.78516,-0.33398 z m -26.61719,0.16015 v 6.65235 c 0,0.41778 -0.0631,0.78742 -0.1875,1.10742 -0.11555,0.32 -0.30081,0.63615 -0.55859,0.94726 l 0.625,0.49219 c 0.25779,-0.19555 0.48131,-0.42669 0.66797,-0.69336 0.18668,-0.25777 0.32802,-0.54523 0.42578,-0.86523 0.10666,-0.31112 0.16016,-0.64162 0.16016,-0.98828 v -6.65235 z m 2.48242,0 v 6.49219 h 1.11915 v -6.49219 z m 12.48829,0 v 6.49219 h 1.11914 v -6.49219 z m 11.64648,0.79883 c 0.47111,0 0.84359,0.0774 1.11914,0.22852 0.27556,0.14222 0.47039,0.39053 0.58594,0.74609 0.11555,0.35556 0.17383,0.84936 0.17383,1.48047 0,0.63111 -0.0583,1.12296 -0.17383,1.47851 -0.11556,0.35556 -0.31038,0.60866 -0.58594,0.75977 -0.27555,0.14224 -0.64803,0.21484 -1.11914,0.21484 -0.47111,0 -0.84554,-0.0726 -1.12109,-0.21484 -0.26667,-0.15111 -0.45672,-0.40421 -0.57227,-0.75977 -0.11555,-0.35555 -0.17383,-0.8474 -0.17383,-1.47851 0,-0.63111 0.0583,-1.12491 0.17383,-1.48047 0.11556,-0.35557 0.3056,-0.60388 0.57227,-0.74609 0.27555,-0.15111 0.64998,-0.22852 1.12109,-0.22852 z m -37.19727,0.002 c 0.57778,0 0.98657,0.0879 1.22657,0.26563 0.24007,0.17778 0.36618,0.4748 0.375,0.89258 0,0.23999 -0.0459,0.46352 -0.13477,0.66797 -0.0889,0.19555 -0.27893,0.29296 -0.57226,0.29296 h -2.73438 c 0.0134,-0.48851 0.0555,-0.89942 0.14649,-1.1875 0.11555,-0.34665 0.30755,-0.5854 0.57421,-0.71875 0.27556,-0.14221 0.64803,-0.21289 1.11914,-0.21289 z m 18.19922,0 c 0.57778,0 0.98657,0.0879 1.22657,0.26563 0.24007,0.17778 0.36422,0.4748 0.37304,0.89258 0,0.23999 -0.0439,0.46352 -0.13281,0.66797 -0.0889,0.19555 -0.28088,0.29296 -0.57422,0.29296 h -2.73437 c 0.0134,-0.48851 0.0575,-0.89942 0.14843,-1.1875 0.11556,-0.34665 0.3056,-0.5854 0.57227,-0.71875 0.27556,-0.14221 0.64998,-0.21289 1.12109,-0.21289 z m -27.08203,1.37305 h 1.98828 c 0.50667,0.009 0.90589,0.0652 1.19922,0.17188 0.29333,0.10666 0.50251,0.28909 0.62696,0.54687 0.12444,0.25778 0.18554,0.62742 0.18554,1.10742 0,0.43556 -0.0611,0.7689 -0.18554,1 -0.11556,0.23111 -0.31517,0.39158 -0.59961,0.48047 -0.27556,0.08 -0.6576,0.11914 -1.14649,0.11914 -0.72889,0 -1.36881,-0.005 -1.91992,-0.0137 -0.0727,-0.001 -0.082,-0.003 -0.14844,-0.004 z m 40.9961,1.17383 v 1.31445 c -0.16913,0.15113 -0.34579,0.28977 -0.53321,0.4043 -0.32,0.19554 -0.63898,0.34166 -0.95898,0.43945 -0.31111,0.0889 -0.59095,0.13477 -0.83984,0.13477 -0.35556,0 -0.61344,-0.0774 -0.77344,-0.22852 -0.16,-0.16 -0.24024,-0.40832 -0.24024,-0.74609 v -0.41211 c 0,-0.27556 0.0611,-0.48952 0.18555,-0.64063 0.12444,-0.16007 0.34318,-0.24508 0.6543,-0.2539 z m -42.14258,13.9082 v 9.02539 c 0.21333,0.08 0.44446,0.15068 0.69336,0.21289 0.25778,0.0533 0.52044,0.0992 0.78711,0.13477 0.26666,0.0444 0.52933,0.0759 0.78711,0.0937 0.25779,0.0179 0.49849,0.0254 0.7207,0.0254 0.56,0 1.02032,-0.0707 1.38477,-0.21289 0.37332,-0.15111 0.66751,-0.3679 0.88085,-0.65235 0.22222,-0.29333 0.37791,-0.6534 0.4668,-1.08007 0.0978,-0.42667 0.14649,-0.92047 0.14649,-1.48047 0,-1.21778 -0.19005,-2.08406 -0.57227,-2.59961 -0.38222,-0.52445 -0.97343,-0.78711 -1.77344,-0.78711 -0.30222,0 -0.60598,0.0487 -0.9082,0.14648 -0.30222,0.0978 -0.59446,0.2439 -0.87891,0.43946 -0.24305,0.16465 -0.48261,0.37451 -0.71875,0.61523 0.0518,-0.23586 0.0831,-0.46805 0.0918,-0.69531 0.0179,-0.23111 0.0273,-0.48421 0.0273,-0.75977 v -2.42578 z m 60.19922,0 v 2 c 0,0.25779 0.005,0.50132 0.0137,0.73242 0.007,0.17662 0.0284,0.36378 0.0508,0.55079 -0.33774,-0.18808 -0.68592,-0.33654 -1.05078,-0.42969 -0.41778,-0.11556 -0.84091,-0.17383 -1.26758,-0.17383 -0.55111,0 -1.0086,0.10697 -1.37305,0.32031 -0.36443,0.21334 -0.63471,0.56863 -0.8125,1.06641 -0.17776,0.48889 -0.26757,1.15555 -0.26757,2 0,1.12889 0.17286,1.98277 0.51953,2.56054 0.35555,0.57778 0.94394,0.86524 1.76172,0.86524 0.52444,0 1.01151,-0.1146 1.46484,-0.3457 0.40896,-0.2085 0.77413,-0.46194 1.10351,-0.75 l 0.11133,0.93554 h 0.87891 v -9.33203 z m 9.16601,0 v 7.79883 c 0,0.53333 0.14134,0.94212 0.42578,1.22656 0.29334,0.28445 0.68016,0.42774 1.16016,0.42774 0.10667,0 0.23561,-0.009 0.38672,-0.0274 0.15999,-0.009 0.31089,-0.0261 0.45312,-0.0527 0.15111,-0.0267 0.26766,-0.0582 0.34766,-0.0937 l -0.13477,-0.86719 h -0.625 c -0.28444,0 -0.50796,-0.0707 -0.66796,-0.21289 -0.15111,-0.15111 -0.22657,-0.3679 -0.22657,-0.65234 l 0.0137,-7.54688 z m -48.96875,0.0801 c -0.2311,0 -0.34765,0.1146 -0.34765,0.3457 v 0.75977 c 0,0.2311 0.11655,0.34766 0.34765,0.34766 h 0.53321 c 0.22221,-10e-6 0.33203,-0.11656 0.33203,-0.34766 v -0.75977 c 0,-0.2311 -0.10982,-0.3457 -0.33203,-0.3457 z m 2.46875,0 c -0.2311,0 -0.34765,0.1146 -0.34765,0.3457 v 0.75977 c 0,0.2311 0.11655,0.34766 0.34765,0.34766 h 0.53321 c 0.2311,-10e-6 0.34765,-0.11656 0.34765,-0.34766 v -0.75977 c 0,-0.2311 -0.11655,-0.3457 -0.34765,-0.3457 z m -13.4082,2.59961 c -0.69333,0 -1.26259,0.10697 -1.70703,0.32031 -0.43555,0.20445 -0.75932,0.55496 -0.97266,1.05274 -0.20445,0.48889 -0.30664,1.16033 -0.30664,2.01367 0,0.82666 0.10219,1.49333 0.30664,2 0.21333,0.49778 0.54667,0.86264 1,1.09375 0.45334,0.22221 1.05216,0.33203 1.79883,0.33203 0.24889,0 0.52873,-0.0124 0.83984,-0.0391 0.32,-0.0267 0.62659,-0.0678 0.91993,-0.1211 0.30222,-0.0533 0.55727,-0.11922 0.76171,-0.19922 l -0.12109,-0.75976 c -0.32889,0.0445 -0.70136,0.0836 -1.11914,0.11914 -0.40889,0.0267 -0.7881,0.041 -1.13477,0.041 -0.49777,0 -0.89699,-0.0678 -1.19921,-0.20118 -0.30224,-0.13333 -0.52381,-0.38165 -0.66602,-0.74609 -0.0869,-0.2374 -0.13574,-0.57032 -0.16602,-0.94727 h 3.00586 c 0.54222,0 0.93666,-0.15851 1.18555,-0.47851 0.24882,-0.32889 0.37015,-0.78355 0.36133,-1.36133 0,-0.70222 -0.22353,-1.23038 -0.66797,-1.58594 -0.43556,-0.35555 -1.14136,-0.5332 -2.11914,-0.5332 z m 7.60352,0 c -0.48889,0 -0.98269,0.11177 -1.48047,0.33398 -0.47225,0.2024 -0.94944,0.49112 -1.42969,0.85352 l -0.0781,-1.02734 h -0.95898 v 6.49218 h 1.13281 v -4.66601 c 0.49356,-0.29871 0.94003,-0.55319 1.30664,-0.73242 0.4,-0.19556 0.80117,-0.29493 1.20117,-0.29493 0.33779,0 0.57654,0.085 0.71875,0.25391 0.14222,0.16 0.2129,0.45702 0.2129,0.89258 v 4.54687 h 1.13476 v -4.86523 c 0,-1.19111 -0.58643,-1.78711 -1.75976,-1.78711 z m 10.99414,0 c -0.32,0 -0.66769,0.0124 -1.04102,0.0391 -0.37333,0.0267 -0.74102,0.063 -1.10547,0.10742 -0.35555,0.0444 -0.6841,0.0931 -0.98633,0.14649 l 0.10547,0.83984 c 0.49778,-0.0444 1.00115,-0.0836 1.50781,-0.11914 0.51556,-0.0356 0.94152,-0.0547 1.2793,-0.0547 0.51557,0 0.86325,0.0898 1.04102,0.26758 0.18666,0.16889 0.27929,0.45352 0.27929,0.85352 v 0.57226 h -2.70703 c -0.56889,0 -1.01398,0.14329 -1.33398,0.42774 -0.31111,0.27555 -0.46485,0.66716 -0.46485,1.17383 v 0.70507 c 0,0.39111 0.0783,0.72445 0.23829,1 0.16889,0.26668 0.40002,0.47107 0.69336,0.61328 0.29333,0.13335 0.63144,0.20118 1.01367,0.20118 0.35555,0 0.6841,-0.0487 0.98633,-0.14649 0.3111,-0.10667 0.5929,-0.23561 0.84179,-0.38672 0.25777,-0.16 0.47456,-0.32047 0.65235,-0.48047 0.0872,-0.0789 0.1314,-0.13586 0.19921,-0.20507 l 0.13477,1.09765 h 0.89258 v -4.57226 c 0,-0.52445 -0.085,-0.93802 -0.25391,-1.24024 -0.16889,-0.30222 -0.42198,-0.51617 -0.75976,-0.64062 -0.32889,-0.13334 -0.73289,-0.19922 -1.21289,-0.19922 z m 6.1621,0 c -0.73777,0 -1.33182,0.11177 -1.78515,0.33398 -0.44444,0.22223 -0.77016,0.58513 -0.97461,1.0918 -0.19555,0.49778 -0.29297,1.16162 -0.29297,1.98828 0,0.82667 0.0974,1.49334 0.29297,2 0.20444,0.49779 0.53016,0.85592 0.97461,1.07813 0.45333,0.22221 1.04738,0.33398 1.78515,0.33398 0.74667,0 1.34267,-0.11177 1.78711,-0.33398 0.45334,-0.22222 0.77711,-0.58035 0.97266,-1.07813 0.19555,-0.50666 0.29492,-1.17333 0.29492,-2 0,-0.82666 -0.0994,-1.4905 -0.29492,-1.98828 -0.19556,-0.50665 -0.51932,-0.86956 -0.97266,-1.0918 -0.44444,-0.22221 -1.04044,-0.33398 -1.78711,-0.33398 z m 7.64258,0 c -0.46222,0 -0.91493,0.10697 -1.35937,0.32031 -0.41897,0.19273 -0.8503,0.48879 -1.29297,0.8711 l -0.0664,-1.03125 h -0.93359 v 6.49218 h 1.13281 v -4.6914 c 0.29764,-0.21507 0.5741,-0.40994 0.78711,-0.54688 0.25778,-0.16 0.48891,-0.27655 0.69336,-0.34765 0.21334,-0.0711 0.43013,-0.10743 0.65234,-0.10743 0.33778,0 0.59283,0.0898 0.76172,0.26758 0.1689,0.16889 0.25196,0.46113 0.25196,0.87891 v 4.54687 h 1.09375 v -4.68164 c 0.29672,-0.21279 0.57088,-0.40592 0.78711,-0.54492 0.24888,-0.16 0.47524,-0.2746 0.67968,-0.3457 0.21334,-0.08 0.43491,-0.1211 0.66602,-0.1211 0.36445,0 0.62233,0.0946 0.77344,0.28125 0.15118,0.17778 0.23141,0.46524 0.24023,0.86524 v 4.54687 h 1.12109 v -4.86523 c 0,-0.58667 -0.15285,-1.03176 -0.45507,-1.33399 -0.29334,-0.30222 -0.7193,-0.45312 -1.2793,-0.45312 -0.45333,0 -0.90126,0.10697 -1.3457,0.32031 -0.41025,0.18872 -0.83461,0.47913 -1.26758,0.84961 -0.0729,-0.29372 -0.19308,-0.53683 -0.37305,-0.7168 -0.29333,-0.30222 -0.71647,-0.45312 -1.26758,-0.45312 z m 9.9375,0 c -0.73778,0 -1.33377,0.11177 -1.78711,0.33398 -0.44444,0.22223 -0.76821,0.58513 -0.97265,1.0918 -0.19556,0.49778 -0.29492,1.16162 -0.29492,1.98828 0,0.82667 0.0994,1.49334 0.29492,2 0.20444,0.49779 0.52821,0.85592 0.97265,1.07813 0.45334,0.22221 1.04933,0.33398 1.78711,0.33398 0.74667,0 1.34267,-0.11177 1.78711,-0.33398 0.45334,-0.22222 0.77711,-0.58035 0.97266,-1.07813 0.19555,-0.50666 0.29297,-1.17333 0.29297,-2 0,-0.82666 -0.0974,-1.4905 -0.29297,-1.98828 -0.19556,-0.50665 -0.51932,-0.86956 -0.97266,-1.0918 -0.44444,-0.22221 -1.04044,-0.33398 -1.78711,-0.33398 z m 23.74414,0 c -0.32,0 -0.66768,0.0124 -1.04101,0.0391 -0.37333,0.0267 -0.74103,0.063 -1.10547,0.10742 -0.35556,0.0444 -0.68411,0.0931 -0.98633,0.14649 l 0.10547,0.83984 c 0.49778,-0.0444 1.00115,-0.0836 1.50781,-0.11914 0.51556,-0.0356 0.94152,-0.0547 1.2793,-0.0547 0.51554,0 0.86323,0.0898 1.04101,0.26758 0.18666,0.16889 0.2793,0.45352 0.2793,0.85352 v 0.57226 h -2.70703 c -0.56889,0 -1.01398,0.14329 -1.33398,0.42774 -0.31111,0.27555 -0.46485,0.66716 -0.46485,1.17383 v 0.70507 c 0,0.39111 0.0783,0.72445 0.23828,1 0.16889,0.26668 0.40003,0.47107 0.69336,0.61328 0.29334,0.13335 0.63145,0.20118 1.01368,0.20118 0.35555,0 0.6841,-0.0487 0.98632,-0.14649 0.31111,-0.10667 0.59095,-0.23561 0.83985,-0.38672 0.25776,-0.16 0.4765,-0.32047 0.65429,-0.48047 0.0872,-0.0789 0.13141,-0.13586 0.19922,-0.20507 l 0.13477,1.09765 h 0.89258 v -4.57226 c 0,-0.52445 -0.085,-0.93802 -0.25391,-1.24024 -0.16889,-0.30222 -0.42199,-0.51617 -0.75977,-0.64062 -0.32889,-0.13334 -0.73289,-0.19922 -1.21289,-0.19922 z m 7.18946,0 c -0.45334,0 -0.92518,0.11177 -1.41407,0.33398 -0.45253,0.20951 -0.90489,0.49976 -1.35742,0.85938 l -0.12109,-1.0332 h -0.88086 v 6.49218 h 1.13281 v -4.74804 c 0.49124,-0.24996 0.93146,-0.45938 1.28125,-0.59766 0.38223,-0.16 0.76427,-0.24023 1.14649,-0.24023 h 0.37304 l 0.13282,-1.06641 z m -62.64063,0.16016 v 6.65234 c 0,0.41778 -0.063,0.78742 -0.1875,1.10742 -0.11555,0.32 -0.30277,0.63616 -0.56055,0.94727 l 0.62696,0.49218 c 0.25778,-0.19555 0.47936,-0.42669 0.66601,-0.69335 0.18666,-0.25778 0.32995,-0.54719 0.42774,-0.86719 0.10666,-0.31111 0.16015,-0.63966 0.16015,-0.98633 v -6.65234 z m 2.48242,0 v 6.49218 h 1.11914 v -6.49218 z m 39.97657,0 v 4.8789 c 0,1.19111 0.59121,1.78711 1.77343,1.78711 0.48889,0 0.96835,-0.10219 1.43946,-0.30664 0.44071,-0.18771 0.89423,-0.46775 1.35742,-0.82031 l 0.082,0.95312 h 0.9082 v -6.49218 h -1.13476 v 4.73632 c -0.44777,0.28573 -0.85487,0.52816 -1.18555,0.68946 -0.35556,0.16889 -0.71563,0.2539 -1.08008,0.2539 -0.37333,0 -0.64078,-0.085 -0.80078,-0.2539 -0.15992,-0.16889 -0.23538,-0.45635 -0.22656,-0.86524 v -4.56054 z m -53.03907,0.79882 c 0.57778,0 0.98657,0.0898 1.22657,0.26758 0.24007,0.17778 0.36422,0.4748 0.37304,0.89258 0,0.24 -0.0439,0.46352 -0.13281,0.66797 -0.0889,0.19555 -0.27893,0.29297 -0.57227,0.29297 h -2.73632 c 0.0134,-0.48853 0.0575,-0.89942 0.14843,-1.1875 0.11556,-0.34666 0.30756,-0.58541 0.57422,-0.71875 0.27556,-0.14221 0.64803,-0.21485 1.11914,-0.21485 z m 24.70703,0 c 0.47112,0 0.84554,0.0755 1.1211,0.22657 0.27556,0.14222 0.47038,0.39249 0.58594,0.74804 0.11555,0.35556 0.17382,0.84936 0.17382,1.48047 0,0.63111 -0.0583,1.12296 -0.17382,1.47852 -0.11556,0.35556 -0.31039,0.60866 -0.58594,0.75976 -0.27556,0.14224 -0.64998,0.21485 -1.1211,0.21485 -0.47111,0 -0.84358,-0.0726 -1.11914,-0.21485 -0.26667,-0.15111 -0.45866,-0.40421 -0.57421,-0.75976 -0.11556,-0.35556 -0.17188,-0.84741 -0.17188,-1.47852 0,-0.63111 0.0563,-1.12491 0.17188,-1.48047 0.11555,-0.35556 0.30755,-0.60583 0.57421,-0.74804 0.27556,-0.15111 0.64803,-0.22657 1.11914,-0.22657 z m 17.58008,0 c 0.47111,0 0.84359,0.0755 1.11914,0.22657 0.27556,0.14222 0.47234,0.39249 0.58789,0.74804 0.11556,0.35556 0.17188,0.84936 0.17188,1.48047 0,0.63111 -0.0563,1.12296 -0.17188,1.47852 -0.11555,0.35556 -0.31233,0.60866 -0.58789,0.75976 -0.27555,0.14224 -0.64803,0.21485 -1.11914,0.21485 -0.47111,0 -0.84554,-0.0726 -1.12109,-0.21485 -0.26667,-0.15111 -0.45671,-0.40421 -0.57227,-0.75976 -0.11555,-0.35556 -0.17382,-0.84741 -0.17382,-1.47852 0,-0.63111 0.0583,-1.12491 0.17382,-1.48047 0.11556,-0.35556 0.3056,-0.60583 0.57227,-0.74804 0.27555,-0.15111 0.64998,-0.22657 1.12109,-0.22657 z m -48.67578,0.0273 c 0.41779,0 0.73678,0.0755 0.95899,0.22656 0.2311,0.15111 0.39157,0.40421 0.48047,0.75977 0.0889,0.34666 0.13281,0.8185 0.13281,1.41406 0,0.61333 -0.0563,1.10235 -0.17188,1.4668 -0.11555,0.35556 -0.30277,0.60866 -0.56054,0.75976 -0.24889,0.15118 -0.58223,0.23142 -1,0.24024 -0.20446,-10e-6 -0.4232,-0.005 -0.6543,-0.0137 -0.22222,-0.0178 -0.45336,-0.0493 -0.69336,-0.0937 -0.15815,-0.0304 -0.32012,-0.0762 -0.48242,-0.11914 l -0.008,-3.66015 c 0.3617,-0.27831 0.69993,-0.52159 0.98437,-0.6875 0.32,-0.19556 0.65812,-0.29297 1.01367,-0.29297 z m 55.0918,0 c 0.36444,0 0.70539,0.0363 1.02539,0.10742 0.27765,0.0617 0.60968,0.15205 0.96094,0.25391 v 3.57812 c -0.25278,0.17937 -0.49515,0.34981 -0.69336,0.47461 -0.23111,0.15113 -0.45268,0.26093 -0.66602,0.33203 -0.20444,0.0622 -0.43558,0.0937 -0.69336,0.0937 -0.34668,0 -0.6313,-0.0707 -0.85351,-0.21289 -0.22223,-0.14222 -0.38749,-0.39054 -0.49414,-0.74609 -0.0978,-0.35556 -0.14649,-0.85414 -0.14649,-1.49414 0,-0.64 0.0535,-1.1338 0.16016,-1.48047 0.10668,-0.34667 0.27193,-0.58259 0.49414,-0.70703 0.23111,-0.13335 0.53291,-0.19922 0.90625,-0.19922 z m -29.07813,2.52148 v 1.3125 c -0.16972,0.15188 -0.34503,0.29126 -0.5332,0.40625 -0.32,0.19555 -0.64094,0.34167 -0.96094,0.43946 -0.3111,0.0889 -0.59095,0.13281 -0.83984,0.13281 -0.35556,0 -0.61344,-0.0755 -0.77344,-0.22657 -0.16,-0.15999 -0.24023,-0.40831 -0.24023,-0.74609 v -0.41406 c 0,-0.27556 0.0631,-0.48757 0.1875,-0.63867 0.12444,-0.16008 0.34318,-0.24509 0.65429,-0.25391 z m 47.48633,0 v 1.3125 c -0.16973,0.15188 -0.34503,0.29126 -0.5332,0.40625 -0.32,0.19555 -0.64094,0.34167 -0.96094,0.43946 -0.3111,0.0889 -0.59095,0.13281 -0.83984,0.13281 -0.35556,0 -0.61344,-0.0755 -0.77344,-0.22657 -0.16,-0.15999 -0.24023,-0.40831 -0.24023,-0.74609 v -0.41406 c 0,-0.27556 0.063,-0.48757 0.1875,-0.63867 0.12444,-0.16008 0.34318,-0.24509 0.65429,-0.25391 z"
         transform="scale(0.26458333)" />
      <g
         id="g1304"
         transform="matrix(0.76788102,0,0,0.76788102,17.382758,12.408881)">
        <path
           d="M 56.985829,33.081256 H 53.37608 c -0.711894,0 -1.289197,0.577302 -1.289197,1.289196 v 3.609749 c 0,0.711894 0.577303,1.289196 1.289197,1.289196 h 3.609749 c 0.712152,0 1.289196,-0.577302 1.289196,-1.289196 v -3.609749 c 0,-0.711894 -0.577044,-1.289196 -1.289196,-1.289196 z m -0.03584,2.38166 c 0.05389,1.190445 -0.833853,2.517801 -2.405641,2.517801 -0.478033,0 -0.922805,-0.140007 -1.297446,-0.380313 0.449156,0.05286 0.89728,-0.07167 1.253098,-0.350404 -0.370514,-0.0069 -0.683015,-0.251651 -0.790535,-0.587873 0.132788,0.02527 0.263254,0.01779 0.382118,-0.01444 -0.407128,-0.08173 -0.687915,-0.448383 -0.678891,-0.840556 0.113965,0.06343 0.24469,0.101589 0.38315,0.105972 -0.376703,-0.251909 -0.483449,-0.749539 -0.261965,-1.130109 0.417442,0.512069 1.041155,0.849064 1.74454,0.884388 -0.123505,-0.529344 0.278466,-1.039092 0.824828,-1.039092 0.243142,0 0.463336,0.10262 0.617524,0.267379 0.192864,-0.0379 0.374126,-0.108292 0.537853,-0.205239 -0.06343,0.197762 -0.197505,0.363553 -0.372062,0.468235 0.171206,-0.02063 0.334418,-0.066 0.486027,-0.133303 -0.113191,0.169143 -0.256807,0.318174 -0.422598,0.437554 z"
           id="path1236"
           style="stroke-width:0.257839" />
        <path
           d="m 47.69658,35.513874 1.375057,0.686368 -1.375057,0.688946 z m 3.60975,-1.117217 v 3.609748 c 0,0.711895 -0.577045,1.289197 -1.289197,1.289197 h -3.609749 c -0.711894,0 -1.289196,-0.577302 -1.289196,-1.289197 v -3.609748 c 0,-0.711895 0.577302,-1.289197 1.289196,-1.289197 h 3.609749 c 0.712152,0 1.289197,0.577302 1.289197,1.289197 z m -1.031358,1.804874 c -0.0052,-1.063071 -0.08328,-1.469684 -0.753664,-1.515321 -0.619587,-0.04228 -1.999285,-0.04203 -2.617841,0 -0.669867,0.04564 -0.748765,0.450445 -0.753922,1.515321 0.0052,1.063071 0.08328,1.469684 0.753664,1.515321 0.618557,0.04203 1.998254,0.04228 2.617842,0 0.669866,-0.04564 0.748765,-0.450445 0.753921,-1.515321 z"
           id="path1269"
           style="stroke-width:0.257839" />
      </g>
      <g
         id="g1300"
         transform="matrix(0.76788102,0,0,0.76788102,22.884833,17.520499)">
        <path
           d="m 41.880583,34.758239 c -0.217359,-0.0098 -0.28285,-0.01186 -0.833594,-0.01186 -0.550745,0 -0.615978,0.002 -0.833336,0.01186 -0.559512,0.02552 -0.820187,0.290584 -0.845455,0.845455 -0.01006,0.217616 -0.01238,0.282849 -0.01238,0.833593 0,0.550745 0.0023,0.615979 0.01212,0.833595 0.02552,0.553838 0.28517,0.819928 0.845455,0.845455 0.217358,0.0098 0.28285,0.01211 0.833595,0.01211 0.551002,0 0.616235,-0.002 0.833593,-0.01186 0.559511,-0.02552 0.819929,-0.2911 0.845455,-0.845455 0.0098,-0.217616 0.01186,-0.282849 0.01186,-0.833593 0,-0.550745 -0.002,-0.615979 -0.01186,-0.833338 -0.02552,-0.555127 -0.286458,-0.820444 -0.845454,-0.845969 z m -0.833594,2.738252 c -0.585038,0 -1.059203,-0.474166 -1.059203,-1.059204 0,-0.585036 0.474423,-1.059203 1.059203,-1.059203 0.584779,0 1.059203,0.474167 1.059203,1.059203 0,0.585038 -0.474165,1.059204 -1.059203,1.059204 z m 1.101231,-1.912652 c -0.136655,0 -0.247526,-0.11087 -0.247526,-0.247526 0,-0.136654 0.110871,-0.247525 0.247526,-0.247525 0.136655,0 0.247526,0.110871 0.247526,0.247525 0,0.136656 -0.110871,0.247526 -0.247526,0.247526 z m -0.413574,0.853448 c 0,0.379798 -0.30786,0.687658 -0.687657,0.687658 -0.379797,0 -0.687658,-0.30786 -0.687658,-0.687658 0,-0.379797 0.307861,-0.687656 0.687658,-0.687656 0.379797,0 0.687657,0.307859 0.687657,0.687656 z m 1.117217,-3.094071 h -3.609748 c -0.711895,0 -1.289197,0.577302 -1.289197,1.289197 v 3.609749 c 0,0.711894 0.577302,1.289196 1.289197,1.289196 h 3.609748 c 0.712152,0 1.289197,-0.577302 1.289197,-1.289196 v -3.609749 c 0,-0.711895 -0.577045,-1.289197 -1.289197,-1.289197 z m 0.245464,3.944425 c -0.03403,0.750055 -0.451477,1.165691 -1.199727,1.199984 -0.220194,0.01006 -0.290326,0.01238 -0.850611,0.01238 -0.560285,0 -0.63016,-0.0023 -0.850354,-0.01238 -0.749796,-0.03429 -1.165434,-0.450703 -1.199984,-1.199984 -0.01006,-0.219937 -0.01238,-0.290069 -0.01238,-0.850354 0,-0.560027 0.0023,-0.630417 0.01238,-0.850354 0.03455,-0.749796 0.450703,-1.165691 1.199984,-1.199725 0.220194,-0.01031 0.290069,-0.01263 0.850354,-0.01263 0.560285,0 0.630417,0.0023 0.850611,0.01238 0.749797,0.03429 1.166208,0.451476 1.199727,1.199726 0.01006,0.220194 0.01238,0.290584 0.01238,0.850611 0,0.560285 -0.0023,0.630417 -0.01238,0.850354 z"
           id="path1247"
           style="stroke-width:0.257839" />
        <path
           d="M 49.820559,33.343216 H 46.21081 c -0.711895,0 -1.289197,0.577302 -1.289197,1.289196 v 3.60975 c 0,0.711894 0.577302,1.289196 1.289197,1.289196 h 3.609749 c 0.712152,0 1.289196,-0.577302 1.289196,-1.289196 v -3.60975 c 0,-0.711894 -0.577044,-1.289196 -1.289196,-1.289196 z m -0.773518,1.804875 h -0.496083 c -0.158571,0 -0.277435,0.06498 -0.277435,0.229219 v 0.286459 h 0.773518 l -0.06137,0.773518 H 48.273518 V 38.5 H 47.5 V 36.437287 H 46.984323 V 35.663769 H 47.5 v -0.495825 c 0,-0.521351 0.274342,-0.793371 0.892382,-0.793371 h 0.654654 z"
           id="path1258"
           style="stroke-width:0.257839" />
        <path
           d="M 35.896099,33.380286 H 32.28635 c -0.711894,0 -1.289196,0.577302 -1.289196,1.289197 v 3.609748 c 0,0.711895 0.577302,1.289197 1.289196,1.289197 h 3.609749 c 0.712153,0 1.289196,-0.577302 1.289196,-1.289197 v -3.609748 c 0,-0.711895 -0.577043,-1.289197 -1.289196,-1.289197 z m -1.15151,5.051071 c -0.104425,0.02011 -0.137686,-0.04409 -0.137686,-0.09901 v -0.565958 c 0,-0.192606 -0.06755,-0.317915 -0.141811,-0.38186 0.459469,-0.05105 0.942144,-0.225608 0.942144,-1.017691 0,-0.225351 -0.08045,-0.409449 -0.212202,-0.553581 0.02115,-0.05209 0.09179,-0.261964 -0.02037,-0.545846 0,0 -0.17301,-0.05544 -0.566731,0.211429 -0.165016,-0.04642 -0.341378,-0.06884 -0.516709,-0.06987 -0.175331,7.72e-4 -0.351693,0.02347 -0.516452,0.06936 -0.393976,-0.26687 -0.567244,-0.211435 -0.567244,-0.211435 -0.111902,0.284139 -0.04125,0.493762 -0.01985,0.546104 -0.132013,0.144389 -0.212459,0.328229 -0.212459,0.55358 0,0.79002 0.481386,0.967155 0.939824,1.019497 -0.05905,0.05157 -0.112417,0.142327 -0.130982,0.275888 -0.117833,0.0526 -0.416153,0.143616 -0.60025,-0.171722 0,0 -0.109066,-0.19802 -0.316369,-0.212717 0,0 -0.201114,-0.0025 -0.01418,0.125568 0,0 0.135366,0.06343 0.229219,0.301672 0,0 0.11938,0.368195 0.693072,0.2434 v 0.383923 c 0,0.05441 -0.03326,0.118348 -0.136139,0.09927 -0.819929,-0.272536 -1.410897,-1.045795 -1.410897,-1.957 0,-1.139392 0.923581,-2.062714 2.062714,-2.062714 1.139134,0 2.062715,0.923322 2.062715,2.062714 0,0.910946 -0.590194,1.683948 -1.40935,1.957 z"
           id="path1280"
           style="stroke-width:0.257839" />
      </g>
    </g>
    <text
       xml:space="preserve"
       id="text1306"
       style="fill:black;fill-opacity:1;line-height:1.25;stroke:none;font-family:sans-serif;font-style:normal;font-weight:normal;font-size:10.58333333px;white-space:pre;shape-inside:url(#rect1308);" />
    <g
       id="g2437"
       transform="translate(-0.97269086,-3.3653222)">
      <g
         transform="matrix(0.00111319,0,0,-0.00111319,66.287537,34.010131)"
         fill="#000000"
         stroke="none"
         id="g1342">
        <path
           d="m 1423,5530 -23,-21 V 4050 c 0,-1447 0,-1460 20,-1480 19,-19 33,-20 338,-20 267,1 320,3 337,16 19,14 20,30 25,537 l 5,522 365,6 c 451,8 563,23 727,99 263,122 423,318 495,606 19,76 22,115 22,269 -1,162 -3,190 -27,280 -79,296 -276,514 -546,605 -147,49 -197,52 -981,57 l -735,4 z m 1246,-620 c 111,-12 170,-36 230,-93 66,-64 91,-125 91,-225 0,-70 -4,-92 -27,-139 -33,-67 -98,-126 -168,-152 -73,-28 -264,-43 -485,-39 l -185,3 -3,315 c -1,173 0,320 3,327 6,16 401,18 544,3 z"
           id="path1330-9" />
        <path
           d="m 5030,5520 c -266,-49 -492,-146 -695,-299 -378,-285 -573,-744 -534,-1255 29,-383 155,-674 399,-916 255,-255 550,-386 947,-421 274,-24 586,28 822,137 108,50 278,166 410,280 116,100 139,132 127,179 -7,27 -335,372 -373,393 -39,21 -73,6 -163,-74 -157,-139 -294,-220 -440,-260 -52,-15 -101,-19 -245,-18 -178,0 -181,0 -277,33 -374,128 -576,432 -554,836 11,213 74,360 220,514 112,117 238,192 391,231 101,26 303,29 415,5 162,-34 333,-128 498,-273 95,-84 116,-93 159,-69 29,16 362,327 374,349 30,56 -11,120 -159,251 -205,181 -459,306 -747,367 -148,32 -431,37 -575,10 z"
           id="path1332-4" />
        <path
           d="m 8963,5508 c 2,-7 168,-658 367,-1445 l 364,-1433 h 397 398 l 12,43 c 6,23 106,421 223,883 116,463 215,842 221,843 5,1 113,-396 240,-883 l 230,-886 h 397 c 381,0 397,1 403,19 10,34 725,2854 725,2863 0,4 -163,8 -362,8 h -363 l -208,-962 c -114,-530 -211,-966 -215,-970 -5,-5 -112,427 -238,959 l -230,968 -359,3 -360,2 -240,-962 c -133,-529 -245,-963 -250,-965 -6,-1 -95,412 -199,920 -104,507 -194,941 -199,965 l -9,42 h -375 c -296,0 -374,-3 -370,-12 z"
           id="path1334-8" />
        <path
           d="M 6640,4066 V 2620 h 638 c 633,0 785,6 935,36 319,64 585,261 678,504 20,51 22,72 20,293 -2,349 -23,431 -140,545 -90,87 -222,158 -358,192 -24,6 -43,16 -43,23 0,7 30,28 68,47 99,51 198,154 251,261 56,114 74,192 74,319 0,128 -20,218 -71,314 -89,171 -273,285 -537,333 -76,14 -198,17 -802,20 l -713,4 z m 1209,900 c 69,-23 139,-91 164,-161 24,-69 23,-179 -3,-248 -26,-69 -69,-113 -150,-151 l -65,-31 -217,-3 -218,-4 v 312 312 l 218,-4 c 169,-4 229,-9 271,-22 z m 131,-1115 c 134,-46 209,-128 230,-253 15,-87 6,-166 -26,-238 -32,-70 -75,-114 -145,-150 -102,-52 -153,-60 -426,-67 l -253,-6 v 373 372 l 278,-4 c 253,-4 283,-7 342,-27 z"
           id="path1336-1" />
        <path
           d="m 13600,4864 c -195,-17 -460,-60 -582,-94 l -38,-11 v -259 -260 h 25 c 14,0 51,11 83,24 83,35 265,92 357,112 163,36 438,17 568,-38 94,-41 163,-148 155,-243 l -3,-40 -150,-12 c -594,-48 -860,-126 -1041,-307 -122,-122 -174,-266 -174,-481 0,-173 37,-297 125,-421 78,-108 198,-193 335,-236 66,-20 94,-23 240,-23 160,1 168,2 259,33 128,44 199,84 306,169 49,40 93,73 98,73 4,0 7,-49 7,-110 v -110 h 335 336 l -3,823 -4,822 -22,75 c -107,347 -402,502 -982,514 -102,2 -205,2 -230,0 z m 570,-1443 v -229 l -42,-37 c -55,-47 -166,-100 -243,-115 -74,-15 -188,-6 -259,20 -99,37 -146,117 -146,245 0,156 84,245 277,294 79,21 278,48 366,50 l 47,1 z"
           id="path1338-2" />
        <path
           d="m 14825,4793 c 4,-10 173,-459 376,-998 203,-539 381,-1008 394,-1043 14,-34 25,-70 25,-80 0,-9 -40,-118 -89,-242 l -89,-225 -48,2 c -27,0 -227,17 -444,37 -888,81 -1570,123 -2530,158 -441,16 -2068,16 -2530,0 -2192,-76 -4733,-327 -7000,-692 -534,-86 -1475,-253 -1515,-269 -16,-6 -26,-41 -61,-208 -35,-170 -39,-200 -25,-197 68,15 1029,195 1321,248 2697,487 5003,769 7320,896 878,47 1304,61 2080,65 800,4 1221,-7 1895,-51 519,-33 1466,-112 1477,-122 3,-4 -14,-58 -38,-121 -24,-62 -44,-117 -44,-122 0,-5 153,-9 359,-9 h 358 l 33,87 c 18,49 36,92 40,96 4,5 198,-8 431,-27 233,-19 495,-40 581,-47 l 157,-12 42,31 c 40,30 40,31 18,36 -21,5 -315,40 -989,119 -128,15 -194,27 -193,34 1,6 221,602 489,1325 268,722 489,1321 492,1331 4,16 -17,17 -336,17 -262,0 -343,-3 -349,-12 -4,-7 -102,-313 -218,-680 -115,-367 -214,-667 -220,-667 -5,0 -25,43 -42,97 -18,53 -121,359 -229,680 l -196,582 h -355 c -334,0 -355,-1 -348,-17 z"
           id="path1340-9" />
      </g>
      <g
         aria-label="made with the help of"
         id="text898-8-4"
         style="font-style:normal;font-weight:normal;font-size:14.7672px;line-height:1.25;font-family:sans-serif;letter-spacing:-0.15875px;fill:#000000;fill-opacity:1;stroke:none;stroke-width:0.369182">
        <path
           d="m 69.106878,26.362189 q 0.13335,0 0.2032,0.07197 0.07197,0.07197 0.07197,0.211667 v 0.772584 h -0.177801 v -0.721784 q -0.0021,-0.09525 -0.0381,-0.137584 -0.03598,-0.04445 -0.122766,-0.04445 -0.05503,0 -0.105834,0.01905 -0.04868,0.01693 -0.10795,0.05503 -0.05927,0.0381 -0.143934,0.09948 l -0.01058,-0.127 q 0.112183,-0.09948 0.218017,-0.148167 0.105833,-0.0508 0.213784,-0.0508 z m -1.107019,0.0254 0.0127,0.196851 0.01905,0.03175 v 0.802217 h -0.179917 v -1.030818 z m 0.431801,-0.0254 q 0.131233,0 0.201084,0.07197 0.06985,0.06985 0.07197,0.211667 v 0.772584 h -0.173567 v -0.721784 q 0,-0.09948 -0.04022,-0.1397 -0.04022,-0.04233 -0.120651,-0.04233 -0.05292,0 -0.103716,0.01693 -0.04868,0.01693 -0.110067,0.05503 -0.05927,0.0381 -0.14605,0.1016 l -0.0127,-0.127 q 0.112183,-0.09948 0.218017,-0.148167 0.105833,-0.0508 0.2159,-0.0508 z"
           style="font-style:normal;font-variant:normal;font-weight:normal;font-stretch:normal;font-size:2.11667px;font-family:'Exo 2';-inkscape-font-specification:'Exo 2, @wght=400';font-variant-ligatures:normal;font-variant-caps:normal;font-variant-numeric:normal;font-variant-east-asian:normal;font-variation-settings:'wght' 400;stroke-width:0.369182"
           id="path3632" />
        <path
           d="m 70.033978,26.362189 q 0.1143,0 0.192617,0.03175 0.08043,0.02963 0.12065,0.1016 0.04022,0.07197 0.04022,0.196851 v 0.726017 h -0.141817 l -0.02752,-0.224367 -0.0127,-0.02328 v -0.47837 q 0,-0.09525 -0.04445,-0.135467 -0.04233,-0.04233 -0.1651,-0.04233 -0.08043,0 -0.2032,0.0085 -0.12065,0.0085 -0.239184,0.01905 l -0.01693,-0.13335 q 0.07197,-0.0127 0.156633,-0.02328 0.08678,-0.01058 0.175684,-0.01693 0.0889,-0.0063 0.1651,-0.0063 z m 0.268817,0.421217 -0.0021,0.135467 -0.493185,0.0021 q -0.07408,0.0021 -0.103716,0.04022 -0.02963,0.03598 -0.02963,0.1016 v 0.06562 q 0,0.08043 0.0381,0.118533 0.0381,0.03598 0.122767,0.03598 0.05927,0 0.13335,-0.02117 0.0762,-0.02328 0.152401,-0.06985 0.0762,-0.04657 0.1397,-0.118534 v 0.13335 q -0.02328,0.02963 -0.06773,0.06985 -0.04233,0.0381 -0.103716,0.0762 -0.05927,0.03598 -0.133351,0.06138 -0.07197,0.02328 -0.156633,0.02328 -0.09102,0 -0.160867,-0.03175 -0.06985,-0.03387 -0.110067,-0.09737 -0.0381,-0.06562 -0.0381,-0.158751 v -0.112183 q 0,-0.12065 0.07408,-0.186267 0.0762,-0.06773 0.211667,-0.06773 z"
           style="font-style:normal;font-variant:normal;font-weight:normal;font-stretch:normal;font-size:2.11667px;font-family:'Exo 2';-inkscape-font-specification:'Exo 2, @wght=400';font-variant-ligatures:normal;font-variant-caps:normal;font-variant-numeric:normal;font-variant-east-asian:normal;font-variation-settings:'wght' 400;stroke-width:0.369182"
           id="path3634" />
        <path
           d="m 70.893346,26.362189 q 0.1016,0 0.201083,0.02752 0.09948,0.0254 0.190501,0.08043 l -0.01058,0.112184 q -0.09948,-0.02963 -0.175683,-0.04657 -0.0762,-0.01693 -0.162984,-0.01693 -0.0889,0 -0.143933,0.03175 -0.05292,0.02963 -0.07832,0.112183 -0.0254,0.08255 -0.0254,0.234951 0,0.1524 0.02328,0.237067 0.0254,0.08467 0.07832,0.118533 0.05292,0.03387 0.135467,0.03387 0.06138,0 0.110067,-0.01482 0.0508,-0.01693 0.105833,-0.05292 0.05715,-0.03598 0.13335,-0.09102 l 0.01693,0.127 q -0.08467,0.07832 -0.192617,0.13335 -0.10795,0.05503 -0.232834,0.05503 -0.194734,0 -0.2794,-0.137583 -0.08255,-0.137584 -0.08255,-0.406401 0,-0.201083 0.04233,-0.3175 0.04233,-0.118534 0.129117,-0.169334 0.08678,-0.0508 0.218017,-0.0508 z m 0.537634,-0.42545 v 1.481668 h -0.1397 L 71.27011,27.23849 71.25106,27.22367 v -0.706968 l 0.0127,-0.03175 q -0.0085,-0.05927 -0.01058,-0.1143 -0.0021,-0.05503 -0.0021,-0.116417 v -0.3175 z"
           style="font-style:normal;font-variant:normal;font-weight:normal;font-stretch:normal;font-size:2.11667px;font-family:'Exo 2';-inkscape-font-specification:'Exo 2, @wght=400';font-variant-ligatures:normal;font-variant-caps:normal;font-variant-numeric:normal;font-variant-east-asian:normal;font-variation-settings:'wght' 400;stroke-width:0.369182"
           id="path3636" />
        <path
           d="m 72.027881,26.362189 q 0.232834,0 0.336551,0.08467 0.105833,0.08467 0.105833,0.251884 0.0021,0.137583 -0.05715,0.2159 -0.05927,0.0762 -0.188384,0.0762 h -0.601134 v -0.1397 h 0.554568 q 0.06985,0 0.09102,-0.04657 0.02117,-0.04868 0.02117,-0.105833 -0.0021,-0.09948 -0.05927,-0.141817 -0.05715,-0.04233 -0.194733,-0.04233 -0.112184,0 -0.1778,0.03387 -0.0635,0.03175 -0.09102,0.1143 -0.0254,0.08043 -0.0254,0.226484 0,0.1651 0.03175,0.251884 0.03387,0.08678 0.105833,0.118533 0.07197,0.03175 0.190501,0.03175 0.08255,0 0.179916,-0.0064 0.09948,-0.0085 0.177801,-0.01905 l 0.01905,0.12065 q -0.04868,0.01905 -0.12065,0.03175 -0.06985,0.0127 -0.146051,0.01905 -0.07408,0.0064 -0.13335,0.0064 -0.1778,0 -0.28575,-0.05292 -0.10795,-0.05503 -0.15875,-0.173567 -0.04868,-0.12065 -0.04868,-0.317501 0,-0.2032 0.04868,-0.319617 0.0508,-0.118533 0.154516,-0.167217 0.105834,-0.0508 0.270934,-0.0508 z"
           style="font-style:normal;font-variant:normal;font-weight:normal;font-stretch:normal;font-size:2.11667px;font-family:'Exo 2';-inkscape-font-specification:'Exo 2, @wght=400';font-variant-ligatures:normal;font-variant-caps:normal;font-variant-numeric:normal;font-variant-east-asian:normal;font-variation-settings:'wght' 400;stroke-width:0.369182"
           id="path3638" />
        <path
           d="m 74.379497,26.387589 -0.300567,0.980018 q -0.0063,0.02328 -0.0254,0.0381 -0.01905,0.0127 -0.04445,0.0127 h -0.162983 q -0.0254,0 -0.04657,-0.01482 -0.01905,-0.01693 -0.02328,-0.04233 L 73.606913,26.66064 q -0.0085,-0.04022 -0.01693,-0.08043 -0.0063,-0.04022 -0.01693,-0.08255 h -0.0254 q -0.0085,0.04233 -0.01905,0.08255 -0.0085,0.04022 -0.01693,0.08043 l -0.167217,0.700617 q -0.0064,0.0254 -0.0254,0.04233 -0.01905,0.01482 -0.04657,0.01482 h -0.160867 q -0.0254,0 -0.04445,-0.0127 -0.01905,-0.01482 -0.0254,-0.0381 l -0.300567,-0.980018 h 0.186267 l 0.213784,0.759885 q 0.01058,0.0381 0.01905,0.07832 0.0085,0.0381 0.01482,0.0762 h 0.02752 q 0.01058,-0.0381 0.01905,-0.0762 0.01058,-0.04022 0.01905,-0.07832 l 0.17145,-0.702735 q 0.0042,-0.0254 0.02117,-0.04022 0.01905,-0.01693 0.04657,-0.01693 h 0.162983 q 0.0254,0 0.04233,0.01693 0.01905,0.01482 0.0254,0.04233 l 0.169333,0.700618 q 0.0085,0.0381 0.01693,0.0762 0.01058,0.0381 0.01905,0.07832 h 0.02752 q 0.01058,-0.04022 0.01693,-0.0762 0.0063,-0.0381 0.01905,-0.07832 l 0.213783,-0.759885 z"
           style="font-style:normal;font-variant:normal;font-weight:normal;font-stretch:normal;font-size:2.11667px;font-family:'Exo 2';-inkscape-font-specification:'Exo 2, @wght=400';font-variant-ligatures:normal;font-variant-caps:normal;font-variant-numeric:normal;font-variant-east-asian:normal;font-variation-settings:'wght' 400;stroke-width:0.369182"
           id="path3640" />
        <path
           d="m 74.62503,26.387589 v 1.030818 h -0.1778 v -1.030818 z m -0.04657,-0.43815 q 0.05503,0 0.05503,0.05503 v 0.12065 q 0,0.05503 -0.05503,0.05503 h -0.08467 q -0.05503,0 -0.05503,-0.05503 v -0.12065 q 0,-0.05503 0.05503,-0.05503 z"
           style="font-style:normal;font-variant:normal;font-weight:normal;font-stretch:normal;font-size:2.11667px;font-family:'Exo 2';-inkscape-font-specification:'Exo 2, @wght=400';font-variant-ligatures:normal;font-variant-caps:normal;font-variant-numeric:normal;font-variant-east-asian:normal;font-variation-settings:'wght' 400;stroke-width:0.369182"
           id="path3642" />
        <path
           d="m 75.063179,26.082789 v 1.051985 q 0,0.07408 0.03175,0.105833 0.03175,0.03175 0.107951,0.03175 h 0.156633 l 0.02117,0.137584 q -0.03387,0.0085 -0.07832,0.01482 -0.04445,0.0064 -0.08678,0.0085 -0.04233,0.0042 -0.06773,0.0042 -0.129117,0 -0.19685,-0.07197 -0.06773,-0.07197 -0.06773,-0.207434 v -1.075268 z m 0.328084,0.3048 v 0.141817 h -0.694268 v -0.131233 l 0.203201,-0.01058 z"
           style="font-style:normal;font-variant:normal;font-weight:normal;font-stretch:normal;font-size:2.11667px;font-family:'Exo 2';-inkscape-font-specification:'Exo 2, @wght=400';font-variant-ligatures:normal;font-variant-caps:normal;font-variant-numeric:normal;font-variant-east-asian:normal;font-variation-settings:'wght' 400;stroke-width:0.369182"
           id="path3644" />
        <path
           d="m 76.079178,26.362189 q 0.279401,0 0.279401,0.283634 v 0.772584 h -0.182034 v -0.721784 q 0,-0.103717 -0.03387,-0.141817 -0.03175,-0.04022 -0.112183,-0.04022 -0.09525,0 -0.1905,0.04445 -0.09525,0.04445 -0.226484,0.129117 l -0.0085,-0.129117 q 0.12065,-0.09102 0.239184,-0.143933 0.118533,-0.05292 0.23495,-0.05292 z m -0.446617,-0.42545 0.0021,0.408517 q 0,0.06985 -0.0063,0.131233 -0.0042,0.06138 -0.01482,0.107951 l 0.01905,0.03175 v 0.802217 h -0.179917 v -1.481668 z"
           style="font-style:normal;font-variant:normal;font-weight:normal;font-stretch:normal;font-size:2.11667px;font-family:'Exo 2';-inkscape-font-specification:'Exo 2, @wght=400';font-variant-ligatures:normal;font-variant-caps:normal;font-variant-numeric:normal;font-variant-east-asian:normal;font-variation-settings:'wght' 400;stroke-width:0.369182"
           id="path3646" />
        <path
           d="m 77.057074,26.082789 v 1.051985 q 0,0.07408 0.03175,0.105833 0.03175,0.03175 0.107951,0.03175 h 0.156633 l 0.02117,0.137584 q -0.03387,0.0085 -0.07832,0.01482 -0.04445,0.0064 -0.08678,0.0085 -0.04233,0.0042 -0.06773,0.0042 -0.129117,0 -0.19685,-0.07197 -0.06773,-0.07197 -0.06773,-0.207434 v -1.075268 z m 0.328084,0.3048 v 0.141817 h -0.694267 v -0.131233 l 0.2032,-0.01058 z"
           style="font-style:normal;font-variant:normal;font-weight:normal;font-stretch:normal;font-size:2.11667px;font-family:'Exo 2';-inkscape-font-specification:'Exo 2, @wght=400';font-variant-ligatures:normal;font-variant-caps:normal;font-variant-numeric:normal;font-variant-east-asian:normal;font-variation-settings:'wght' 400;stroke-width:0.369182"
           id="path3648" />
        <path
           d="m 78.073073,26.362189 q 0.279401,0 0.279401,0.283634 v 0.772584 H 78.17044 v -0.721784 q 0,-0.103717 -0.03387,-0.141817 -0.03175,-0.04022 -0.112183,-0.04022 -0.09525,0 -0.1905,0.04445 -0.09525,0.04445 -0.226484,0.129117 l -0.0085,-0.129117 q 0.12065,-0.09102 0.239184,-0.143933 0.118534,-0.05292 0.23495,-0.05292 z m -0.446617,-0.42545 0.0021,0.408517 q 0,0.06985 -0.0063,0.131233 -0.0042,0.06138 -0.01482,0.107951 l 0.01905,0.03175 v 0.802217 h -0.179917 v -1.481668 z"
           style="font-style:normal;font-variant:normal;font-weight:normal;font-stretch:normal;font-size:2.11667px;font-family:'Exo 2';-inkscape-font-specification:'Exo 2, @wght=400';font-variant-ligatures:normal;font-variant-caps:normal;font-variant-numeric:normal;font-variant-east-asian:normal;font-variation-settings:'wght' 400;stroke-width:0.369182"
           id="path3650" />
        <path
           d="m 78.940907,26.362189 q 0.232834,0 0.336551,0.08467 0.105833,0.08467 0.105833,0.251884 0.0021,0.137583 -0.05715,0.2159 -0.05927,0.0762 -0.188383,0.0762 h -0.601134 v -0.1397 h 0.554567 q 0.06985,0 0.09102,-0.04657 0.02117,-0.04868 0.02117,-0.105833 -0.0021,-0.09948 -0.05927,-0.141817 -0.05715,-0.04233 -0.194734,-0.04233 -0.112183,0 -0.1778,0.03387 -0.0635,0.03175 -0.09102,0.1143 -0.0254,0.08043 -0.0254,0.226484 0,0.1651 0.03175,0.251884 0.03387,0.08678 0.105834,0.118533 0.07197,0.03175 0.1905,0.03175 0.08255,0 0.179917,-0.0064 0.09948,-0.0085 0.1778,-0.01905 l 0.01905,0.12065 q -0.04868,0.01905 -0.12065,0.03175 -0.06985,0.0127 -0.14605,0.01905 -0.07408,0.0064 -0.13335,0.0064 -0.177801,0 -0.285751,-0.05292 -0.10795,-0.05503 -0.15875,-0.173567 -0.04868,-0.12065 -0.04868,-0.317501 0,-0.2032 0.04868,-0.319617 0.0508,-0.118533 0.154517,-0.167217 0.105833,-0.0508 0.270933,-0.0508 z"
           style="font-style:normal;font-variant:normal;font-weight:normal;font-stretch:normal;font-size:2.11667px;font-family:'Exo 2';-inkscape-font-specification:'Exo 2, @wght=400';font-variant-ligatures:normal;font-variant-caps:normal;font-variant-numeric:normal;font-variant-east-asian:normal;font-variation-settings:'wght' 400;stroke-width:0.369182"
           id="path3652" />
        <path
           d="m 80.435273,26.362189 q 0.279401,0 0.279401,0.283634 v 0.772584 H 80.53264 v -0.721784 q 0,-0.103717 -0.03387,-0.141817 -0.03175,-0.04022 -0.112183,-0.04022 -0.09525,0 -0.190501,0.04445 -0.09525,0.04445 -0.226483,0.129117 l -0.0085,-0.129117 q 0.12065,-0.09102 0.239184,-0.143933 0.118533,-0.05292 0.23495,-0.05292 z m -0.446617,-0.42545 0.0021,0.408517 q 0,0.06985 -0.0064,0.131233 -0.0042,0.06138 -0.01482,0.107951 l 0.01905,0.03175 v 0.802217 h -0.179917 v -1.481668 z"
           style="font-style:normal;font-variant:normal;font-weight:normal;font-stretch:normal;font-size:2.11667px;font-family:'Exo 2';-inkscape-font-specification:'Exo 2, @wght=400';font-variant-ligatures:normal;font-variant-caps:normal;font-variant-numeric:normal;font-variant-east-asian:normal;font-variation-settings:'wght' 400;stroke-width:0.369182"
           id="path3654" />
        <path
           d="m 81.303106,26.362189 q 0.232834,0 0.336551,0.08467 0.105833,0.08467 0.105833,0.251884 0.0021,0.137583 -0.05715,0.2159 -0.05927,0.0762 -0.188383,0.0762 h -0.601135 v -0.1397 h 0.554568 q 0.06985,0 0.09102,-0.04657 0.02117,-0.04868 0.02117,-0.105833 -0.0021,-0.09948 -0.05927,-0.141817 -0.05715,-0.04233 -0.194734,-0.04233 -0.112184,0 -0.1778,0.03387 -0.0635,0.03175 -0.09102,0.1143 -0.0254,0.08043 -0.0254,0.226484 0,0.1651 0.03175,0.251884 0.03387,0.08678 0.105833,0.118533 0.07197,0.03175 0.190501,0.03175 0.08255,0 0.179917,-0.0064 0.09948,-0.0085 0.1778,-0.01905 l 0.01905,0.12065 q -0.04868,0.01905 -0.12065,0.03175 -0.06985,0.0127 -0.14605,0.01905 -0.07408,0.0064 -0.133351,0.0064 -0.1778,0 -0.28575,-0.05292 -0.10795,-0.05503 -0.15875,-0.173567 -0.04868,-0.12065 -0.04868,-0.317501 0,-0.2032 0.04868,-0.319617 0.0508,-0.118533 0.154517,-0.167217 0.105833,-0.0508 0.270933,-0.0508 z"
           style="font-style:normal;font-variant:normal;font-weight:normal;font-stretch:normal;font-size:2.11667px;font-family:'Exo 2';-inkscape-font-specification:'Exo 2, @wght=400';font-variant-ligatures:normal;font-variant-caps:normal;font-variant-numeric:normal;font-variant-east-asian:normal;font-variation-settings:'wght' 400;stroke-width:0.369182"
           id="path3656" />
        <path
           d="m 82.039706,25.936739 -0.0021,1.198035 q 0,0.06773 0.03598,0.103716 0.0381,0.03387 0.105834,0.03387 h 0.09948 l 0.02117,0.137584 q -0.01905,0.0085 -0.05503,0.01482 -0.03387,0.0064 -0.07197,0.0085 -0.03598,0.0042 -0.06138,0.0042 -0.1143,0 -0.18415,-0.06773 -0.06773,-0.06773 -0.06773,-0.194734 v -1.238251 z"
           style="font-style:normal;font-variant:normal;font-weight:normal;font-stretch:normal;font-size:2.11667px;font-family:'Exo 2';-inkscape-font-specification:'Exo 2, @wght=400';font-variant-ligatures:normal;font-variant-caps:normal;font-variant-numeric:normal;font-variant-east-asian:normal;font-variation-settings:'wght' 400;stroke-width:0.369182"
           id="path3658" />
        <path
           d="m 82.918121,26.362189 q 0.188384,0 0.270934,0.1397 0.08255,0.137584 0.08255,0.406401 0,0.198967 -0.04233,0.3175 -0.04233,0.116417 -0.129116,0.167217 -0.08467,0.0508 -0.218017,0.0508 -0.101601,0 -0.201084,-0.02752 -0.09737,-0.02752 -0.1905,-0.08467 l 0.01058,-0.10795 q 0.09948,0.02752 0.175684,0.04657 0.0762,0.01693 0.160867,0.01693 0.09102,0 0.143933,-0.03175 0.05503,-0.03175 0.08043,-0.1143 0.0254,-0.08255 0.0254,-0.232834 0,-0.14605 -0.02328,-0.230717 -0.02328,-0.08467 -0.07408,-0.12065 -0.04868,-0.0381 -0.131234,-0.0381 -0.08467,0 -0.167217,0.04022 -0.08255,0.04022 -0.192617,0.122767 l -0.01693,-0.12065 q 0.05715,-0.06138 0.129117,-0.105833 0.07197,-0.04445 0.150283,-0.06773 0.08043,-0.0254 0.156634,-0.0254 z m -0.442384,0.0254 0.01905,0.213784 0.0127,0.02752 v 0.660401 l -0.0085,0.0254 q 0.0063,0.05927 0.0063,0.1143 0.0021,0.05503 0.0021,0.116417 v 0.29845 H 82.32757 v -1.456269 z"
           style="font-style:normal;font-variant:normal;font-weight:normal;font-stretch:normal;font-size:2.11667px;font-family:'Exo 2';-inkscape-font-specification:'Exo 2, @wght=400';font-variant-ligatures:normal;font-variant-caps:normal;font-variant-numeric:normal;font-variant-east-asian:normal;font-variation-settings:'wght' 400;stroke-width:0.369182"
           id="path3660" />
        <path
           d="m 84.145789,26.362189 q 0.1778,0 0.283634,0.05292 0.10795,0.05292 0.154517,0.173567 0.04657,0.118533 0.04657,0.315384 0,0.19685 -0.04657,0.3175 -0.04657,0.118534 -0.154517,0.17145 -0.105834,0.05292 -0.283634,0.05292 -0.175684,0 -0.283634,-0.05292 -0.105833,-0.05292 -0.154517,-0.17145 -0.04657,-0.12065 -0.04657,-0.3175 0,-0.196851 0.04657,-0.315384 0.04868,-0.12065 0.154517,-0.173567 0.10795,-0.05292 0.283634,-0.05292 z m 0,0.1524 q -0.112183,0 -0.1778,0.03598 -0.0635,0.03387 -0.09102,0.118533 -0.02752,0.08467 -0.02752,0.234951 0,0.150283 0.02752,0.23495 0.02752,0.08467 0.09102,0.12065 0.06562,0.03387 0.1778,0.03387 0.112184,0 0.1778,-0.03387 0.06562,-0.03598 0.09313,-0.12065 0.02752,-0.08467 0.02752,-0.23495 0,-0.150284 -0.02752,-0.234951 -0.02752,-0.08467 -0.09313,-0.118533 -0.06562,-0.03598 -0.1778,-0.03598 z"
           style="font-style:normal;font-variant:normal;font-weight:normal;font-stretch:normal;font-size:2.11667px;font-family:'Exo 2';-inkscape-font-specification:'Exo 2, @wght=400';font-variant-ligatures:normal;font-variant-caps:normal;font-variant-numeric:normal;font-variant-east-asian:normal;font-variation-settings:'wght' 400;stroke-width:0.369182"
           id="path3662" />
        <path
           d="m 85.132153,25.900755 q 0.03387,0 0.08678,0.0021 0.05292,0 0.10795,0.0042 0.05503,0.0021 0.09525,0.0085 l -0.01482,0.13335 h -0.211667 q -0.1016,0 -0.143934,0.04022 -0.04022,0.04022 -0.04022,0.13335 v 1.195918 h -0.179917 v -1.214968 q 0,-0.09737 0.02963,-0.162984 0.02963,-0.06773 0.09525,-0.103716 0.06562,-0.03598 0.175684,-0.03598 z m 0.20955,0.486834 v 0.141817 h -0.696384 v -0.131233 l 0.19685,-0.01058 z"
           style="font-style:normal;font-variant:normal;font-weight:normal;font-stretch:normal;font-size:2.11667px;font-family:'Exo 2';-inkscape-font-specification:'Exo 2, @wght=400';font-variant-ligatures:normal;font-variant-caps:normal;font-variant-numeric:normal;font-variant-east-asian:normal;font-variation-settings:'wght' 400;stroke-width:0.369182"
           id="path3664" />
      </g>
    </g>
  </g>
</svg>
